<svg id="Layer_1" data-name="Layer 1" xmlns="http://www.w3.org/2000/svg" viewBox="0 0 379.08 364.62"><defs><style>.cls-1{fill:#fff;}</style></defs><title>gastro2</title><path class="cls-1" d="M128,449.94a3.11,3.11,0,0,1-2-1.16,13,13,0,0,0-2-1.6,7.46,7.46,0,0,1-2.19-1.92c-1.12-1.79-2.25-3.57-3.38-5.36-8.63-13.63-17.54-27.73-20.27-44.38-0.43-2.62-1-5.26-1.58-7.81-1.06-4.77-2.15-9.7-2.22-14.52-0.41-28.12,11.81-51.89,36.34-70.65,6.82-5.21,15.9-11.72,25.76-15.81,12.15-5,23.36-7.5,34.27-7.5a69.16,69.16,0,0,1,10,.73c4.23,0.62,8.5,1.65,12.63,2.64,2,0.49,4.14,1,6.23,1.45l2.09,0.47a48.73,48.73,0,0,0,6.42,1.19l1,0.07a5.21,5.21,0,0,0,1.15.21l3.48,0.21,0.5,0.06,2.43,0.3c0.44,0.07.94,0.16,1.46,0.26l1,0.19a18.05,18.05,0,0,1,1.89.43l0.93,0.24c0.76,0.17,1.54.42,2.36,0.69l0.73,0.24a55.61,55.61,0,0,1,6.77,2.8,61.91,61.91,0,0,1,7.09,4.2c0.83,0.53,1.59,1.11,2.39,1.72l1.21,0.91,1,0.86c0.8,0.65,1.63,1.33,2.4,2.05a77.31,77.31,0,0,1,6.61,6.67,92.35,92.35,0,0,1,5.89,7.41c1.57,2.18,3.12,4.56,5,7.73,1.73,3,3,5.44,4.06,7.63,0.41,0.83.78,1.64,1.13,2.43,0.19,0.42.38,0.84,0.57,1.25l0.53,1.27c0.32,0.74.62,1.46,0.9,2.18,0.94,2.39,1.66,4.42,2.22,6.21q0.47,1.41.8,2.63l0.07,0.25c0.21,0.72.4,1.38,0.54,2,0.39,1.5.63,2.57,0.75,3.19l0.25,1.15a1.3,1.3,0,0,0,1.26,1h0.18a1.29,1.29,0,0,0,1.1-1.45l-0.16-1.17c-0.08-.66-0.24-1.78-0.53-3.35-0.1-.66-0.26-1.4-0.42-2.2l0-.17c-0.16-.83-0.37-1.77-0.62-2.78-0.44-1.89-1-4-1.81-6.57-0.23-.77-0.5-1.56-0.77-2.38l-0.44-1.32-0.48-1.3c-0.31-.87-0.63-1.75-1-2.64-0.92-2.37-2.07-5-3.64-8.26-1.74-3.46-3.18-6.09-4.67-8.52a98,98,0,0,0-5.67-8.34,83.73,83.73,0,0,0-6.59-7.73c-0.81-.89-1.7-1.73-2.56-2.55l-1-1-1.2-1c-0.83-.74-1.69-1.5-2.59-2.18a70.33,70.33,0,0,0-7.69-5.37,66,66,0,0,0-7.64-3.85l-0.71-.29c-0.77-.32-1.51-0.62-2.25-0.88a18,18,0,0,0,1-1.69c5.31-9.89,11.55-21.64,17.48-33.79,8-16.46,13.27-31.62,16-46.34,0-.06,0-0.11,0-0.18l0.61-1.69c0.1-.28.21-0.59,0.33-0.89l1.38-3.24,0.93-1.86c0.12-.22.24-0.47,0.36-0.73,0.21-.42.42-0.86,0.67-1.27l1.25-2.15c0.32-.58.68-1.13,1.07-1.71l0.31-.46c0.18-.25.36-0.53,0.54-0.81,0.31-.46.62-0.95,1-1.38l1.74-2.25c0.36-.46.76-0.91,1.17-1.35l0.71-.8,0.36-.41c0.19-.22.39-0.45,0.6-0.66l1-1c0.25-.23.51-0.49,0.77-0.75a15.4,15.4,0,0,1,1.33-1.25l2.3-2c0.46-.36,1-0.72,1.46-1.09l0.88-.65a23.08,23.08,0,0,1,2.15-1.45l0.23-.14c0.29-.17.58-0.36,0.87-0.55a15.11,15.11,0,0,1,1.51-.89l2.48-1.31a14.94,14.94,0,0,1,1.51-.7l0.88-.38,0.83-.36c0.49-.22,1-0.43,1.42-0.58l2.25-.79a26,26,0,0,1,2.82-.87l1.12-.3,0.63-.17c0.35-.09.68-0.18,1-0.25l4.19-.81a1.3,1.3,0,0,0,1.06-1.42,1.28,1.28,0,0,0-1.28-1.14h-0.14l-4.33.5c-0.38.05-.76,0.13-1.16,0.2l-0.63.12-1.12.21a28.76,28.76,0,0,0-3.14.7l-2.34.62c-0.56.14-1.11,0.34-1.65,0.53l-0.88.3-0.91.31a18,18,0,0,0-1.78.67l-2.65,1.14a17.42,17.42,0,0,0-1.8.88l-0.93.49-0.26.13a27.23,27.23,0,0,0-2.52,1.42l-0.9.56c-0.59.36-1.18,0.73-1.77,1.12l-2.6,1.89a19.43,19.43,0,0,0-1.66,1.32c-0.28.24-.55,0.48-0.83,0.7l-1.23,1c-0.29.26-.54,0.5-0.79,0.75l-0.39.37-0.78.76c-0.49.47-1,1-1.47,1.47l-2,2.26c-0.46.49-.87,1-1.27,1.53-0.21.26-.41,0.53-0.62,0.78l-0.36.46c-0.48.6-1,1.22-1.39,1.87l-1.51,2.19c-0.34.48-.63,1-0.91,1.44l-0.43.71-0.36.6c-3.55-5.59-7.3-11.14-10.94-16.52l-2.83-4.19c-15-22.23-23.3-42.15-26.22-62.66-0.42-3-1.11-5.88-1.85-9-0.28-1.18-.56-2.38-0.84-3.61l26.38-5.21,4.74,8.4c4.43,7.87,9,16,13.66,24a33.9,33.9,0,0,0,3.46,4.61A38.2,38.2,0,0,1,285.1,126c3,4.61,6.9,7,11.57,7a20.73,20.73,0,0,0,8.34-2c10-4.47,20.31-9.08,30.19-14.22,7.77-4,16.42-6.05,27.22-6.35,2.37-.06,5-0.1,7.92-0.1,2.65,0,5.3,0,8,0l3.92,0h1.68a10.93,10.93,0,0,1,3.48.41q4.26,1.46,8.55,2.87c8.83,2.93,18,6,26.55,9.76,5,2.2,9.7,5.38,14.24,8.46,2.41,1.63,4.9,3.32,7.42,4.86,13.61,8.28,19.23,21.87,24.24,36.25,5.35,15.36,6.32,32.45,3.06,53.79-1.28,8.36-3.63,16.73-5.91,24.82-1.75,6.19-3.55,12.61-4.87,19-3.9,18.9-12,37.59-25.64,58.82a213.51,213.51,0,0,1-26.59,33.34c-10.64,11-23.14,22.3-39.34,35.68C358.5,407.15,345.14,414,327,420c-14.19,4.71-29.73,7-47.49,7-4,0-8.31-.12-12.67-0.36-21-1.14-38.67-6.47-54.08-16.27a83.1,83.1,0,0,1-25.89-26.84c-6.94-11.2-13.73-22.9-20.78-35.76-1.53-2.79-3.22-4-5.48-4a12.25,12.25,0,0,0-3.91.83c-6.93,2.37-10.75,7.77-14.44,13-0.66.94-1.32,1.88-2,2.8a45.34,45.34,0,0,0-9.12,28.22c0.24,10.34,4.34,19.94,12.18,28.53l0.17,0.18c3.7,4.05,5.56,6.09,5.57,7.86s-1.79,3.76-5.39,7.72l-0.15.17c-3.51,3.87-6.94,7.92-10.26,11.83l-3,3.55A3.39,3.39,0,0,1,128,449.94Z" transform="translate(-94.24 -85.32)"/></svg>