<?xml version="1.0" encoding="utf-8"?>
<!-- Generator: Adobe Illustrator 19.2.1, SVG Export Plug-In . SVG Version: 6.00 Build 0)  -->
<svg version="1.1" id="Layer_1" xmlns="http://www.w3.org/2000/svg" xmlns:xlink="http://www.w3.org/1999/xlink" x="0px" y="0px"
	 viewBox="0 0 557.1 557.1" style="enable-background:new 0 0 557.1 557.1;" xml:space="preserve">
<style type="text/css">
	.st0{display:none;fill:#004C84;}
	.st1{fill:#0065BD;}
	.st2{fill:url(#SVGID_1_);}
	.st3{fill:#004C84;}
	.st4{fill:#FFFFFF;}
</style>
<rect id="pllocha" class="st0" width="557.1" height="557.1"/>
<circle class="st1" cx="278.6" cy="278.6" r="278.6"/>
<linearGradient id="SVGID_1_" gradientUnits="userSpaceOnUse" x1="331.4979" y1="305.028" x2="421.504" y2="508.9129">
	<stop  offset="0" style="stop-color:#0065BD"/>
	<stop  offset="1" style="stop-color:#004C84"/>
</linearGradient>
<path class="st2" d="M225.9,412.4L326.5,553c88.4-15.3,162.5-72.3,201.3-149.9L430,266.4L225.9,412.4z"/>
<rect x="281.6" y="304.2" transform="matrix(0.5819 0.8133 -0.8133 0.5819 513.5234 -139.5793)" class="st3" width="221.9" height="251"/>
<title>gastro</title>
<path class="st4" d="M128,449.9c-0.8-0.1-1.5-0.5-2-1.2c-0.6-0.6-1.3-1.1-2-1.6c-0.8-0.5-1.6-1.1-2.2-1.9c-1.1-1.8-2.3-3.6-3.4-5.4
	c-8.6-13.6-17.5-27.7-20.3-44.4c-0.4-2.6-1-5.3-1.6-7.8c-1.1-4.8-2.2-9.7-2.2-14.5c-0.4-28.1,11.8-51.9,36.3-70.6
	c6.8-5.2,15.9-11.7,25.8-15.8c12.1-5,23.4-7.5,34.3-7.5c3.3,0,6.7,0.2,10,0.7c4.2,0.6,8.5,1.6,12.6,2.6c2,0.5,4.1,1,6.2,1.5l2.1,0.5
	c2.1,0.5,4.3,0.9,6.4,1.2l1,0.1c0.4,0.1,0.8,0.2,1.1,0.2l3.5,0.2l0.5,0.1l2.4,0.3c0.4,0.1,0.9,0.2,1.5,0.3l1,0.2
	c0.6,0.1,1.3,0.3,1.9,0.4l0.9,0.2c0.8,0.2,1.5,0.4,2.4,0.7l0.7,0.2c2.3,0.8,4.6,1.7,6.8,2.8c2.5,1.2,4.8,2.6,7.1,4.2
	c0.8,0.5,1.6,1.1,2.4,1.7l1.2,0.9l1,0.9c0.8,0.6,1.6,1.3,2.4,2c2.3,2.1,4.5,4.3,6.6,6.7c2.1,2.4,4.1,4.8,5.9,7.4
	c1.6,2.2,3.1,4.6,5,7.7c1.7,3,3,5.4,4.1,7.6c0.4,0.8,0.8,1.6,1.1,2.4c0.2,0.4,0.4,0.8,0.6,1.3l0.5,1.3c0.3,0.7,0.6,1.5,0.9,2.2
	c0.9,2.4,1.7,4.4,2.2,6.2c0.3,0.9,0.6,1.8,0.8,2.6l0.1,0.3c0.2,0.7,0.4,1.4,0.5,2c0.4,1.5,0.6,2.6,0.8,3.2l0.3,1.1
	c0.1,0.6,0.7,1,1.3,1h0.2c0.7-0.1,1.2-0.7,1.1-1.5l-0.2-1.2c-0.1-0.7-0.2-1.8-0.5-3.4c-0.1-0.7-0.3-1.4-0.4-2.2v-0.2
	c-0.2-0.8-0.4-1.8-0.6-2.8c-0.4-1.9-1-4-1.8-6.6c-0.2-0.8-0.5-1.6-0.8-2.4l-0.4-1.3l-0.5-1.3c-0.3-0.9-0.6-1.8-1-2.6
	c-0.9-2.4-2.1-5-3.6-8.3c-1.7-3.5-3.2-6.1-4.7-8.5c-1.7-2.9-3.6-5.7-5.7-8.3c-2-2.7-4.2-5.3-6.6-7.7c-0.8-0.9-1.7-1.7-2.6-2.5l-1-1
	l-1.2-1c-0.8-0.7-1.7-1.5-2.6-2.2c-2.4-2-5-3.8-7.7-5.4c-2.5-1.4-5-2.7-7.6-3.9l-0.7-0.3c-0.8-0.3-1.5-0.6-2.3-0.9
	c0.4-0.5,0.7-1.1,1-1.7c5.3-9.9,11.5-21.6,17.5-33.8c8-16.5,13.3-31.6,16-46.3c0-0.1,0-0.1,0-0.2l0.6-1.7c0.1-0.3,0.2-0.6,0.3-0.9
	l1.4-3.2l0.9-1.9c0.1-0.2,0.2-0.5,0.4-0.7c0.2-0.4,0.4-0.9,0.7-1.3l1.3-2.1c0.3-0.6,0.7-1.1,1.1-1.7l0.3-0.5
	c0.2-0.3,0.4-0.5,0.5-0.8c0.3-0.5,0.6-0.9,1-1.4l1.7-2.3c0.4-0.5,0.8-0.9,1.2-1.4l0.7-0.8l0.4-0.4c0.2-0.2,0.4-0.4,0.6-0.7l1-1
	c0.3-0.2,0.5-0.5,0.8-0.8c0.4-0.4,0.9-0.9,1.3-1.3l2.3-2c0.5-0.4,1-0.7,1.5-1.1l0.9-0.6c0.7-0.5,1.4-1,2.1-1.4l0.2-0.1
	c0.3-0.2,0.6-0.4,0.9-0.6c0.5-0.3,1-0.6,1.5-0.9l2.5-1.3c0.5-0.3,1-0.5,1.5-0.7l0.9-0.4l0.8-0.4c0.5-0.2,1-0.4,1.4-0.6l2.3-0.8
	c0.9-0.3,1.9-0.6,2.8-0.9l1.1-0.3l0.6-0.2c0.4-0.1,0.7-0.2,1-0.3l4.2-0.8c0.7-0.1,1.1-0.7,1.1-1.4c-0.1-0.7-0.6-1.1-1.3-1.1h-0.1
	l-4.3,0.5c-0.4,0.1-0.8,0.1-1.2,0.2l-0.6,0.1l-1.1,0.2c-1.1,0.2-2.1,0.4-3.1,0.7l-2.3,0.6c-0.6,0.1-1.1,0.3-1.6,0.5l-0.9,0.3
	l-0.9,0.3c-0.6,0.2-1.2,0.4-1.8,0.7l-2.6,1.1c-0.6,0.3-1.2,0.6-1.8,0.9l-0.9,0.5l-0.3,0.1c-0.9,0.4-1.7,0.9-2.5,1.4l-0.9,0.6
	c-0.6,0.4-1.2,0.7-1.8,1.1l-2.6,1.9c-0.6,0.4-1.1,0.9-1.7,1.3c-0.3,0.2-0.5,0.5-0.8,0.7l-1.2,1c-0.3,0.3-0.5,0.5-0.8,0.8l-0.4,0.4
	L287,173c-0.5,0.5-1,1-1.5,1.5l-2,2.3c-0.5,0.5-0.9,1-1.3,1.5c-0.2,0.3-0.4,0.5-0.6,0.8l-0.4,0.5c-0.5,0.6-1,1.2-1.4,1.9l-1.5,2.2
	c-0.3,0.5-0.6,1-0.9,1.4l-0.4,0.7l-0.4,0.6c-3.5-5.6-7.3-11.1-10.9-16.5l-2.8-4.2c-15-22.2-23.3-42.2-26.2-62.7
	c-0.4-3-1.1-5.9-1.9-9c-0.3-1.2-0.6-2.4-0.8-3.6l26.4-5.2l4.7,8.4c4.4,7.9,9,16,13.7,24c1,1.6,2.2,3.2,3.5,4.6c1,1.2,2,2.5,2.8,3.8
	c3,4.6,6.9,7,11.6,7c2.9-0.1,5.7-0.8,8.3-2c10-4.5,20.3-9.1,30.2-14.2c7.8-4,16.4-6.1,27.2-6.3c2.4-0.1,5-0.1,7.9-0.1
	c2.6,0,5.3,0,8,0h3.9h1.7c1.2-0.1,2.3,0.1,3.5,0.4c2.8,1,5.7,1.9,8.5,2.9c8.8,2.9,18,6,26.5,9.8c5,2.2,9.7,5.4,14.2,8.5
	c2.4,1.6,4.9,3.3,7.4,4.9c13.6,8.3,19.2,21.9,24.2,36.3c5.4,15.4,6.3,32.4,3.1,53.8c-1.3,8.4-3.6,16.7-5.9,24.8
	c-1.8,6.2-3.5,12.6-4.9,19c-3.9,18.9-12,37.6-25.6,58.8c-7.7,12-16.6,23.1-26.6,33.3c-10.6,11-23.1,22.3-39.3,35.7
	c-10.6,8.8-24,15.6-42.1,21.6c-14.2,4.7-29.7,7-47.5,7c-4,0-8.3-0.1-12.7-0.4c-21-1.1-38.7-6.5-54.1-16.3
	c-10.6-6.9-19.4-16-25.9-26.8c-6.9-11.2-13.7-22.9-20.8-35.8c-1.5-2.8-3.2-4-5.5-4c-1.3,0.1-2.7,0.3-3.9,0.8
	c-6.9,2.4-10.8,7.8-14.4,13c-0.7,0.9-1.3,1.9-2,2.8c-6.1,8.1-9.3,18.1-9.1,28.2c0.2,10.3,4.3,19.9,12.2,28.5l0.2,0.2
	c3.7,4,5.6,6.1,5.6,7.9s-1.8,3.8-5.4,7.7l-0.1,0.2c-3.5,3.9-6.9,7.9-10.3,11.8l-3,3.5C129.7,449.2,128.9,449.8,128,449.9z"/>
</svg>
