<?xml version="1.0" encoding="utf-8"?>
<!-- Generator: Adobe Illustrator 19.2.1, SVG Export Plug-In . SVG Version: 6.00 Build 0)  -->
<svg version="1.1" id="Layer_1" xmlns="http://www.w3.org/2000/svg" xmlns:xlink="http://www.w3.org/1999/xlink" x="0px" y="0px"
	 viewBox="0 0 557.1 557.1" style="enable-background:new 0 0 557.1 557.1;" xml:space="preserve">
<style type="text/css">
	.st0{fill:#0065BD;}
	.st1{fill:url(#SVGID_1_);}
	.st2{fill:#FFFFFF;}
</style>
<circle class="st0" cx="278.6" cy="278.6" r="278.6"/>
<linearGradient id="SVGID_1_" gradientUnits="userSpaceOnUse" x1="287.6819" y1="219.4424" x2="411.2357" y2="513.4136">
	<stop  offset="0" style="stop-color:#0065BD"/>
	<stop  offset="1" style="stop-color:#004C84"/>
</linearGradient>
<path class="st1" d="M176,341.5L326.5,553c88.4-15.3,162.5-72.3,201.3-149.9l-94.7-133.8l-77.8,3.3l-189.8-12.7L176,341.5z"/>
<title>kolono</title>
<path class="st2" d="M428.5,127.2c-3.3,2.6-6.3,5.5-9,8.7c-2.5,2.9-4.8,6-7,9.1c-0.1-0.1-0.2-0.3-0.3-0.4c-0.2-0.3-0.4-0.6-0.6-0.8
	c-0.2-0.3-0.4-0.6-0.6-0.8c-0.5-0.5-0.9-1-1.5-1.5c-0.5-0.4-1-0.9-1.6-1.3c-0.5-0.4-1.1-0.7-1.6-1c-0.5-0.3-1-0.6-1.5-0.9
	s-1-0.5-1.4-0.6c-0.9-0.4-1.6-0.6-2.2-0.8s-0.9-0.3-0.9-0.3c-0.2-0.1-0.5,0.1-0.5,0.3c0,0.2,0,0.3,0.1,0.4l0,0c0,0,0.2,0.2,0.6,0.6
	l1.7,1.5c0.7,0.6,1.5,1.3,2.3,2.1c0.4,0.4,0.8,0.8,1.2,1.2s0.8,0.8,1.1,1.3s0.7,0.9,1,1.3c0.3,0.4,0.5,0.9,0.8,1.3
	c0.1,0.2,0.2,0.4,0.3,0.6l0.3,0.6c0.1,0.4,0.2,0.8,0.3,1.1c0,0.1,0,0.2,0,0.2c-2.1,3.3-4.3,6.8-6.4,10.4c-2.7,4.6-5.5,9.3-8.4,14.2
	l-0.1-0.2c-0.3-0.5-0.7-1-1.1-1.5c-0.4-0.5-0.8-0.9-1.3-1.3c-0.4-0.4-0.9-0.8-1.3-1.1c-0.4-0.3-0.9-0.6-1.3-0.9
	c-0.4-0.3-0.9-0.5-1.3-0.7s-0.8-0.4-1.1-0.5s-0.6-0.3-0.9-0.3c-0.5-0.1-0.8-0.2-0.8-0.2c-0.2-0.1-0.5,0.1-0.5,0.4
	c0,0.1,0,0.3,0.1,0.4l0,0l0.5,0.6l1.3,1.5c1.2,1.5,2.4,3,3.4,4.6c0.2,0.4,0.5,0.9,0.7,1.3c0.2,0.4,0.4,0.8,0.5,1.2
	c0.1,0.2,0.1,0.4,0.2,0.6s0.1,0.4,0.1,0.5c0,0.1,0,0.2,0,0.2c-2,3.2-4,6.5-6.1,9.8c-3.2,4.9-6.6,9.8-10.3,14.6
	c-2.2,2.9-4.6,5.7-7.1,8.5c-3.8,4.2,0-0.1,0-0.1c-0.1-0.7-0.3-1.3-0.4-2s-0.4-1.3-0.6-2s-0.5-1.3-0.8-1.8c-0.3-0.6-0.6-1.1-1-1.6
	c-0.2-0.3-0.3-0.5-0.5-0.7l-0.5-0.6c-0.3-0.4-0.6-0.7-0.9-1l-0.8-0.7c-0.5-0.4-0.7-0.6-0.7-0.6c-0.2-0.1-0.5-0.1-0.6,0.1
	c0,0,0,0,0,0c-0.1,0.1-0.1,0.3-0.1,0.4v0.1c0,0,0.1,0.3,0.4,0.8l0.4,0.9c0.2,0.3,0.3,0.8,0.5,1.2c0.2,0.4,0.4,0.9,0.5,1.4
	c0.1,0.5,0.3,1,0.4,1.6s0.3,1.1,0.4,1.7s0.2,1.2,0.3,1.8s0.1,1.2,0.2,1.8s0.1,1.1,0.1,1.7s0,1.2,0.1,1.7v0.2
	c-0.4,0.4-0.9,0.9-1.3,1.3c-4.5,4.4-9.3,8.4-14.5,12c-5.3,3.6-10.9,6.6-16.8,9.1c-7.2,2.9-14.8,5-22.5,6.1c0.2-0.5,0.3-1,0.5-1.6
	c0.2-0.8,0.4-1.6,0.6-2.4s0.3-1.7,0.4-2.6s0.2-1.9,0.2-2.7c0-0.4,0-0.8,0-1.2v-0.7c0-0.2,0-0.4-0.1-0.6c-0.1-0.8-0.2-1.6-0.4-2.4
	c-0.2-0.7-0.4-1.4-0.6-2.1c-0.2-0.6-0.5-1.2-0.7-1.7s-0.5-0.8-0.6-1.1l-0.6-1c-0.1-0.2-0.4-0.3-0.6-0.2c-0.2,0.1-0.3,0.3-0.2,0.5
	c0,0,0.1,0.4,0.2,1.1c0.1,0.4,0.2,0.8,0.3,1.3s0.1,1,0.2,1.6c0.1,0.6,0.1,1.3,0.1,1.9c0.1,0.7,0.1,1.4,0,2.1v0.6l0,0l0,0v0.2v0.3
	c0,0.4-0.1,0.8-0.1,1.2c-0.1,0.8-0.3,1.5-0.4,2.2s-0.4,1.5-0.6,2.3s-0.4,1.5-0.7,2.2s-0.5,1.4-0.7,2c-0.2,0.4-0.3,0.9-0.5,1.3
	c-3.8,0.4-7.6,0.6-11.4,0.6h-1.3h-1.2H289h-2.6l-2.5-0.1c-3.3-0.1-6.7-0.3-10-0.6c-5.2-0.4-10.4-1-15.5-1.9v-0.1l0.6-1.1
	c0.4-0.8,0.7-1.6,1-2.5c0.2-0.4,0.3-0.9,0.4-1.3c0.1-0.4,0.2-0.9,0.3-1.3c0.2-0.9,0.3-1.8,0.4-2.6s0.2-1.7,0.2-2.6s0-1.6,0-2.4
	s-0.1-1.5-0.2-2.1c0-0.2,0-0.3,0-0.5s0-0.3-0.1-0.5s-0.1-0.6-0.1-0.8c-0.1-0.5-0.2-1-0.3-1.3c-0.1-0.7-0.3-1.2-0.3-1.2
	c-0.1-0.2-0.3-0.4-0.5-0.3c-0.2,0-0.3,0.2-0.3,0.4c0,0-0.1,0.4-0.2,1.2c-0.1,0.4-0.1,0.8-0.2,1.3l-0.1,0.8c0,0.1,0,0.3,0,0.4
	c0,0.1,0,0.3-0.1,0.5c0,0.3-0.1,0.6-0.1,1s-0.1,0.7-0.2,1c-0.1,0.7-0.2,1.4-0.4,2.2s-0.3,1.5-0.5,2.3s-0.4,1.5-0.7,2.3
	s-0.5,1.5-0.8,2.2s-0.6,1.4-1,2l-0.5,0.9l-0.5,0.8c-0.1,0.2-0.3,0.4-0.4,0.5c-12.5-2.3-24.6-6.5-35.9-12.5c-4.3-2.4-8.4-5.1-12.4-8
	c0.4-0.2,0.8-0.4,1.2-0.7s0.9-0.5,1.4-0.8c0.9-0.6,1.8-1.3,2.6-2c0.9-0.7,1.7-1.5,2.4-2.3c0.7-0.9,1.5-1.7,2.1-2.6
	c0.6-0.9,1.2-1.8,1.8-2.7c0.5-0.9,1-1.8,1.3-2.7l0.5-1.3c0.1-0.4,0.3-0.8,0.4-1.2s0.3-0.8,0.3-1.1s0.1-0.7,0.2-1.1
	c0.1-0.6,0.2-1.1,0.3-1.7c0.1-0.9,0.1-1.5,0.1-1.5c0-0.2-0.2-0.5-0.4-0.5c-0.2,0-0.3,0.1-0.4,0.2l-0.5,1.4c-0.2,0.5-0.4,1-0.7,1.5
	c-0.3,0.6-0.6,1.2-1,1.9c-0.2,0.3-0.4,0.7-0.6,1l-0.7,1.1c-0.4,0.8-1,1.5-1.6,2.2s-1.2,1.5-1.9,2.2s-1.4,1.4-2.1,2.1
	s-1.5,1.3-2.3,1.8c-0.8,0.6-1.5,1.1-2.4,1.6c-0.4,0.2-0.8,0.4-1.2,0.7c-0.4,0.2-0.8,0.4-1.1,0.6l-1.1,0.5c-0.3,0.1-0.5,0.2-0.8,0.3
	c-4.1-3.4-7.9-7-11.5-10.9c-7.8-8.4-14.2-17.3-20.1-25.8l-2.2-3.1c0.2-0.1,0.3-0.3,0.5-0.5l0.6-0.6c0.2-0.2,0.4-0.4,0.7-0.6l0.7-0.6
	c0.2-0.2,0.5-0.4,0.8-0.6c0.6-0.4,1.1-0.8,1.7-1.1l1.9-1c0.7-0.3,1.3-0.6,2-0.8s1.3-0.4,1.9-0.6s1.5-0.3,2.1-0.4l0.3-0.1h0.1l0,0
	h0.4l0.9-0.1c0.5-0.1,1.1-0.1,1.6-0.1c0.5,0,0.9,0,1.3,0c0.7,0,1.1,0,1.1,0c0.3,0,0.4-0.2,0.4-0.5c0-0.2-0.1-0.3-0.3-0.4
	c0,0-0.4-0.2-1-0.5c-0.3-0.1-0.7-0.3-1.2-0.5c-0.5-0.2-1.1-0.4-1.7-0.5l-1-0.2l-0.6-0.1h-0.4h-0.3c-0.7,0-1.4-0.1-2.2-0.1
	s-1.7,0.1-2.6,0.2s-1.7,0.4-2.6,0.6s-1.7,0.6-2.5,0.9s-1.6,0.8-2.3,1.2c-0.7,0.4-1.4,0.9-2,1.4c-0.6,0.4-1.1,0.8-1.6,1.3
	c-1.1-1.6-2.2-3.1-3.3-4.6c-2.3-3.1-4.6-6.1-6.9-8.8c0.1-0.5,0.2-1,0.3-1.5c0.4-1.4,0.9-2.6,1.7-3.8c0.2-0.3,0.4-0.6,0.6-0.9
	l0.3-0.5l0.4-0.4c0.5-0.6,1-1.1,1.6-1.6l0.9-0.7c0.3-0.2,0.6-0.4,0.9-0.6s0.6-0.4,0.9-0.6c0.3-0.2,0.6-0.3,0.9-0.5
	c0.3-0.1,0.6-0.3,0.9-0.4l0.9-0.3c0.6-0.2,1.1-0.3,1.6-0.5l1.3-0.3c0.3-0.1,0.6-0.1,0.9-0.1h0.3c0.2,0,0.4-0.3,0.4-0.5
	c0-0.2-0.2-0.3-0.4-0.4l-0.3-0.1c-0.3-0.1-0.6-0.1-0.9-0.1c-0.4,0-0.9-0.1-1.4-0.1c-0.6,0-1.3,0-1.9,0.1c-0.7,0.1-1.5,0.2-2.2,0.4
	c-0.4,0.1-0.8,0.2-1.2,0.4c-0.4,0.1-0.8,0.3-1.2,0.5s-0.8,0.4-1.2,0.6l-1.2,0.7c-0.8,0.5-1.5,1.1-2.2,1.8l-0.5,0.5l-0.5,0.5
	c-0.3,0.4-0.6,0.7-0.9,1.1c-0.3,0.4-0.6,0.8-0.8,1.2l-0.7,1.2c-0.2,0.5-0.4,0.9-0.6,1.4c-4.6-5.2-9.8-9.7-15.6-13.5
	c-1.7-1.1-3.3-2-4.8-2.7c5.3-3.9,11.3-6.5,17.7-7.7c10.3-2.2,18.4,2.4,26.2,7.7c3.2,2.3,6.3,4.8,9.2,7.5c5.3,4.6,8.5,10.4,8.8,17.5
	c0.1,3,1.4,4.4,4.3,5.2c11.8,3.4,20.1,10.8,24.7,22.3c0,0.1,0.1,0.1,0.1,0.2c0.5,1.3,0.6,3.1,1.6,3.8s2.7,0,4.1,0.2
	c3.9,0.7,8,1.1,11.7,2.5c5.9,2.1,11.3,5.3,16,9.5c1.9,1.9,3.5,4,5,6.3c0.8,1.2,1.4,1.9,2.9,0.8c8.3-6.2,17.9-7,27.6-5.9
	c3.9,0.4,7.6,2.5,11.3,4c2.5,1,4.8,2.4,7.4,3.6c13.5-14.9,29.3-24.8,50.7-22.8c0.1-1.2,0.2-2.4,0.4-3.6c2.5-11.3,7.5-20.9,18.3-26.4
	c0.5-0.3,0.7-1.5,0.6-2.2c-0.7-7-1.1-13.9,2.4-20.3c1.9-3.4,4.7-6.2,8-8.1c1.5-1,2.7-2.4,3.3-4.1c1.6-4.7,4.2-9,7.5-12.6
	c3.1-3.5,7.4-5.1,11.8-6.1c6.8-1.4,13.6-0.9,19.8,2.7c3,1.7,5.7,3.9,8,6.6c-0.7,0.2-1.4,0.5-2.2,0.7
	C434.5,123.1,431.3,124.9,428.5,127.2z"/>
<path class="st2" d="M89.8,340.7c0.4,1,0.6,2.1,0.3,3.2c-3.1,9.2-2.5,18.1,2.4,26.6c1.7,2.9,3.6,5.6,5.6,8.2c1,1.2,1.5,2.8,1.4,4.4
	c-0.6,7.2,1.2,14.5,5.2,20.6c5.5,8.2,12.1,15.7,20.5,21.1c6.1,3.8,13.1,6.1,20.3,6.5c3.8,0.3,7.7,0.1,11.6,0
	c1.5-0.1,2.9-0.2,4.4-0.4c7.5-0.9,14.4-3.9,21.3-7c2-0.9,4.3-2.8,6-2.4c2.1,0.4,3.9,2.7,5.5,4.4c4.1,4.1,8.6,7.7,10.4,13.6
	c1.7,5.3,3.9,10.5,6.2,15.7s4.6,6,9.8,4.5c2.1-0.6,2.9-1.9,3-4.1c0.1-4.5-2.4-7.9-5-11.2c-4.7-5.8-8.1-12.4-10.3-19.6
	c-2-7.4-5.6-14.2-10.5-20.1c-0.7-0.8-1.2-1.8-1.4-2.8c-0.4-3.3,0.2-6.7,1.6-9.7c2.5-4.7,4.6-9.6,6.4-14.6c2.6-7.7,2.4-15.8,1.4-23.8
	c-1-8.2-4.9-15.8-11.1-21.3c-2.5-2.1-5-4-7.7-5.9c-0.9-0.7-1.8-1.2-0.9-2.6c2.8-4.5,2.4-9.5,1.5-14.2c-1.2-6.6-4.6-12.7-9.7-17.2
	c-0.5-0.6-0.6-1.4-0.4-2.1c1.9-5.5,2.4-10.8-0.5-16.1c-0.3-0.6-0.4-1.4-0.1-2.1c1.2-2.3,2.5-4.5,3.9-6.9c0.2,0,0.3,0.1,0.4,0.1
	c0.6,0.4,1.2,0.7,1.8,1.1c7.4,5.2,16.2,8,25.2,7.8c2.7,0,5.5-0.8,8.2-1.2c1.4-0.3,2.8,0.3,3.6,1.4c7.6,8.5,17,12.5,28.4,11.3
	c1.7-0.2,3.5,0.4,4.7,1.6c2.8,2.3,5.6,4.9,8.8,6.2c12,4.7,24.1,4.3,36.1-0.5c1.3-0.5,2.7-0.5,4-0.2c6.2,1.5,12.7,1.9,19.1,1.2
	c5.7-0.7,9.9-4.3,13.5-8.4c2.6-2.9,5-2.8,8.3-1.8c8.6,2.5,16.8,1.5,24.1-4.1l4.2-3.2c-0.2,5.7,1.8,11.2,5.7,15.4
	c2.5,2.7,2.3,5,0.5,7.9c-3.3,5.4-3.4,11.4-1.3,17.2c1.4,3.8,3.1,7.4,5.1,10.9c1,1.4,1,3.2,0,4.5c-5.6,9.8-6.9,19.8-1.6,30.2
	c0.8,1.5,0.5,2.8-1,4c-1.7,1.5-3.3,3.2-4.6,5.1c-1.5,1.9-2.7,3.9-4.2,6c-0.4-0.5-0.8-0.8-1-1.1c-7.3-9.4-16.5-14.9-28.7-14.9
	c-0.9,0-1.8-0.9-2.5-1.5c-2.1-1.9-3.8-4.3-6.1-5.8c-2.9-1.7-6-3.2-9.2-4.3c-3-1.2-6.1-2.6-9.2-2.9c-6.8-0.7-13.6,0.2-20,2.7
	c-6.4,2.3-12.5,5.5-17.9,9.6c-4.3,3.4-9.2,6.9-11.9,11.5c-3.6,6.2-6.3,13-7.9,20c-2.2,9.4-5.4,18.5-8,27.7c-0.8,2.3-1.7,4.5-2.7,6.6
	c-2.2,5.2-4.1,10.5-4.6,16.3c-0.6,6.1-0.1,12.3,1.5,18.3c3.4,12,8.6,22.5,21.8,26.4h14.8c0.5-0.3,1.1-0.6,1.6-0.9
	c5.8-2.5,9.8-7,13.1-12.2c2.3-3.8,3.5-8.1,3.5-12.6c0.1-5.1,0-10.3-0.5-15.4c-0.6-5.8-1.6-11.5-2.5-17.3c-0.2-1.6,0.5-2.1,2.2-2.3
	c3-0.4,5.9-1,8.7-2c2-0.8,4-1.8,5.9-3c6.6,11,10.6,13.8,19.3,18.3c7.3,3.8,15,4.1,23,2.9c1.2-0.1,2.3,0.1,3.4,0.7
	c1.5,0.9,2.7,2.4,4.3,3.2c3.8,1.9,7.7,3.5,11.6,5.1c4.6,1.9,9.5,1.8,14.1,0.8c6.4-1.3,12.6-3.9,18-7.6c1.9-1.1,3.5-2.6,4.7-4.4
	c2.5-4.3,4.5-8.9,6.8-13.4c0.4-0.7,0.9-1.3,1.6-1.8c4.8-3.3,9.9-6.3,14.5-9.9c2.3-2.1,4.2-4.7,5.5-7.6c3.1-6.6,4.4-13.9,3.8-21.2
	c-0.1-1.5,0.5-2.9,1.6-3.8c4.2-3.8,7.4-8.6,9.1-14c1.7-5.7,2.3-11.3,0.2-16.8c-1.7-4.3-1.1-8.2,0.3-12.3c3.4-10,3.4-20.1-0.9-29.8
	c-2.8-6.1-6.4-11.8-10.8-16.9c-1-1-1.2-2.5-0.6-3.7c4-9.3,4.3-19.8,0.8-29.3c-0.6-1.8-1.8-3.4-2.5-5.2c-0.3-1-0.3-2,0.1-2.9
	c3.1-6.5,4.4-13.5,5-20.6c0.5-6.3-1.4-12.2-3.1-18.2c-0.3-0.8-0.3-1.7,0.1-2.5c2.3-3.4,5.1-6.6,7.2-10.2c1.5-2.5,3.2-5.4,3.4-8.2
	c0.6-6.2,0.9-12.5-1.5-18.5c-0.5-1.1-0.2-2.4,0.6-3.3c1.7-2,3.3-4.3,4.5-6.6c0.9-2.4,1.6-4.8,2-7.4c1.7-8.2,0.6-15.5-6.3-21.1
	c-1.9-1.5-3.9-3.3-4.7-5.4c-0.3-0.8-0.7-1.6-1.1-2.4c-1.2,0.3-2.4,0.7-3.6,1.2c-2.8,1.2-5.4,2.7-7.7,4.7c-2.8,2.4-5.4,5-7.6,7.9
	c-4.8,6-9.4,13.7-14.3,22.2l0.4,0.2c0.4,0.2,0.8,0.4,1.2,0.6l2.5,1.4c0.2,0.1,0.5,0.2,0.7,0.4l0.6,0.4l1.3,0.9
	c0.9,0.6,1.8,1.3,2.7,2c0.9,0.7,1.8,1.5,2.6,2.2s1.6,1.6,2.4,2.4c0.8,0.8,1.5,1.6,2.1,2.5c0.6,0.9,1.3,1.6,1.8,2.5s1,1.6,1.5,2.3
	c0.2,0.4,0.4,0.7,0.6,1l0.5,1c0.3,0.6,0.6,1.1,0.8,1.6c0.4,0.9,0.6,1.4,0.6,1.4c0.1,0.2,0,0.5-0.2,0.6c-0.2,0.1-0.3,0-0.5-0.1l0,0
	c0,0-0.4-0.4-1.1-1c-0.4-0.3-0.8-0.7-1.3-1.2l-0.8-0.8c-0.3-0.2-0.6-0.5-0.9-0.8c-0.6-0.5-1.3-1.1-2-1.7s-1.5-1.2-2.2-1.8
	s-1.5-1.3-2.4-1.9s-1.7-1.2-2.5-1.8s-1.8-1.1-2.6-1.6s-1.7-1-2.6-1.5l-1.2-0.7c-0.4-0.2-0.8-0.4-1.2-0.6l-2.1-1
	c-0.3-0.1-0.6-0.3-1-0.4l-1-0.4l-0.5-0.2c-4.2,7.6-8.7,15.8-13.9,24.2c-2.9,4.7-6.1,9.6-9.6,14.3c0.6,0.6,1.2,1.2,1.8,1.9
	s1.3,1.5,2,2.3s1.4,1.6,2,2.6l1.9,2.8c0.5,1,1.1,1.9,1.6,2.9c0.5,0.9,1,1.9,1.4,2.9c0.4,1,0.8,1.9,1.1,2.8s0.6,1.8,0.8,2.6
	c0.1,0.4,0.3,0.8,0.4,1.1s0.1,0.7,0.2,1c0.1,0.7,0.3,1.2,0.3,1.7c0.2,0.9,0.3,1.5,0.3,1.5c0,0.2-0.1,0.3-0.2,0.4
	c-0.2,0.1-0.5,0.1-0.6-0.1l0,0c0,0-0.3-0.5-0.8-1.3c-0.2-0.4-0.5-0.9-0.8-1.4l-0.5-0.9c-0.2-0.3-0.4-0.6-0.6-1l-1.4-2.1
	c-0.5-0.8-1.1-1.5-1.6-2.3s-1.1-1.6-1.8-2.4s-1.2-1.6-1.9-2.4l-2-2.3c-0.6-0.8-1.3-1.5-2-2.2s-1.3-1.4-1.9-2
	c-0.4-0.4-0.8-0.8-1.2-1.2c-3.2,4-6.5,7.9-10.1,11.5c-2.6,2.7-5.4,5.2-8.3,7.6c0.5,0.5,1,1,1.5,1.6s1.1,1.4,1.7,2.1s1.1,1.5,1.7,2.4
	s1,1.7,1.5,2.6s0.9,1.8,1.3,2.7s0.7,1.8,1,2.7s0.5,1.8,0.7,2.6c0.2,0.8,0.3,1.6,0.4,2.4c0.1,0.7,0.1,1.3,0.1,2c0,0.5,0,1,0,1.6
	c0,0.9-0.1,1.4-0.1,1.4c0,0.2-0.2,0.4-0.5,0.4c-0.2,0-0.3-0.1-0.4-0.3l0,0c0,0-0.2-0.4-0.5-1.2c-0.1-0.4-0.3-0.8-0.6-1.4
	s-0.5-1.1-0.8-1.7s-0.6-1.3-1-2s-0.8-1.4-1.2-2.1s-0.9-1.4-1.4-2.1s-1-1.4-1.5-2.1s-1.1-1.4-1.7-2.1s-1.1-1.3-1.7-1.9
	s-1.1-1.2-1.6-1.8l-1.5-1.5l-0.3-0.3c-0.8,0.6-1.6,1.2-2.5,1.8c-5.3,3.7-10.9,6.9-16.8,9.5c0.4,0.7,0.8,1.5,1.1,2.4s0.7,1.9,1,2.9
	s0.5,2.1,0.7,3.2c0.2,1.1,0.3,2.2,0.3,3.4c0,0.6,0,1.1,0,1.7c0,0.3,0,0.5,0,0.8L341,261c0,0.5-0.1,1-0.1,1.6s-0.2,1-0.3,1.5
	s-0.2,1-0.3,1.5s-0.2,0.9-0.3,1.4c-0.2,0.9-0.4,1.7-0.7,2.5s-0.5,1.4-0.8,2s-0.5,1.1-0.7,1.5c-0.4,0.8-0.6,1.3-0.6,1.3
	c-0.1,0.2-0.4,0.3-0.6,0.2c-0.1-0.1-0.2-0.2-0.2-0.4c0,0-0.1-0.5-0.1-1.4c0-0.5,0-1-0.1-1.6s-0.1-1.3-0.1-2s-0.1-1.5-0.2-2.4
	c0-0.4-0.1-0.8-0.1-1.3s-0.1-0.9-0.2-1.3s-0.1-0.9-0.1-1.4v0.1l0,0v-0.2v-0.2l-0.1-0.4l-0.1-0.7l-0.1-0.7c0-0.2-0.1-0.3-0.2-0.5
	l-0.3-1.3c-0.1-0.4-0.2-0.9-0.3-1.3l-0.4-1.3c-0.3-0.8-0.6-1.6-0.8-2.4c-0.2-0.4-0.3-0.7-0.5-1.1c-0.1-0.3-0.3-0.7-0.5-1
	c-0.4-0.6-0.7-1.3-1-1.8c-0.2-0.3-0.4-0.6-0.6-0.9c-4.9,1.7-10,3.1-15.1,4.1c-3.8,0.7-7.6,1.2-11.4,1.6l0,0.2
	c0.4,1.6,0.8,3.4,1.1,5.5c0.1,1,0.3,2.1,0.4,3.1s0.3,2.2,0.3,3.3s0.1,2.2,0,3.3c0,0.5,0,1.1-0.1,1.6v0.3v0.2v0.4l-0.1,0.8
	c-0.1,0.5-0.1,1-0.2,1.5s-0.2,1-0.3,1.5c-0.2,0.9-0.4,1.8-0.7,2.6c-0.2,0.8-0.5,1.5-0.7,2.1s-0.5,1.1-0.7,1.6
	c-0.4,0.9-0.7,1.4-0.7,1.4c-0.1,0.2-0.3,0.3-0.4,0.2c-0.2,0-0.4-0.3-0.4-0.5l0,0c0,0,0.1-0.5,0.2-1.5l0.3-1.6c0-0.6,0.1-1.4,0.2-2.1
	c0.1-0.8,0.1-1.6,0.1-2.5c0-0.4,0-0.9,0-1.3s0-1-0.1-1.5c0-0.3,0-0.5,0-0.8V272v-0.3l0,0l0,0c-0.1-0.5-0.1-1-0.2-1.5
	c-0.1-1-0.3-2-0.4-3s-0.4-2-0.5-3s-0.4-2-0.6-2.9s-0.5-1.9-0.7-2.7l-0.7-2.6c-0.1-0.4-0.2-0.7-0.3-1c-1.7,0.1-3.3,0.1-5,0.2h-1.4
	h-1.4h-2.6h-2.6l-2.7-0.1c-3.6-0.1-7.1-0.3-10.6-0.6c-2.9-0.2-5.8-0.5-8.6-0.9c0,0.4,0,0.9-0.1,1.4c-0.1,0.9-0.2,1.9-0.4,2.9
	c-0.1,1-0.3,2-0.6,3c-0.1,0.5-0.3,1-0.4,1.5s-0.3,1-0.5,1.5c-0.3,1-0.6,2-1,3s-0.8,1.9-1.2,2.8l-1.2,2.5c-0.4,0.8-0.9,1.5-1.2,2.2
	s-0.7,1.3-1.1,1.8s-0.6,1-0.9,1.4c-0.5,0.7-0.8,1.2-0.8,1.2c-0.1,0.1-0.3,0.2-0.5,0.2c-0.2-0.1-0.4-0.3-0.3-0.5l0,0
	c0,0,0.1-0.5,0.3-1.4c0.1-0.4,0.3-1,0.4-1.5s0.4-1.3,0.5-2c0.4-1.5,0.9-3.1,1.3-4.9c0.2-0.9,0.4-1.8,0.7-2.8s0.4-1.9,0.6-2.9
	c0.1-0.5,0.2-1,0.3-1.4s0.1-1,0.2-1.4c0.1-0.9,0.3-1.9,0.4-2.7s0.2-1.7,0.2-2.5c0-0.6,0-1.3,0.1-1.8c-2.4-0.4-4.8-0.8-7.2-1.2
	c-7.3-1.4-14.4-3.4-21.4-5.9c0,0.3,0,0.5-0.1,0.8s0,0.4,0,0.7s-0.1,0.5-0.1,0.7c-0.1,1-0.3,2-0.5,3.1s-0.5,2-0.8,3l-1.1,2.9
	c-0.4,0.9-0.9,1.8-1.3,2.7s-1,1.6-1.4,2.4c-0.4,0.7-0.9,1.4-1.5,2c-0.4,0.6-0.9,1.1-1.3,1.6c-0.4,0.4-0.8,0.8-1.1,1.1
	c-0.6,0.6-1,0.9-1,0.9c-0.1,0.1-0.3,0.1-0.5,0.1c-0.2-0.1-0.3-0.4-0.2-0.6c0,0,0,0,0,0l0,0c0,0,0.2-0.5,0.6-1.2
	c0.2-0.4,0.4-0.9,0.7-1.4s0.5-1.2,0.8-1.8c0.3-0.7,0.6-1.4,0.8-2.1c0.3-0.8,0.6-1.5,0.8-2.4s0.5-1.7,0.8-2.6l0.6-2.7
	c0.1-0.9,0.3-1.8,0.4-2.7s0.1-1.7,0.3-2.5c0-0.2,0.1-0.4,0.1-0.6s0-0.4,0-0.7c0-0.4,0-0.9,0-1.3c0-0.2,0-0.4,0-0.6V244
	c0-0.1,0-0.1,0-0.2c-4.2-1.7-8.3-3.7-12.3-5.9c-1.5-0.8-2.9-1.7-4.4-2.5s-2.8-1.8-4.2-2.7c-2.8-1.8-5.4-3.8-7.9-5.9
	c-4.9-4-9.5-8.4-13.7-13.2c-8.3-9.1-14.8-18.6-20.6-27.1l-2.8-4.1c-0.3,0-0.6,0.1-0.9,0.2c-0.7,0.2-1.4,0.5-2.1,0.8
	c-0.4,0.3-0.8,0.4-1.2,0.7s-0.8,0.6-1.2,1c-0.8,0.8-1.6,1.7-2.2,2.6c-0.4,0.5-0.7,1.1-1,1.6l-0.5,0.9c-0.1,0.3-0.3,0.6-0.4,0.9
	s-0.3,0.6-0.4,0.9l-0.4,1c-0.3,0.6-0.5,1.3-0.7,2c-0.4,1.3-0.8,2.6-1,4c-0.1,0.7-0.2,1.4-0.3,2s-0.1,1.4-0.2,2
	c-0.1,1.3-0.1,2.6,0,3.8c0.1,1.1,0.2,2.3,0.4,3.4c0.1,0.5,0.2,1,0.3,1.5s0.2,0.9,0.3,1.4c0.2,0.9,0.4,1.6,0.6,2.2l0.6,1.9l0,0
	c0.1,0.2,0,0.5-0.3,0.6c-0.2,0.1-0.4,0-0.5-0.2c0,0-0.4-0.6-1.1-1.8c-0.3-0.6-0.7-1.3-1.1-2.1l-0.6-1.4c-0.2-0.5-0.4-1-0.6-1.6
	c-0.4-1.2-0.7-2.4-1-3.6c-0.3-1.4-0.5-2.7-0.6-4.1c-0.1-0.8-0.1-1.5-0.1-2.3s0-1.5,0.1-2.3c0.1-1.6,0.4-3.1,0.7-4.6
	c0.2-0.8,0.4-1.5,0.6-2.3c0.2-0.8,0.5-1.5,0.8-2.2c0.1-0.4,0.3-0.7,0.4-1.1s0.3-0.7,0.5-1.1c1-2,2.3-3.9,3.9-5.6
	c0.5-0.5,1.1-1,1.6-1.4c0.6-0.4,1.1-0.8,1.7-1.1c0.8-0.4,1.6-0.8,2.4-1.1c-3.6-5.2-6.9-10-10.3-14c-1.7-2.1-3.4-4-5.1-5.7l-0.7-0.1
	c-0.7-0.1-1.5-0.4-2.4-0.5l-2.7-0.4l-2.8-0.3l-0.7-0.1H131c-0.6,0-1,0-1.4,0c-0.9,0-1.9,0.1-2.8,0.3c-0.9,0.1-1.8,0.4-2.6,0.7
	c-0.8,0.3-1.6,0.6-2.3,1.1c-0.4,0.2-0.7,0.4-1,0.6s-0.6,0.5-0.9,0.7c-0.5,0.5-1,0.9-1.4,1.4c-0.4,0.4-0.7,0.9-1,1.3l-0.8,1.2l0,0
	c-0.1,0.2-0.3,0.2-0.5,0.2c-0.2-0.1-0.4-0.3-0.3-0.5c0,0,0,0,0,0c0,0,0.1-0.5,0.4-1.5c0.4-1.3,1-2.5,1.8-3.6
	c0.3-0.3,0.5-0.7,0.8-1.1s0.6-0.7,1-1c0.8-0.7,1.7-1.3,2.6-1.8c0.5-0.3,1-0.5,1.5-0.7s1.1-0.4,1.6-0.6c1.1-0.3,2.2-0.6,3.4-0.7
	c0.6-0.1,1.2-0.1,1.7-0.2h0.8h0.9l2.1,0.1c-1.2-0.9-2.4-1.8-3.5-2.6c-2.1-1.4-4.2-2.6-6.5-3.7c-0.7-0.3-1.4-0.6-2-0.9
	c-7.8,0.4-13.8,4.3-17.9,10.7c-5.8,9.1-5.1,18.6-0.2,28c1.5,2.8,3.1,5.5,4.6,8.3c0.3,0.6,0.4,1.4,0.1,2.1c-2.6,4.4-2.7,9.3-2.8,14.1
	c-0.1,4.7,1.5,9.3,4.5,12.8c0.5,0.6,0.9,1.3,1.4,2.1c-5.9,4.9-7.7,11.7-9,18.6c-1.3,7.1,0.1,13.8,5.1,19.2c-2.2,1.3-4.4,2-5.9,3.5
	c-5.2,5.3-8.3,12.3-8.6,19.8c-0.3,6.7-0.2,13.4,1.7,19.9C85.1,308.9,83,317,84.5,325.9C85.6,330.8,88.1,335.7,89.8,340.7z
	 M371.6,270.2c0-0.2,0.2-0.4,0.4-0.4c0.9,0,1.8-0.1,2.7-0.3c0.9-0.1,1.8-0.3,2.6-0.6c0.9-0.2,1.7-0.5,2.5-0.9l0.6-0.2l0.6-0.3
	l1.2-0.6l0.6-0.3l0.5-0.4l1.1-0.7c0.4-0.2,0.7-0.5,1.1-0.8l1-0.8c0.7-0.5,1.3-1.2,1.9-1.8s1.2-1.3,1.8-1.9s1-1.4,1.6-2.1
	s0.9-1.5,1.4-2.2s0.8-1.5,1.2-2.3s0.7-1.6,1-2.4s0.5-1.6,0.8-2.4s0.4-1.6,0.6-2.5s0.3-1.7,0.4-2.5s0.1-1.7,0.3-2.5l0.3-2.4l2.4-0.1
	h1.5h1.1h0.2c0.9-0.1,1.8-0.1,2.6-0.3l1.3-0.3l0.6-0.1l0.6-0.2c0.9-0.2,1.7-0.5,2.5-0.8l1.2-0.5c0.4-0.1,0.8-0.4,1.2-0.6l1.2-0.6
	l1.1-0.7c0.4-0.2,0.8-0.4,1.1-0.7l1.1-0.8c0.8-0.5,1.5-1.1,2.2-1.8c0.7-0.6,1.4-1.2,2-1.9c0.3-0.3,0.6-0.6,0.9-1l0.9-1.1
	c0.6-0.7,1.1-1.5,1.6-2.2s1-1.6,1.5-2.4s0.8-1.7,1.2-2.5s0.7-1.8,1-2.7l0.4-1.4l0.2-0.7c0.1-0.2,0.1-0.5,0.1-0.7l0.3-1.5
	c0-0.2,0.1-0.5,0.1-0.7l0.1-0.7c0-0.2,0.2-0.4,0.4-0.4c0.2,0,0.5,0.1,0.5,0.4l0.1,0.7c0,0.3,0,0.5,0.1,0.8l0.1,1.5
	c0,0.3,0,0.5,0,0.8v0.8l-0.1,1.6c-0.1,1.1-0.3,2.1-0.5,3.1s-0.5,2-0.8,3s-0.8,2-1.2,2.9s-0.9,1.9-1.5,2.8l-0.9,1.3
	c-0.3,0.5-0.6,0.9-0.9,1.3c-0.6,0.9-1.3,1.7-2.1,2.5c-0.7,0.8-1.5,1.6-2.3,2.3l-1.3,1.1c-0.4,0.3-0.9,0.6-1.3,0.9l-1.4,0.9
	c-0.5,0.3-1,0.5-1.4,0.8s-1,0.5-1.5,0.8l-1.5,0.6c-1,0.4-2.1,0.7-3.1,1l-0.8,0.2l-0.8,0.1l-1.6,0.3c-0.5,0.1-1.1,0.1-1.7,0.1h-1.7
	h-0.7c0,0.1,0,0.2,0,0.2c-0.2,1-0.4,2-0.6,2.9c-0.2,0.7-0.4,1.3-0.6,2l0.1,0.2c0.4,1.4,0.9,2.9,1.4,4.8c0.1,0.5,0.3,1,0.4,1.5
	l0.5,1.6c0.3,1.1,0.6,2.2,1,3.5c0.8,3,1.8,6.4,2.8,10.2l0.5-0.1c1.6-0.5,3.2-1.1,4.8-1.8c1.8-0.8,3.6-1.6,5.5-2.6s3.6-2,5.4-3
	s3.2-2,4.5-2.9c0.6-0.5,1.2-0.9,1.6-1.3c0.2-0.2,0.4-0.4,0.5-0.6c0-0.1,0.1-0.1,0.1-0.1c0.1-0.1,0.1-0.2,0.1-0.3l0,0l0,0
	c0-0.1,0.1-0.2,0.3-0.2s0.2,0.1,0.2,0.3s-0.1,0.2-0.3,0.2c-0.1,0-0.1-0.1-0.2-0.2v-0.2c0-0.1,0-0.2,0-0.2c0-0.1,0-0.3,0-0.5
	c0-0.3,0-0.4,0-0.4c0-0.2,0.1-0.4,0.3-0.4c0.2-0.1,0.5,0,0.6,0.3l0.1,0.4c0.2,0.4,0.3,0.8,0.3,1.3c0,0.1,0,0.3,0,0.4
	c-0.1,0.2-0.1,0.4-0.2,0.6c-0.2,0.3-0.3,0.6-0.5,0.9c-0.4,0.6-0.9,1.2-1.5,1.8c-0.6,0.6-1.2,1.3-1.9,1.9s-1.4,1.3-2.2,1.9
	c-1.7,1.4-3.5,2.6-5.3,3.8c-3.4,2.3-7.1,4.1-11,5.3l-0.4,0.1c0.3,1,0.6,2,0.9,3.1c2,6.9,4.5,14.7,6.7,23.4c0.2,0.8,0.4,1.5,0.5,2.3
	l1.1-0.4c0.7-0.3,1.4-0.6,2.2-0.9s1.5-0.7,2.3-1.1s1.5-0.8,2.3-1.2s1.5-0.9,2.1-1.4s1.3-1,2-1.5c0.3-0.3,0.6-0.5,0.9-0.8
	c0.3-0.2,0.6-0.5,0.8-0.8l0.8-0.8c0.2-0.3,0.4-0.5,0.7-0.8c0.4-0.4,0.8-0.9,1.1-1.4l0.5-0.6l0.4-0.6c0.4-0.7,0.7-1.1,0.7-1.1
	c0.1-0.1,0.3-0.2,0.4-0.2c0.2,0,0.4,0.2,0.4,0.5c0,0,0,0.5-0.1,1.3c0,0.2,0,0.4-0.1,0.7l-0.2,0.8l-0.3,1c-0.1,0.3-0.2,0.6-0.4,1
	s-0.3,0.7-0.5,1.1l-0.6,1.1c-0.2,0.4-0.4,0.8-0.7,1.1c-0.3,0.4-0.5,0.8-0.8,1.1c-0.6,0.8-1.2,1.5-1.9,2.2c-0.7,0.7-1.5,1.4-2.3,2
	c-0.8,0.6-1.6,1.2-2.4,1.7s-1.7,1-2.5,1.4s-1.6,0.8-2.4,1.1s-1.4,0.6-2.1,0.9c1.5,6.9,2.5,13.8,3,20.8c0.1,1.3,0.2,2.6,0.2,3.9
	s0.1,2.7,0.1,4v0.5v1.5c0,0.6,0,1.3,0,2v1v1c0,0.7-0.1,1.4-0.1,2.1c0,0.3,0,0.6-0.1,0.9l0.7,0.1l1.2,0.1h0.6h0.5h1.2
	c0.9,0,1.7-0.1,2.6-0.2c0.9,0,1.8-0.2,2.7-0.3s1.8-0.3,2.7-0.4s1.8-0.3,2.7-0.5c1.8-0.3,3.4-0.6,4.9-0.8s2.7-0.3,3.5-0.4
	s1.3-0.1,1.3-0.1c0.2,0,0.3,0.1,0.4,0.3c0.1,0.2,0,0.5-0.2,0.6l-1.2,0.6c-0.4,0.2-0.9,0.4-1.4,0.6s-1.1,0.5-1.8,0.8
	c-1.3,0.6-2.9,1.3-4.6,1.9c-0.9,0.3-1.7,0.7-2.7,1s-1.9,0.6-2.8,0.9s-1.9,0.5-2.9,0.7c-1,0.2-2,0.3-2.9,0.4l-1.4,0.1H424h-1.1h-1.2
	l-1-0.1c-0.4,3.6-0.9,7.2-1.7,10.7c-1.3,5.8-3.1,11.4-5.5,16.9l-0.3,0.6c0.6,0.1,1.2,0.3,1.9,0.3s1.6,0.2,2.4,0.3l1.3,0.1l0.6,0.1
	h0.7c1.8,0.1,3.6,0.2,5.3,0.4s3.3,0.4,4.7,0.6l1,0.2h0.1l0,0h0.1c0.1,0,0.1,0,0.2,0c0.4-0.1,0.8-0.2,1.1-0.4c0.3-0.2,0.7-0.3,1-0.4
	l0.3-0.1c0.2-0.1,0.5,0.1,0.6,0.3c0,0.1,0,0.3-0.1,0.4l-0.2,0.3c-0.2,0.2-0.4,0.4-0.5,0.7c-0.3,0.5-0.7,0.9-1.2,1.3
	c-0.2,0.1-0.4,0.2-0.6,0.3l-0.4,0.1h-0.2h-0.1l-1,0.2c-1.4,0.3-2.9,0.6-4.6,0.9s-3.5,0.5-5.4,0.8l-0.7,0.1h-0.7
	c-0.5,0-0.9,0.1-1.4,0.1c-1,0-2,0-2.9-0.1s-1.8-0.2-2.7-0.3c-0.6-0.1-1.1-0.2-1.7-0.4c-0.3,0.5-0.6,1-0.9,1.5
	c-0.8,1.3-1.7,2.6-2.5,3.9s-1.8,2.5-2.9,3.7s-2,2.4-3.1,3.5s-2.2,2.2-3.4,3.3c-0.9,0.8-1.9,1.6-2.9,2.4l0.6,0.7
	c0.5,0.6,1.1,1.2,1.6,1.8s1.2,1.2,1.8,1.8s1.3,1.2,2,1.8s1.4,1.2,2,1.7s1.4,1.1,2,1.6s1.4,1,2,1.4s1.3,0.8,1.9,1.2s1.1,0.7,1.6,1
	s0.9,0.5,1.3,0.7c0.8,0.4,1.2,0.6,1.2,0.6c0.2,0.1,0.3,0.4,0.2,0.6c-0.1,0.2-0.2,0.3-0.4,0.2c0,0-0.5,0-1.4,0c-0.5,0-1-0.1-1.6-0.1
	l-1-0.1c-0.3-0.1-0.7-0.1-1-0.2c-0.8-0.2-1.6-0.4-2.4-0.6c-0.8-0.3-1.7-0.6-2.6-1s-1.8-0.8-2.6-1.3s-1.7-1-2.6-1.5s-1.7-1.1-2.5-1.8
	s-1.5-1.3-2.2-1.9s-1.4-1.3-2-1.9c-0.5-0.5-0.9-0.9-1.2-1.4c-5.5,3.3-11.6,5.5-18,6.4l-1.2,0.2l-1.2,0.1c-0.8,0.1-1.6,0.2-2.4,0.2
	h-1.2h-0.6H364l-2.2-0.1h-1.1l-1.1-0.1v0.1c-0.1,0.5-0.2,1.2-0.3,1.8s-0.3,1.3-0.3,2s-0.2,1.4-0.3,2.1s-0.2,1.5-0.3,2.2
	s-0.2,1.5-0.3,2.2c-0.2,1.4-0.5,2.8-0.8,3.9c-0.1,0.5-0.3,1-0.4,1.6c-0.1,0.5-0.3,0.9-0.4,1.2c-0.2,0.7-0.4,1-0.4,1
	c-0.1,0.1-0.2,0.2-0.3,0.3c-0.2,0.1-0.5-0.1-0.6-0.3c0,0,0,0,0,0l0,0c0,0-0.1-0.4-0.3-1.1s-0.4-1.6-0.6-2.7
	c-0.1-0.6-0.2-1.2-0.3-1.8s-0.2-1.3-0.3-2c-0.2-1.4-0.4-3-0.5-4.5c0-0.8,0-1.6,0-2.4c0-0.8,0-1.6,0.1-2.3c0.1-0.8,0.1-1.4,0.2-2.1
	c-0.4-0.1-0.8-0.2-1.1-0.3c-6.3-1.5-12.3-4.3-17.4-8.4c-3-2.4-5.8-5.1-8.4-8c0,0,0,0,0,0c-0.2,0.8-0.5,1.6-0.7,2.5
	c-0.1,0.4-0.3,0.8-0.5,1.2c-0.2,0.4-0.3,0.8-0.5,1.2s-0.4,0.8-0.5,1.2s-0.4,0.8-0.7,1.1c-0.4,0.7-0.9,1.5-1.4,2.1
	c-0.5,0.7-1,1.3-1.5,1.9s-1,1-1.5,1.5c-0.4,0.4-0.9,0.8-1.4,1.1c-0.4,0.3-0.8,0.6-1.1,0.8c-0.6,0.4-1,0.6-1,0.6
	c-0.1,0.1-0.3,0.1-0.5,0c-0.2-0.1-0.3-0.4-0.2-0.6c0,0,0,0,0,0l0,0c0,0,0.2-0.4,0.6-1c0.2-0.3,0.4-0.7,0.7-1.1
	c0.3-0.5,0.6-0.9,0.8-1.4c0.3-0.5,0.6-1.1,0.9-1.7s0.5-1.3,0.8-1.9c0.3-0.7,0.6-1.4,0.8-2.1l0.4-1.1c0.1-0.4,0.2-0.7,0.3-1.1
	c0.2-0.8,0.5-1.5,0.5-2.2s0.3-1.5,0.4-2.1s0.1-1.3,0.2-1.9c0-0.3,0.1-0.6,0.1-0.9s0-0.6,0-1s0-0.7,0-1c-3.4-4.3-6.5-8.4-10-11.6
	c-3.3-3.2-7.6-5.3-12.2-5.8c-0.6-0.1-1.1-0.1-1.7-0.1h-0.9h-0.1h-0.5h-1c-0.3,0-0.6,0-0.9,0.1c-0.5,0.1-1,0.2-1.5,0.2
	c-2.1,0.5-4.2,1.2-6.1,2.3c-3.8,2.1-7.1,5.1-9.7,8.6c-2.4,3.5-4.4,7.3-5.7,11.4c-0.3,1-0.6,2-0.9,3c-0.2,0.5-0.3,1-0.4,1.5
	c-0.1,0.5-0.2,1-0.3,1.5c-0.2,1-0.5,2-0.6,2.9s-0.3,2-0.4,2.9c-0.2,1.5-0.4,3.1-0.5,4.6c0.2,0.2,0.5,0.4,0.7,0.6l0.6,0.5l0.7,0.5
	c0.4,0.4,1,0.6,1.5,1s1.1,0.7,1.7,1s1.2,0.6,1.8,0.9s1.3,0.6,1.9,0.8s1.3,0.4,1.9,0.7s1.3,0.4,1.9,0.6s1.2,0.4,1.7,0.5l2.6,0.7
	c0.6,0.2,1,0.3,1,0.3c0.2,0,0.3,0.2,0.3,0.4c0,0.2-0.1,0.5-0.4,0.5l-1,0.1c-0.3,0-0.7,0-1.2,0.1s-1,0-1.5,0c-1.3,0-2.6-0.1-3.9-0.2
	c-0.7-0.1-1.5-0.2-2.2-0.4s-1.5-0.4-2.3-0.5s-1.5-0.5-2.2-0.8s-1.4-0.6-2.1-1s-1.2-0.7-1.7-1c0,0.5,0,0.9,0,1.4c0,1.8,0,3.5,0,5.2
	s0.1,3.3,0.2,4.8c0.1,3.1,0.2,5.9,0.4,8.5s0.2,4.9,0.3,6.9s0.1,3.7,0.1,5.1c0,2.8,0,4.3,0,4.3c0,0.2-0.2,0.5-0.4,0.5
	s-0.5-0.2-0.5-0.4l0,0c0,0-0.2-1.5-0.7-4.2c-0.2-1.4-0.5-3-0.8-5s-0.7-4.3-1.1-6.8s-0.8-5.4-1.3-8.5c-0.1-0.8-0.2-1.6-0.3-2.4
	s-0.2-1.7-0.3-2.5s-0.1-1.5-0.2-2.3h-1.1l-1,0.1c-0.3,0-0.7,0.1-1.1,0.1c-0.4,0-0.8,0.1-1.2,0.1c-0.8,0.1-1.7,0.2-2.5,0.3
	c-0.4,0.1-0.8,0.1-1.2,0.1s-0.8,0.1-1.1,0.1l-1,0.1c-0.3,0-0.5,0.1-0.8,0.1h-0.7l0,0c-0.1,0-0.2,0-0.3-0.1c-0.2-0.1-0.3-0.4-0.1-0.7
	c0,0,0,0,0,0c0,0,0.1-0.2,0.4-0.6c0.4-0.5,0.8-0.9,1.3-1.4c0.3-0.3,0.6-0.5,0.9-0.8s0.7-0.5,1.1-0.8s0.8-0.5,1.3-0.7
	c0.4-0.2,0.9-0.5,1.4-0.7c0.5-0.2,1-0.4,1.5-0.5c0.5-0.2,1-0.3,1.5-0.4l1.5-0.3l0.9-0.1v-0.2c0-0.1,0-0.1,0-0.2v-0.8
	c0-0.5,0-1,0-1.5c0-2,0-4.1,0.2-6.1c0.1-1,0.2-2.1,0.2-3.2s0.3-2.1,0.5-3.3c0.1-0.5,0.2-1.1,0.3-1.7c0.1-0.6,0.2-1.1,0.3-1.7
	l0.8-3.4c1.3-4.8,3.3-9.3,6-13.5c3-4.6,7-8.5,11.8-11.3c0.6-0.3,1.2-0.7,1.9-1l2-0.9c0.7-0.3,1.4-0.5,2.1-0.7l1.1-0.3
	c0.4-0.1,0.7-0.2,1.1-0.3c0.8-0.2,1.6-0.3,2.4-0.4c0.3-0.1,0.7-0.1,1.1-0.1l1-0.1h0.5h0.2h0.5h1.1c0.8,0,1.5,0,2.3,0.1
	c2.2,0.2,4.3,0.7,6.4,1.4l0.1-0.1c0.5-0.4,1.1-0.7,1.7-1c0.6-0.4,1.3-0.8,2-1.1c0.8-0.3,1.5-0.7,2.4-1s1.7-0.5,2.6-0.8
	s1.8-0.4,2.7-0.5s1.8-0.2,2.7-0.3s1.8,0,2.7,0s1.6,0.1,2.4,0.1l1.1,0.1h0.3h0.3l0.5,0.1c1.3,0.2,2.4,0.4,3.1,0.6l1.2,0.3
	c0.2,0,0.3,0.2,0.3,0.4c0,0.2-0.1,0.5-0.3,0.5c0,0,0,0,0,0l-1.2,0.2c-0.8,0.1-1.9,0.2-3.2,0.4h-0.5h-0.3h-0.1h-0.1l-1.1,0.2
	c-0.8,0.1-1.6,0.2-2.3,0.3s-1.6,0.2-2.4,0.4s-1.6,0.3-2.4,0.6l-2.3,0.7c-0.7,0.3-1.5,0.6-2.2,0.8l-1.9,0.9c-0.3,0.1-0.5,0.2-0.7,0.4
	c1.9,1.1,3.7,2.4,5.3,3.9c4.6,4.1,8.1,8.8,11.6,13.1c3.3,4.3,7.1,8.2,11.3,11.7c4.1,3.2,8.9,5.5,14,6.6c0.6,0.2,1.3,0.3,2,0.4
	c0.7,0.1,1.3,0.2,2,0.3l1.9,0.2l1,0.1h1.1l2.2,0.1h0.4h0.5h1c0.7,0,1.3-0.1,2-0.1l1-0.1l0.6-0.1c0-0.1,0.1-0.2,0.1-0.4
	c0.1-0.5,0.2-1.1,0.3-1.8c0-0.4,0-0.8,0.1-1.2c0-0.2,0-0.4,0-0.6v-0.1v-0.3c0-0.8,0-1.5,0-2.4s-0.1-1.6-0.1-2.5
	c-0.1-1.8-0.3-3.5-0.4-5.2c-0.1-0.8-0.1-1.7-0.2-2.5s-0.1-1.5-0.1-2.2c0-1.1,0-2.2,0.2-3.4c0.1-0.8,0.2-1.3,0.2-1.3
	c0-0.2,0.3-0.4,0.5-0.4c0.2,0,0.3,0.1,0.3,0.3c0,0,0.1,0.4,0.4,1.2l0.4,1.4c0.2,0.5,0.4,1.1,0.6,1.7l0.7,2l0.8,2.3
	c0.3,0.8,0.5,1.6,0.8,2.5s0.5,1.8,0.7,2.7s0.4,1.9,0.5,2.8s0.2,1.9,0.3,2.8v0.3v0.6c0,0.2,0,0.4,0,0.6c0,0.4,0,0.8,0,1.2
	c0,0.2,0,0.4,0,0.5c3.2-1,6.3-2.4,9.1-4.1c2.3-1.4,4.4-3,6.4-4.7c1-0.9,2-1.8,2.9-2.8s1.8-2,2.7-3s1.6-2.1,2.5-3.2s1.5-2.2,2.2-3.4
	c1.4-2.3,2.7-4.6,3.8-7.1l0,0h-0.7h-0.6l-1.2-0.1h-0.6l-0.7-0.1l-1.4-0.2c-1-0.1-1.8-0.4-2.8-0.5c-0.9-0.2-1.8-0.5-2.7-0.8
	c-0.9-0.3-1.7-0.6-2.5-0.9c-0.8-0.3-1.5-0.6-2.3-1c-0.7-0.4-1.4-0.8-2-1.3c-0.6-0.4-1.1-0.7-1.6-1s-0.8-0.6-1.1-0.9
	c-0.6-0.5-1-0.8-1-0.8c-0.2-0.2-0.2-0.5,0-0.6c0.1-0.1,0.3-0.2,0.4-0.1l0,0c0,0,0.4,0.1,1.2,0.4c0.4,0.1,0.8,0.3,1.3,0.5
	s1.1,0.3,1.7,0.5s1.3,0.4,2,0.5s1.5,0.4,2.3,0.5s1.6,0.4,2.4,0.5s1.7,0.3,2.5,0.4s1.7,0.2,2.5,0.2l1.2,0.1h0.6h0.7h1.2h0.8h0.3
	c0.7,0,1.4-0.1,2-0.1h0.1c1.3-3.4,2.3-6.8,3.1-10.3c1.2-5.1,1.9-10.2,2.3-15.4c0-0.6,0.1-1.3,0.1-1.9l0.1-0.9v-1c0-0.6,0-1.3,0-2v-1
	v-0.8c0-0.2,0-0.4,0-0.6c-0.7,0.1-1.4,0.1-2.3,0.2s-1.8,0.1-2.8,0.1H405c-1-0.1-2-0.1-3.1-0.3l-1.5-0.2c-0.5-0.1-1-0.2-1.5-0.3
	c-1-0.2-1.9-0.5-2.9-0.8c-0.5-0.2-0.9-0.3-1.4-0.5l-1.3-0.6c-0.8-0.4-1.5-0.9-2.2-1.3s-1.2-1-1.7-1.4c-0.4-0.3-0.8-0.7-1.1-1.1
	c-0.6-0.6-0.9-1-0.9-1c-0.2-0.2-0.1-0.5,0.1-0.6c0.1-0.1,0.3-0.1,0.5,0c0,0,0.4,0.2,1.2,0.7l0.6,0.4c0.2,0.2,0.5,0.3,0.7,0.4
	l1.7,0.8c0.7,0.2,1.4,0.5,2.1,0.7s1.6,0.4,2.4,0.5s1.7,0.3,2.6,0.3s1.8,0.1,2.7,0.1s1.9,0,2.8,0l1.4-0.1l1.4-0.1
	c0.9-0.1,1.7-0.2,2.5-0.2s1.6-0.2,2.3-0.3h0.3c0-0.7,0-1.4-0.1-2c-0.5-9.3-1.9-18.5-4-27.6c-0.3-1.5-0.7-3-1-4.4
	c-0.7,0.2-1.3,0.4-2,0.4l-0.7,0.1h-0.6l-1.2,0.1c-0.8,0-1.5,0.2-2.3,0.3l-2.5,0.4c-0.9,0.1-1.8,0.2-2.6,0.3s-1.8,0.2-2.6,0.2H392
	l-1.3-0.1l-0.6-0.1h-0.4l-0.3,0l-1-0.2c-0.7-0.2-1.3-0.4-1.9-0.6c-0.5-0.2-0.9-0.4-1.3-0.7c-0.7-0.4-1.1-0.7-1.1-0.7
	c-0.1-0.1-0.2-0.3-0.2-0.4c0-0.2,0.2-0.4,0.5-0.4h0.1c0,0,0.4,0,1.2,0.1c0.4,0.1,0.8,0,1.3,0.1s1-0.1,1.6-0.1l1-0.1h0.3h0.1h0.1
	l0.5-0.1l1-0.2l1.1-0.3c0.4-0.1,0.8-0.2,1.1-0.3l1.2-0.4l2.5-0.8c0.8-0.3,1.7-0.5,2.6-0.7c0.4-0.1,0.9-0.2,1.4-0.3s0.9-0.2,1.3-0.3
	l1.2-0.2l0.6-0.1l0.4-0.1c0.4-0.1,0.8-0.2,1.2-0.4l0.1-0.1c-1.2-4.7-2.5-9-3.6-13.2c-1-3.5-1.8-6.8-2.6-9.8c-0.4-1.5-0.7-3-1-4.4
	s-0.5-2.8-0.7-4.1s-0.3-2.6-0.4-3.8c0-0.8-0.1-1.5-0.1-2.3c-0.4,0.6-0.8,1.3-1.3,1.9c-0.6,0.8-1.2,1.6-1.8,2.3s-1.3,1.5-2,2.1
	s-1.4,1.4-2.2,2s-1.5,1.2-2.3,1.7l-1.2,0.8c-0.4,0.3-0.8,0.5-1.3,0.7l-1.3,0.6l-0.6,0.3l-0.7,0.3l-1.4,0.5l-0.7,0.3l-0.7,0.2
	c-0.9,0.3-1.9,0.5-2.8,0.6c-0.9,0.2-1.9,0.2-2.9,0.2c-0.9,0-1.9,0-2.8-0.1l0,0c-0.2,0-0.5-0.1-0.5-0.4
	C371.5,270.4,371.5,270.3,371.6,270.2z M98.2,337.5c0,0,0.2-0.7,0.6-1.9c0.3-0.7,0.6-1.4,0.9-2.1c0.2-0.4,0.4-0.9,0.7-1.3
	c0.3-0.4,0.5-0.9,0.8-1.4c0.7-0.9,1.3-1.9,2.2-2.8c0.9-1,1.8-2,2.9-2.8l1.7-1.3c0.6-0.4,1.2-0.8,1.8-1.3c1.2-0.8,2.5-1.6,3.9-2.2
	c0.7-0.3,1.4-0.7,2.1-0.9c0.7-0.3,1.4-0.6,2.1-0.8s1.4-0.5,2.1-0.7l2.1-0.5c1.3-0.3,2.7-0.5,4-0.6c0.6-0.1,1.3-0.1,1.9-0.2h0.9h0.4
	h0.6l2,0.1c0-0.1,0-0.2,0-0.3c-0.1-1.5-0.2-3-0.3-4.6c-0.1-1.5-0.1-3-0.1-4.5s0-3,0-4.5s0.1-2.9,0.1-4.3c0-0.5,0.1-1.1,0.1-1.7h-0.4
	c-0.6-0.1-1.2-0.2-1.7-0.4l-0.9-0.2c-0.4-0.1-0.7-0.1-1.1-0.2l-1.4-0.1h-0.3h-0.2H125c-0.9,0-1.8,0-2.7,0.1
	c-0.9,0.1-1.9,0.2-2.8,0.4l-1.4,0.3c-0.5,0.1-0.9,0.2-1.4,0.3c-0.9,0.2-1.9,0.4-2.8,0.7s-1.8,0.5-2.6,0.8s-1.6,0.5-2.3,0.8
	s-1.4,0.5-2,0.7s-1.1,0.4-1.6,0.5c-0.9,0.3-1.4,0.5-1.4,0.5c-0.2,0-0.3,0-0.5-0.1c-0.2-0.2-0.2-0.5,0-0.6c0,0,0,0,0,0
	c0,0,0.4-0.4,1.1-1c1-0.8,2-1.6,3-2.4c0.6-0.5,1.4-0.9,2.2-1.4s1.6-1,2.5-1.4c0.4-0.2,0.9-0.5,1.4-0.7l1.5-0.6c1-0.4,2-0.8,3.1-1.1
	c1.1-0.3,2.1-0.6,3.2-0.8c1.1-0.2,2.2-0.4,3.3-0.4l0.8-0.1h0.9h1.4c0.5,0,1,0.1,1.4,0.1l1.4,0.2c0.4,0.1,0.9,0.2,1.3,0.3h0.1
	c0.4-4.6,0.9-9.1,1.5-13.3c0.7-4.9,1.5-9.5,2.4-13.8l-2.1-0.3l-4.6-0.6c-1.4-0.2-2.8-0.5-4.1-0.6s-2.4-0.3-3.5-0.4s-1.9-0.2-2.7-0.2
	c-0.4,0-0.7,0-0.9,0c-0.2,0-0.5,0-0.7,0l-0.6,0.1l0,0c-0.2,0.1-0.5-0.1-0.5-0.3c-0.1-0.2,0.1-0.5,0.3-0.5l0.6-0.3
	c0.6-0.2,1.2-0.4,1.8-0.5c0.8-0.2,1.7-0.3,2.8-0.5s2.3-0.3,3.6-0.4c2.6-0.2,5.6-0.4,8.9-0.5l2.8-0.1l1.6-7.5c0.4-1.8,0.7-3.4,1-4.9
	c0.3-1.5,0.5-2.9,0.7-4.1c0.1-0.6,0.2-1.1,0.4-1.7l0.1-0.4l0.1-0.2l0,0c0,0,0,0.1,0,0.1v-0.1V240c0-0.3,0.1-0.5,0.1-0.8
	c0.1-0.4,0.2-0.9,0.3-1.2c-0.2-0.4-0.3-0.9-0.4-1.4c0-0.1,0-0.3-0.1-0.4l-1.9-0.3c-1.2-0.3-2.3-0.5-3.5-0.8l-1.7-0.6l-0.9-0.3
	l-0.8-0.4l-1.6-0.7c-0.5-0.3-1.1-0.6-1.6-0.8c-1-0.6-2-1.2-3-1.9c-0.5-0.4-0.9-0.8-1.4-1.1l-0.7-0.6c-0.2-0.2-0.4-0.4-0.6-0.6
	c-0.4-0.4-0.8-0.9-1.2-1.3l-1.1-1.4c-0.4-0.5-0.7-1-1-1.5c-0.3-0.5-0.6-1-0.9-1.5c-0.3-0.5-0.6-1-0.8-1.6l-0.7-1.6
	c-0.4-1.1-0.7-2.3-0.9-3.4l-0.2-0.9c0-0.3-0.1-0.6-0.1-0.9c0-0.6-0.2-1.2-0.2-1.8s0-1.1,0-1.7s0.1-1.2,0.2-1.8
	c0.3-2.3,0.8-4.5,1.4-6.7c0.3-1.1,0.7-2.2,1.2-3.3c0.2-0.5,0.5-1.1,0.8-1.6c0.1-0.3,0.3-0.5,0.5-0.8s0.4-0.4,0.5-0.7
	c0.1-0.2,0.4-0.2,0.6-0.1c0.2,0.1,0.2,0.4,0.1,0.6l0,0c-0.2,0.2-0.3,0.5-0.5,0.7s-0.3,0.4-0.4,0.7c-0.2,0.5-0.5,1-0.6,1.5
	c-0.4,1-0.7,2.1-0.9,3.2c-0.5,2.2-0.8,4.4-1,6.6c0,0.6-0.1,1.1,0,1.6l0.1,1.6c0,0.6,0.2,1.1,0.2,1.6c0.1,0.3,0.1,0.5,0.1,0.8
	l0.2,0.8c0.3,1,0.6,2.1,1,3.1l0.7,1.4c0.2,0.5,0.5,0.9,0.8,1.4c0.3,0.5,0.6,0.9,0.9,1.3c0.3,0.4,0.6,0.9,1,1.3l1.1,1.2
	c0.4,0.4,0.8,0.7,1.2,1.1c0.2,0.2,0.4,0.4,0.6,0.5l0.6,0.5c0.4,0.3,0.8,0.6,1.3,0.9c0.9,0.6,1.8,1.1,2.8,1.5c0.5,0.2,1,0.5,1.4,0.7
	l1.5,0.5l0.7,0.3l0.8,0.2l1.6,0.4c1,0.2,2.1,0.4,3.1,0.6l3.2,0.3l1.5,0.1l0.4,1.7l0,0c0.2,1,0.5,1.9,0.9,2.9l0.2,0.7
	c0.1,0.2,0.2,0.5,0.3,0.7c0.2,0.5,0.4,1,0.7,1.4l0.8,1.4c0.3,0.4,0.6,0.9,0.9,1.3c0.3,0.4,0.6,0.9,1,1.2c0.4,0.4,0.7,0.8,1.1,1.2
	l1.2,1.1c0.4,0.4,0.8,0.7,1.3,1.1c0.4,0.4,0.8,0.7,1.3,1c0.4,0.3,0.9,0.7,1.4,0.9l1.4,0.9l1.5,0.8c0.5,0.3,1,0.5,1.5,0.7
	c0.5,0.2,1,0.4,1.5,0.6c1,0.4,2.1,0.7,3.1,1l1.6,0.3l1.6,0.1c1.1,0,2.1-0.1,3.2-0.3c1.1-0.2,2.2-0.6,3.2-0.9
	c2.1-0.7,4.2-1.7,6.2-2.8c1-0.6,1.9-1.2,2.8-1.9c0.9-0.7,1.7-1.4,2.5-2.3l0,0c0.2-0.2,0.5-0.2,0.6,0c0.1,0.1,0.2,0.4,0,0.5
	c-0.7,0.9-1.6,1.8-2.5,2.6c-0.9,0.8-1.8,1.5-2.8,2.2c-1,0.7-2,1.3-3,1.9c-1,0.6-2.1,1.1-3.2,1.6c-1.1,0.5-2.2,0.9-3.4,1.2
	c-1.2,0.3-2.4,0.6-3.7,0.6H166l-1.8-0.2c-1.2-0.2-2.4-0.5-3.5-0.9c-0.6-0.2-1.2-0.4-1.7-0.6c-0.6-0.2-1.1-0.4-1.7-0.7l-1.6-0.8
	l-1.6-0.9c-0.5-0.3-1-0.6-1.6-0.9c-0.5-0.3-1-0.6-1.5-1c-0.5-0.4-1-0.7-1.5-1.1l-1.4-1.2c-0.5-0.4-0.9-0.9-1.3-1.3s-0.7-0.7-1-1.1
	c-0.1,0.7-0.2,1.4-0.3,2.1c-0.2,1.6-0.5,3.3-0.8,5.1c-0.4,2.2-0.8,4.6-1.2,7.2l1.1,0.3c3.4,0.9,6.6,1.9,9.9,3.2
	c1.5,0.6,3,1.3,4.4,1.9l2,1l1.8,1c1.1,0.6,2.2,1.2,3.1,1.8s1.7,1.1,2.3,1.5l1.9,1.4c0.2,0.1,0.2,0.4,0.1,0.6
	c-0.1,0.2-0.4,0.2-0.6,0.1l0,0l-2.1-1.1c-0.6-0.4-1.5-0.7-2.4-1.2s-2-0.9-3.2-1.3l-1.9-0.7l-2-0.6c-1.4-0.4-2.9-0.8-4.4-1.2
	c-3.2-0.8-6.4-1.3-9.7-1.7l-1.1-0.1l0,0c-0.7,4.4-1.3,9.2-1.8,14.2c-0.1,0.7-0.1,1.4-0.2,2h0.6l2.8-0.1h0.5h0.4h0.8l1.7,0.1
	c1.1,0,2.3,0.2,3.5,0.4s2.4,0.4,3.5,0.6s2.4,0.6,3.5,0.9c1.1,0.3,2.2,0.7,3.3,1.1c1,0.4,2,0.8,3,1.3c0.5,0.2,0.9,0.5,1.4,0.7
	s0.8,0.5,1.2,0.7c0.8,0.5,1.5,0.9,2.1,1.3s1.1,0.8,1.5,1.1c0.8,0.6,1.3,1,1.3,1c0.2,0.2,0.2,0.4,0,0.6c-0.1,0.1-0.3,0.2-0.5,0.1
	c0,0-0.6-0.2-1.5-0.6c-0.5-0.2-1.1-0.4-1.7-0.7s-1.4-0.4-2.2-0.7c-0.4-0.1-0.8-0.3-1.3-0.4s-0.9-0.2-1.4-0.4c-1-0.3-1.9-0.5-2.9-0.7
	c-1-0.2-2.1-0.5-3.2-0.6s-2.2-0.4-3.3-0.5s-2.2-0.3-3.3-0.3s-2.2-0.2-3.2-0.1h-2.9l-2.8,0.1c-0.4,0-0.8,0-1.2,0
	c-0.2,2.9-0.4,5.9-0.5,8.9c0,1.4-0.1,2.7-0.1,4.1s0,2.9,0,4.3c0,0.6,0,1.3,0.1,1.9c0.6-0.1,1.2-0.2,1.8-0.3h0.4h0.5h0.8l1.8,0.1
	l1.9,0.1c0.6,0.1,1.3,0.2,1.9,0.3c1.3,0.2,2.7,0.4,4,0.7c1.3,0.3,2.7,0.6,4,1.1s2.6,0.9,3.9,1.4s2.5,1.1,3.6,1.7s2.2,1.3,3.3,1.8
	c1,0.6,1.9,1.2,2.8,1.9c0.8,0.6,1.6,1.1,2.3,1.7s1.2,1,1.6,1.4c0.9,0.8,1.4,1.3,1.4,1.3c0.1,0.1,0.2,0.3,0.1,0.5
	c-0.1,0.2-0.4,0.3-0.6,0.2c0,0-0.6-0.3-1.7-0.8c-0.5-0.3-1.2-0.6-1.9-1s-1.6-0.7-2.5-1.1s-1.9-0.8-2.9-1.2s-2.1-0.9-3.3-1.2
	s-2.4-0.7-3.6-1.1l-3.7-0.9c-0.6-0.2-1.3-0.3-1.9-0.4l-1.9-0.4l-0.9-0.2c-0.3,0-0.6-0.1-0.9-0.1l-1.8-0.2c-0.6-0.1-1.2-0.1-1.8-0.2
	l-1.7-0.1l-1.6-0.1h-0.8h-0.7c-0.6,0-1.2-0.1-1.8-0.1c0,0.6,0.1,1.2,0.1,1.8c0.1,1.4,0.2,2.9,0.4,4.3s0.4,2.9,0.5,4.3
	c0.3,2.9,0.9,5.7,1.4,8.5l0.2,1.1l0.3,1l0.5,2.1l0.5,2.1c0.2,0.7,0.3,1.4,0.6,2.1l0.1,0.2l0.7-1c0.8-0.9,1.6-1.7,2.5-2.5
	c0.4-0.4,0.9-0.8,1.4-1.1c0.5-0.3,0.9-0.7,1.4-1l1.5-0.9c0.5-0.3,1.1-0.5,1.6-0.7c0.5-0.2,1.1-0.4,1.6-0.6c0.5-0.2,1.1-0.4,1.6-0.5
	c0.6-0.1,1.1-0.3,1.6-0.4l1.7-0.2c0.5-0.1,1.1-0.1,1.7-0.1s1.1-0.1,1.6,0l1.5,0.1h0.3h0.2h0.4l0.8,0.1c0.5,0,1.1,0.1,1.6,0.2
	c0.5,0.1,1.1,0.2,1.6,0.3l1.6,0.4c0.5,0.1,1,0.3,1.5,0.5c0.5,0.2,1,0.4,1.5,0.6c0.5,0.2,1,0.4,1.4,0.6c1.9,0.9,3.6,2.1,5.3,3.4
	c0.2,0.1,0.2,0.4,0.1,0.6c-0.1,0.2-0.4,0.3-0.6,0.2l0,0c-0.9-0.5-1.8-1-2.7-1.4c-0.9-0.4-1.8-0.7-2.8-1c-0.5-0.1-0.9-0.3-1.4-0.4
	c-0.5-0.1-0.9-0.2-1.4-0.3c-0.5-0.1-1-0.2-1.4-0.3l-1.4-0.2c-0.5-0.1-1,0-1.4-0.1c-0.5,0-1,0-1.4,0h-0.7h-0.4H165l-1.5,0.2
	c-0.5,0.1-0.9,0.1-1.4,0.3c-0.4,0.1-0.9,0.2-1.3,0.3l-1.3,0.4c-0.4,0.2-0.9,0.4-1.3,0.5c-0.4,0.2-0.8,0.4-1.2,0.6
	c-0.4,0.2-0.8,0.4-1.2,0.7c-0.4,0.2-0.7,0.5-1.1,0.7l-1,0.8c-0.3,0.3-0.6,0.6-0.9,0.9c-0.3,0.3-0.6,0.6-0.9,1
	c-0.6,0.6-1,1.3-1.5,2.1l-0.6,1.1c-0.2,0.4-0.3,0.8-0.5,1.2l-0.2,0.6l-0.2,0.6c-0.1,0.4-0.3,0.8-0.4,1.2l-0.3,1.3
	c-0.1,0.4-0.1,0.9-0.2,1.3c0,0.2-0.1,0.5-0.1,0.7c0.1,0.4,0.3,0.7,0.4,1.1l1.7,3.8l0.8,1.9c0.3,0.6,0.6,1.2,0.9,1.9l1.9,3.6
	c0.6,1.2,1.3,2.4,2,3.5l2,3.4c1.4,2.2,2.8,4.3,4.2,6.4s2.9,4,4.3,5.9c0.7,1,1.4,1.8,2.1,2.7l2.1,2.6c1.3,1.8,2.7,3.3,4,4.9
	s2.4,3.1,3.6,4.4s2.3,2.6,3.3,3.8s1.9,2.4,2.8,3.3c1.7,2,3,3.6,3.9,4.8s1.3,1.7,1.3,1.7c0.1,0.1,0.1,0.3,0,0.5
	c-0.1,0.2-0.4,0.3-0.6,0.2c0,0-0.7-0.4-1.9-1.1s-3-1.8-5.2-3.2c-1.1-0.7-2.3-1.6-3.6-2.6s-2.7-2-4.1-3.2c-0.8-0.6-1.5-1.2-2.2-1.9
	s-1.5-1.4-2.3-2.1c-1.5-1.4-3.1-2.9-4.7-4.6s-3.2-3.4-4.8-5.4s-3.1-4-4.7-6.1s-3.1-4.4-4.6-6.7l-2.2-3.6c-0.7-1.2-1.5-2.4-2.2-3.7
	s-1.4-2.6-2-3.9c-0.3-0.7-0.7-1.3-1-2l-0.9-2c-0.5-1.1-1-2.1-1.4-3.2h-0.1l-0.6-0.1h-0.5l-1.6,0c-0.2,0-0.5,0-0.7,0h-0.6l-1.2,0.1
	c-0.8,0.1-1.7,0.3-2.5,0.4s-1.7,0.4-2.5,0.7s-1.7,0.6-2.5,1l-1.2,0.6l-0.6,0.3l-0.6,0.3c-0.8,0.4-1.6,0.9-2.4,1.4
	c-0.8,0.5-1.5,1-2.3,1.6l-1.1,0.9l-1.1,0.9c-0.3,0.3-0.7,0.6-1.1,0.9l-1,1c-0.7,0.7-1.3,1.4-1.9,2.1s-1.2,1.5-1.8,2.2
	s-1.1,1.6-1.7,2.3s-1,1.6-1.6,2.5s-0.9,1.7-1.4,2.5l0,0c-0.1,0.2-0.4,0.3-0.6,0.2s-0.3-0.4-0.2-0.6c0.3-0.9,0.7-1.9,1-2.8
	s0.8-1.9,1.2-2.8s0.8-1.8,1.3-2.7s1-1.8,1.5-2.6s1.1-1.7,1.7-2.5l0.9-1.3c0.3-0.4,0.6-0.8,1-1.2l1-1.2l1.1-1.1
	c0.7-0.8,1.4-1.5,2.2-2.2c0.8-0.7,1.6-1.4,2.4-2l0.6-0.5l0.7-0.5l1.3-0.9c0.9-0.6,1.8-1.1,2.8-1.6c0.9-0.5,2-0.9,3-1.4
	s2.1-0.7,3.2-1l1.7-0.4l0.9-0.2c0.3-0.1,0.5-0.1,0.8-0.1h0.2c-0.7-2.1-1.3-4.2-1.9-6.3c-0.2-0.7-0.4-1.5-0.6-2.2l-0.5-2.3
	c-0.3-1.5-0.8-3-1-4.5c-0.4-2.3-0.8-4.5-1.1-6.8h-0.2l-2.8-0.1h-1.4c-0.5,0-1.1,0-1.6,0.1c-1.1,0-2.3,0.2-3.4,0.4l-1.8,0.3
	c-0.6,0.1-1.2,0.3-1.8,0.4s-1.2,0.3-1.8,0.5s-1.2,0.4-1.8,0.6s-1.2,0.4-1.8,0.7s-1.2,0.5-1.8,0.8s-1.2,0.5-1.7,0.8l-1.6,0.9
	c-1,0.7-2.1,1.3-3,2c-0.9,0.6-1.7,1.3-2.5,2c-0.7,0.7-1.4,1.3-1.9,1.9s-1,1.1-1.4,1.6c-0.7,1-1.2,1.5-1.2,1.5
	c-0.1,0.1-0.3,0.2-0.5,0.1C98.2,338,98.1,337.8,98.2,337.5C98.1,337.5,98.1,337.5,98.2,337.5z"/>
</svg>
