<svg id="Layer_1" data-name="Layer 1" xmlns="http://www.w3.org/2000/svg" viewBox="0 0 557.14 557.14"><defs><style>.cls-1,.cls-2{fill:#fff;}.cls-2{fill-rule:evenodd;}</style></defs><title>poradna-mluveni</title><path id="kruh" class="cls-1" d="M278.57,0C124.72,0,0,124.72,0,278.57S124.72,557.14,278.57,557.14,557.14,432.42,557.14,278.57,432.42,0,278.57,0Zm0.94,522.38c-134.14,0-242.87-108.74-242.87-242.87S145.37,36.64,279.51,36.64,522.38,145.37,522.38,279.51,413.64,522.38,279.51,522.38Z"/><path class="cls-2" d="M227.12,260.69A173.32,173.32,0,0,0,229,374.14l33.33-19.24a135.44,135.44,0,0,1-1.63-74.82Z"/><path class="cls-2" d="M124.91,201.68c-34.54,74.15-33.44,158,2.42,231.17l32.76-18.92c-29.23-61.41-30.3-131.08-2.4-193.33Z"/><path class="cls-2" d="M176.8,231.63A212,212,0,0,0,179.1,403l32.83-19a174.63,174.63,0,0,1-2.19-133.35Z"/><path class="cls-2" d="M326,40.47q-4.06,9.3-8.18,18.6c-4.22,9.5-7.24,19.76-5.34,31.58,1.41,8.71,4,17.61,4,24.8a55.57,55.57,0,0,1-7.71,21.49c-11.78,26.8-28,48.7-47.2,67.38-1.2,1.44-2.41,3-3.54,4.66-4.42,6.5-7.54,14.45-3.33,22,2.91,5.25,6,6.35,11.91,8.45l20.21,7.13c6.5,2.29,7.39,5.16,7.21,9.81a70.08,70.08,0,0,1-1.16,11.08c-1.13,6.26-5.15,6.39-6.07,12.19-0.86,5.44.57,8.64,3.26,10.81,1.57,2.62,19.78,10.16,29.57,13.58,11.63,4.06,21.51,10.92,6.68,19.28-8.53,4.81-21,8.76-32,10-9.67.86-10.3,9-7,16.12,0.68,1.47,3.79,3.41,4.52,4.65,5,8.44,4.87,18.3,2.76,28.1-3.08,14.33-2.62,26.81.72,35.47,11.25,29.19,95.12,12.45,128.76,21.82,11.53,3.21,20.51,7.48,27.51,12.66a239,239,0,0,0,75.94-175C527.58,157.77,440.29,58.78,326,40.47Z"/></svg>