<?xml version="1.0" encoding="utf-8"?>
<!-- Generator: Adobe Illustrator 19.2.1, SVG Export Plug-In . SVG Version: 6.00 Build 0)  -->
<svg version="1.1" id="Layer_1" xmlns="http://www.w3.org/2000/svg" xmlns:xlink="http://www.w3.org/1999/xlink" x="0px" y="0px"
	 viewBox="0 0 557.1 557.1" style="enable-background:new 0 0 557.1 557.1;" xml:space="preserve">
<style type="text/css">
	.st0{fill:#0065BD;}
	.st1{fill:url(#SVGID_1_);}
	.st2{fill:#FFFFFF;}
</style>
<circle class="st0" cx="278.6" cy="278.6" r="278.6"/>
<linearGradient id="SVGID_1_" gradientUnits="userSpaceOnUse" x1="337.0028" y1="288.2913" x2="423.4906" y2="509.2118">
	<stop  offset="0" style="stop-color:#0065BD"/>
	<stop  offset="1" style="stop-color:#004C84"/>
</linearGradient>
<path class="st1" d="M256,454l70.5,99c88.4-15.3,162.5-72.3,201.3-149.9L441,281l-71,40l-114,10V454z"/>
<title>poradna</title>
<path class="st2" d="M302.2,64.1c-101.7,0-184.1,60.9-184.1,136.1c0,22.9,7.6,44.4,21.1,63.3l-26.7,65.8l90.6-14.4
	c28.6,13.5,62.6,21.3,99,21.3c101.7,0,184.1-60.9,184.1-136.1S403.9,64.1,302.2,64.1z M302.2,323.5c-33,0-65-6.9-92.6-19.9l-4.2-2
	l-71.3,11.3l20.6-51l-3.8-5.4c-12.6-17.5-18.9-36.5-18.9-56.3c0-68,76.3-123.3,170.1-123.3s170.1,55.3,170.1,123.3
	S396,323.5,302.2,323.5L302.2,323.5z"/>
<path class="st2" d="M240.6,169.1c0.5-6.9,2.4-13.7,5.6-19.8c3.1-5.9,7.3-11,12.4-15.2c5.4-4.3,11.5-7.7,18.1-9.7
	c7.4-2.3,15-3.5,22.7-3.4c7.6-0.1,15.2,0.9,22.6,2.8c6.5,1.6,12.7,4.4,18.3,8.1c5.3,3.6,9.7,8.4,13,14c3.5,5.9,5.2,12.6,5.1,19.5
	c0,7.8-1.9,14.5-5.6,20c-3.8,5.6-8.5,10.5-13.8,14.6c-4.2,3.5-7.8,6.5-10.9,9c-2.7,2.2-5.3,4.6-7.5,7.3c-2,2.4-3.5,5.1-4.4,8
	c-1.1,3.6-1.6,7.3-1.6,11h-29.6c-0.1-5.3,0.4-10.6,1.6-15.7c1-4,2.6-7.8,4.8-11.3c2.2-3.4,4.9-6.4,7.9-9.1c3.2-2.8,6.8-5.9,10.9-9.4
	c2.9-2.1,5.8-4.4,8.4-6.9c1.8-1.7,3.4-3.5,4.7-5.6c1-1.5,1.7-3.2,2.1-5c0.4-1.8,0.5-3.7,0.5-5.5c0-3.2-0.6-6.4-1.9-9.3
	c-1.2-2.8-3.1-5.3-5.4-7.3c-2.5-2.1-5.3-3.7-8.4-4.7c-3.6-1.1-7.3-1.7-11-1.6c-8.3,0-14.8,2.1-19.4,6.3c-4.6,4.2-7.6,10.6-8.9,19.2
	h-30.4V169.1z M316.8,279.5h-33.1v-27.7h33.1V279.5L316.8,279.5z"/>
<path class="st2" d="M337.7,451.5c8-10.8,12.6-23.1,12.6-36.2c0-43-49-77.8-109.5-77.8s-109.5,34.9-109.5,77.8s49,77.8,109.5,77.8
	c21.7,0,41.9-4.5,58.9-12.2l53.9,8.2L337.7,451.5z M251.6,457h-18.5v-14.8h18.5V457z M251.6,390.5l-2.5,42.6h-13.5l-2.5-42.6v-16.9
	h18.5V390.5z"/>
</svg>
