<?xml version="1.0" encoding="utf-8"?>
<!-- Generator: Adobe Illustrator 19.2.1, SVG Export Plug-In . SVG Version: 6.00 Build 0)  -->
<svg version="1.1" id="Layer_1" xmlns="http://www.w3.org/2000/svg" xmlns:xlink="http://www.w3.org/1999/xlink" x="0px" y="0px"
	 viewBox="0 0 557.1 557.1" style="enable-background:new 0 0 557.1 557.1;" xml:space="preserve">
<style type="text/css">
	.st0{fill:#0065BD;}
	.st1{fill:url(#SVGID_1_);}
	.st2{fill:#FFFFFF;}
</style>
<circle class="st0" cx="278.6" cy="278.6" r="278.6"/>
<linearGradient id="SVGID_1_" gradientUnits="userSpaceOnUse" x1="277.9624" y1="163.2195" x2="403.5719" y2="514.3829">
	<stop  offset="0" style="stop-color:#0065BD"/>
	<stop  offset="1" style="stop-color:#004C84"/>
</linearGradient>
<path class="st1" d="M180,348l146.5,205c88.4-15.3,162.5-72.3,201.3-149.9L322,113l-58,144L180,348z"/>
<title>recto</title>
<path class="st2" d="M326.1,415.4c0.4,0.3,0.9,0.6,1.4,0.9c5.9,3.1,86.1,44.2,94.9,48.1s21-9.3,24.7-18.5s5.9-26.1-3-30.1
	s-92.7-36.6-99-39c-0.6-0.2-1.3-0.4-2-0.5c1,4,0.5,10.7-4.4,21.6C334.1,408.3,329.7,413.2,326.1,415.4z"/>
<path class="st2" d="M323.2,357c11.9-67.9-33.6-132.5-101.4-144.4C153.9,200.7,89.2,246.1,77.4,314s33.6,132.5,101.4,144.4
	c44.6,7.8,89.9-9.2,118.4-44.3c2.2,0.9,8.2,2.5,15.4-3c4.2-3.2,8.8-8.9,13.2-18.7s5.6-17,5.2-22.3
	C330.4,361.5,325.5,358.1,323.2,357z M156.8,432.1c-53.4-24-77.3-86.7-53.3-140.1s86.7-77.3,140.1-53.3s77.3,86.7,53.3,140.1
	c0,0,0,0,0,0C272.9,432.2,210.2,456,156.8,432.1z"/>
<path class="st2" d="M317.4,213.5c0,0,21.7-21.2,2.9-42.6c0,0,11.7-20.1-1-34.5c0,0,13.8-21.8-1.6-40.6c0,0,8.1-20.3-2.8-35.8
	s-30.7-16.3-43.6-9.9c0,0-37.9-17.6-58.9,18.9c0,0-3.2,48.2,13.5,49c0,0,15.7,1.4,23.9-8c0,0-0.7,7.6,8.2,12.9
	c0,0-4.7,10.5,2.7,25.3c0,0-9,21.8,3.4,32.9c0,0-13.2,14.2-3.5,31.9c0,0-12.9,9.9-9.3,26.2c-9.8,5.2-15.5,15.9-14.3,27
	c-6.1-1.7-12.7,0.2-16.8,5.1c0,0-9.9-7.4-21.7,1c0,0-33.2-12.1-45.5,17c-12.8,30.2,5.2,49.6,8,68.5c3.2,22.2-0.5,35.9,9.8,44.4
	c4.8,3.9,18.8,6,21.1-16.9c1.1-11.4-0.2-26.6,6.8-35c5.4-6.5,8.5-14.1,10.6-21.1c0,0,24.8,11,43.4-5.7c0,0,33.8,1.3,42.1-31.4
	c0,0,25.2-9.5,19.3-39.8C314.3,252.3,332.5,233.3,317.4,213.5z"/>
</svg>
