<svg id="Layer_1" data-name="Layer 1" xmlns="http://www.w3.org/2000/svg" viewBox="0 0 557.14 557.14"><defs><style>.cls-1{fill:#fff;}</style></defs><title>screening</title><path id="kruh" class="cls-1" d="M278.57,0C124.72,0,0,124.72,0,278.57S124.72,557.14,278.57,557.14,557.14,432.42,557.14,278.57,432.42,0,278.57,0Zm0.94,522.38c-134.14,0-242.87-108.74-242.87-242.87S145.37,36.64,279.51,36.64,522.38,145.37,522.38,279.51,413.64,522.38,279.51,522.38Z"/><path class="cls-1" d="M286.11,152.85a30.83,30.83,0,0,0-4.52,4.37,57.11,57.11,0,0,0-3.5,4.6,2.21,2.21,0,0,0-.13-0.22,4.07,4.07,0,0,0-.29-0.42c-0.11-.13-0.21-0.28-0.32-0.41a8,8,0,0,0-.73-0.74,9,9,0,0,0-.79-0.63,9.36,9.36,0,0,0-.8-0.53c-0.26-.17-0.53-0.29-0.78-0.43l-0.72-.33c-0.45-.19-0.83-0.32-1.1-0.41l-0.43-.13a0.23,0.23,0,0,0-.28.16,0.22,0.22,0,0,0,.06.22h0l0.33,0.3L273,159c0.34,0.31.74,0.67,1.14,1.06l0.6,0.61c0.19,0.21.39,0.42,0.56,0.64s0.35,0.44.5,0.66a7.33,7.33,0,0,1,.4.66c0.05,0.11.11,0.21,0.16,0.32l0.12,0.31c0.08,0.2.12,0.4,0.17,0.56l0,0.12c-1.08,1.67-2.15,3.42-3.22,5.23-1.36,2.3-2.75,4.69-4.2,7.15l0-.08a7.45,7.45,0,0,0-.56-0.76,8.62,8.62,0,0,0-.63-0.67,8.17,8.17,0,0,0-.66-0.57,7.67,7.67,0,0,0-.67-0.47c-0.21-.14-0.43-0.25-0.63-0.36s-0.38-.19-0.56-0.25-0.32-.13-0.45-0.16l-0.4-.11a0.23,0.23,0,0,0-.23.37h0l0.26,0.29,0.66,0.75a20.37,20.37,0,0,1,1.7,2.32c0.12,0.22.26,0.43,0.36,0.64a5.48,5.48,0,0,1,.28.62l0.11,0.29,0.07,0.27a0.51,0.51,0,0,1,0,.12c-1,1.62-2,3.26-3.06,4.91-1.6,2.46-3.31,4.93-5.18,7.33q-1.7,2.18-3.58,4.28s0,0,0-.05c-0.06-.34-0.14-0.67-0.21-1s-0.2-.67-0.31-1-0.27-.63-0.4-0.93a7.64,7.64,0,0,0-.48-0.82c-0.08-.12-0.15-0.25-0.24-0.36l-0.27-.31a5.66,5.66,0,0,0-.47-0.52l-0.41-.35-0.37-.29a0.22,0.22,0,0,0-.31,0,0.22,0.22,0,0,0,0,.22v0s0.06,0.16.18,0.41l0.22,0.45c0.08,0.17.15,0.38,0.23,0.59a6.1,6.1,0,0,1,.24.7c0.07,0.25.17,0.5,0.22,0.78s0.14,0.55.19,0.84l0.14,0.88c0,0.3.06,0.59,0.09,0.89s0,0.57.05,0.85,0,0.59,0,.86v0.11l-0.65.67a52.79,52.79,0,0,1-7.28,6,46.69,46.69,0,0,1-8.46,4.55,47.58,47.58,0,0,1-11.31,3.06c0.08-.26.16-0.53,0.25-0.8s0.2-.81.31-1.23,0.15-.86.22-1.3,0.09-.93.08-1.35c0-.21,0-0.41,0-0.61v-0.34l0-.31a8.42,8.42,0,0,0-.2-1.19,7.08,7.08,0,0,0-.31-1c-0.12-.32-0.24-0.6-0.34-0.85s-0.23-.42-0.33-0.58l-0.3-.5a0.22,0.22,0,0,0-.41.16l0.12,0.57,0.15,0.65c0,0.24.06,0.51,0.11,0.8a8.64,8.64,0,0,1,.06,1,7.05,7.05,0,0,1,0,1.06v0.29h0v0h0V206l0,0.15-0.07.61c0,0.41-.15.75-0.21,1.13s-0.19.76-.3,1.14-0.22.74-.35,1.1-0.23.7-.37,1l-0.24.64q-2.85.3-5.73,0.33h-1.24l-1.3,0h-1.3l-1.26,0c-1.67,0-3.37-.15-5-0.29-2.62-.21-5.22-0.53-7.77-1l0,0,0.3-.58a10.41,10.41,0,0,0,.51-1.24,6.59,6.59,0,0,0,.2-0.65c0.06-.22.12-0.44,0.17-0.66,0.1-.44.16-0.89,0.22-1.33s0.09-.87.09-1.29,0-.82,0-1.2S202,203,202,202.7l0-.24c0-.13,0-0.16,0-0.25s-0.06-.28-0.08-0.41-0.09-.48-0.13-0.67c-0.08-.37-0.13-0.58-0.13-0.58a0.23,0.23,0,0,0-.27-0.17,0.22,0.22,0,0,0-.17.18s0,0.21-.08.59c0,0.19-.05.41-0.08,0.67l0,0.41a1.89,1.89,0,0,1,0,.2c0,0.08,0,.15,0,0.23s0,0.32-.07.5-0.06.34-.08,0.51c-0.06.35-.12,0.72-0.2,1.09s-0.17.76-.26,1.15-0.22.77-.34,1.14-0.26.75-.42,1.1-0.32.69-.49,1l-0.26.46-0.27.42-0.2.27a62.62,62.62,0,0,1-18-6.3,53.57,53.57,0,0,1-6.22-4c0.21-.1.41-0.22,0.61-0.34s0.46-.26.68-0.41a15.47,15.47,0,0,0,1.32-1,15.79,15.79,0,0,0,1.23-1.17c0.37-.43.75-0.85,1.06-1.31a12.83,12.83,0,0,0,.89-1.36c0.24-.47.49-0.91,0.67-1.36l0.26-.65c0.08-.21.14-0.42,0.2-0.62s0.13-.39.17-0.57l0.11-.53a5.86,5.86,0,0,0,.14-0.85c0-.47.07-0.74,0.07-0.74a0.22,0.22,0,0,0-.43-0.11l-0.28.68a7.36,7.36,0,0,1-.34.75c-0.13.28-.29,0.59-0.48,0.93-0.1.17-.19,0.35-0.3,0.52l-0.35.54c-0.22.38-.52,0.74-0.79,1.12s-0.6.75-1,1.1-0.7.7-1.06,1-0.75.65-1.15,0.93a14.2,14.2,0,0,1-1.18.8c-0.2.12-.4,0.22-0.59,0.33a5.22,5.22,0,0,1-.58.29l-0.55.26-0.4.16a58.63,58.63,0,0,1-5.83-5.46,115.2,115.2,0,0,1-10.12-13l-1.1-1.58,0.24-.23,0.3-.3a4.07,4.07,0,0,1,.34-0.29l0.37-.3a2.6,2.6,0,0,1,.39-0.3c0.28-.18.56-0.39,0.87-0.57l1-.51,1-.42c0.33-.09.65-0.2,1-0.31s0.73-.14,1.08-0.22l0.13,0h0.08l0.23,0,0.43,0a6.32,6.32,0,0,1,.8-0.07h1.22a0.23,0.23,0,0,0,.22-0.24,0.24,0.24,0,0,0-.13-0.19l-0.52-.23-0.6-.25a4.58,4.58,0,0,0-.85-0.23l-0.51-.11-0.28-.06h-0.3c-0.36,0-.71-0.06-1.11-0.07s-0.87.07-1.33,0.12-0.87.19-1.31,0.3-0.84.31-1.26,0.47-0.78.4-1.16,0.6a8.92,8.92,0,0,0-1,.68,6.14,6.14,0,0,0-.8.66c-0.56-.79-1.12-1.58-1.68-2.34q-1.73-2.36-3.46-4.44a5.56,5.56,0,0,1,.15-0.74,6.42,6.42,0,0,1,.85-1.92,3.89,3.89,0,0,1,.32-0.47l0.17-.23,0.19-.22a8.28,8.28,0,0,1,.81-0.82l0.45-.36,0.46-.32c0.15-.11.31-0.19,0.47-0.28a3.59,3.59,0,0,1,.47-0.24c0.16-.07.31-0.15,0.46-0.21l0.45-.17c0.29-.11.56-0.16,0.81-0.25l0.64-.13a4.22,4.22,0,0,1,.43-0.07l0.16,0a0.23,0.23,0,0,0,.19-0.26,0.23,0.23,0,0,0-.18-0.19l-0.16,0a3.87,3.87,0,0,0-.45-0.08l-0.72-.06a8.12,8.12,0,0,0-.95,0,7.07,7.07,0,0,0-1.11.21,4.64,4.64,0,0,0-.59.18c-0.2.08-.41,0.14-0.61,0.24l-0.61.3-0.59.37a7.47,7.47,0,0,0-1.12.89l-0.26.25-0.24.27a5.53,5.53,0,0,0-.45.56c-0.14.2-.28,0.39-0.4,0.59l-0.34.62c-0.1.23-.2,0.45-0.28,0.68a38.44,38.44,0,0,0-7.83-6.78c-0.85-.54-1.66-1-2.43-1.37a22,22,0,0,1,8.9-3.88c5.16-1.11,9.23,1.22,13.2,3.87a46.31,46.31,0,0,1,4.64,3.88,12.12,12.12,0,0,1,4.43,8.8,2.51,2.51,0,0,0,2.18,2.62A18.14,18.14,0,0,1,182.23,186l0,0.11c0.25,0.66.32,1.57,0.8,1.9s1.37,0,2,.1a33.61,33.61,0,0,1,5.86,1.26,23.86,23.86,0,0,1,8.07,4.79,20.19,20.19,0,0,1,2.52,3.17c0.42,0.59.71,1,1.44,0.42,4.17-3.1,9-3.51,13.9-3,1.94,0.22,3.82,1.24,5.68,2,1.25,0.51,2.42,1.2,3.7,1.83,6.81-7.5,14.76-12.45,25.48-11.44a16.38,16.38,0,0,1,.18-1.83c1.25-5.68,3.75-10.5,9.21-13.28a1.39,1.39,0,0,0,.32-1.11c-0.34-3.5-.53-7,1.2-10.23a10.82,10.82,0,0,1,4-4.07,4.16,4.16,0,0,0,1.64-2.08,17.56,17.56,0,0,1,3.79-6.36,10.64,10.64,0,0,1,5.91-3.05,13.58,13.58,0,0,1,9.93,1.36,15.66,15.66,0,0,1,4,3.3c-0.36.09-.72,0.23-1.1,0.36A18.57,18.57,0,0,0,286.11,152.85Z"/><path class="cls-1" d="M115.82,260.21a2.73,2.73,0,0,1,.17,1.59,15.67,15.67,0,0,0,1.19,13.36,35.6,35.6,0,0,0,2.83,4.12,3,3,0,0,1,.7,2.23,16.47,16.47,0,0,0,2.59,10.35,36,36,0,0,0,10.32,10.61,21.66,21.66,0,0,0,10.19,3.28c1.93,0.14,3.88,0,5.82,0a20.62,20.62,0,0,0,2.2-.2,36.1,36.1,0,0,0,10.68-3.51c1-.47,2.14-1.4,3-1.21s1.94,1.35,2.79,2.2c2,2,4.3,3.89,5.24,6.85,0.86,2.69,2,5.3,3.1,7.9s2.31,3,4.93,2.25a1.88,1.88,0,0,0,1.5-2c0-2.29-1.19-4-2.5-5.63a28.53,28.53,0,0,1-5.15-9.83,26.65,26.65,0,0,0-5.26-10.11,2.75,2.75,0,0,1-.69-1.41,9.16,9.16,0,0,1,.81-4.88,61.67,61.67,0,0,0,3.23-7.35c1.29-3.89,1.2-7.92.7-12a17.06,17.06,0,0,0-5.59-10.7,46.27,46.27,0,0,0-3.88-2.94c-0.44-.33-0.9-0.59-0.46-1.3,1.4-2.24,1.23-4.77.74-7.13a15.31,15.31,0,0,0-4.89-8.69,1.18,1.18,0,0,1-.23-1c1-2.74,1.19-5.43-.26-8.09a1.29,1.29,0,0,1-.06-1c0.59-1.17,1.27-2.29,1.94-3.46a0.56,0.56,0,0,1,.22.07c0.3,0.18.59,0.37,0.88,0.57a21.11,21.11,0,0,0,12.69,3.9,27.46,27.46,0,0,0,4.14-.62,1.79,1.79,0,0,1,1.8.72,16,16,0,0,0,14.3,5.68,2.8,2.8,0,0,1,2.35.8,17.22,17.22,0,0,0,4.43,3.11,23.87,23.87,0,0,0,18.16-.26,3.59,3.59,0,0,1,2-.12,28.37,28.37,0,0,0,9.6.59c2.89-.36,5-2.18,6.79-4.22,1.3-1.46,2.51-1.4,4.19-.9a12.94,12.94,0,0,0,12.13-2.07l2.09-1.61a10.78,10.78,0,0,0,2.86,7.76c1.28,1.37,1.18,2.49.27,4a9.67,9.67,0,0,0-.66,8.64,36.26,36.26,0,0,0,2.55,5.48,2,2,0,0,1,0,2.29c-2.84,4.91-3.47,10-.82,15.2a1.46,1.46,0,0,1-.49,2,16.79,16.79,0,0,0-2.3,2.59c-0.73.94-1.37,2-2.09,3-0.22-.23-0.39-0.39-0.52-0.56-3.64-4.73-8.31-7.48-14.42-7.49a2.4,2.4,0,0,1-1.28-.77,25.41,25.41,0,0,0-3.07-2.91,26.18,26.18,0,0,0-4.63-2.16,18.13,18.13,0,0,0-4.62-1.48A21.79,21.79,0,0,0,218,265a33.52,33.52,0,0,0-9,4.84c-2.18,1.72-4.62,3.47-6,5.77a34.8,34.8,0,0,0-4,10c-1.09,4.74-2.71,9.29-4,13.94a29.14,29.14,0,0,1-1.37,3.33,24.92,24.92,0,0,0-1.54,17.41c1.69,6,4.32,11.31,11,13.27h7.46a7.79,7.79,0,0,1,.81-0.45,14.76,14.76,0,0,0,6.6-6.15,12.29,12.29,0,0,0,1.73-6.31,61.51,61.51,0,0,0-.27-7.73c-0.28-2.91-.83-5.8-1.24-8.7-0.12-.83.27-1.07,1.12-1.17a22.68,22.68,0,0,0,4.37-1,20.18,20.18,0,0,0,2.94-1.51c3.32,5.51,5.32,6.95,9.69,9.22,3.68,1.91,7.57,2.07,11.58,1.46a2.79,2.79,0,0,1,1.69.36c0.76,0.44,1.35,1.21,2.14,1.59,1.91,0.93,3.88,1.74,5.84,2.56a12.1,12.1,0,0,0,7.11.42,25.16,25.16,0,0,0,9.07-3.81,7.32,7.32,0,0,0,2.35-2.2c1.27-2.17,2.28-4.49,3.44-6.73a2.51,2.51,0,0,1,.8-0.91c2.43-1.66,5-3.14,7.27-5a11.34,11.34,0,0,0,2.76-3.82,20.77,20.77,0,0,0,1.91-10.66,2.22,2.22,0,0,1,.8-1.93,15.64,15.64,0,0,0,4.57-7,12.82,12.82,0,0,0,.11-8.45,8.6,8.6,0,0,1,.15-6.19,20.1,20.1,0,0,0-.44-15A34.07,34.07,0,0,0,292,236a1.56,1.56,0,0,1-.28-1.87,19.94,19.94,0,0,0,.4-14.75c-0.33-.91-0.91-1.72-1.24-2.63a2.1,2.1,0,0,1,0-1.47,29.51,29.51,0,0,0,2.49-10.35c0.27-3.16-.69-6.15-1.57-9.14a1.71,1.71,0,0,1,0-1.27c1.18-1.73,2.54-3.34,3.63-5.12a10.27,10.27,0,0,0,1.72-4.13c0.28-3.12.43-6.3-.77-9.32a1.47,1.47,0,0,1,.33-1.66,11.88,11.88,0,0,0,3.24-7c0.85-4.1.31-7.78-3.17-10.63a7.72,7.72,0,0,1-2.38-2.73c-0.16-.41-0.34-0.81-0.54-1.2a12.68,12.68,0,0,0-1.81.59,15.18,15.18,0,0,0-3.86,2.34,27.4,27.4,0,0,0-3.85,4,86.86,86.86,0,0,0-7.17,11.15l0.22,0.08,0.59,0.29,1.31,0.68,0.35,0.19,0.33,0.22,0.67,0.45a12.49,12.49,0,0,1,1.36,1c0.45,0.36.89,0.74,1.32,1.12s0.81,0.82,1.2,1.23a13.35,13.35,0,0,1,1.07,1.26c0.33,0.43.66,0.82,0.93,1.23s0.51,0.8.74,1.16l0.32,0.52,0.25,0.49c0.16,0.31.29,0.58,0.39,0.8,0.21,0.45.32,0.71,0.32,0.71a0.23,0.23,0,0,1-.35.26h0s-0.22-.18-0.58-0.51L287,181.3l-0.38-.36-0.45-.38-1-.86c-0.34-.31-0.74-0.59-1.13-0.91s-0.78-.64-1.21-0.93l-1.26-.92-1.31-.83c-0.42-.29-0.87-0.51-1.29-0.75l-0.62-.34a5.3,5.3,0,0,0-.59-0.3l-1.07-.49-0.48-.23-0.5-.18-0.22-.08c-2.13,3.82-4.39,7.94-7,12.15-1.48,2.38-3.07,4.8-4.83,7.19,0.29,0.29.6,0.6,0.92,0.94s0.65,0.75,1,1.16,0.69,0.82,1,1.28l0.93,1.38c0.28,0.49.55,1,.82,1.45a13.57,13.57,0,0,1,.7,1.45c0.21,0.48.42,0.93,0.58,1.38l0.41,1.28c0.06,0.2.13,0.38,0.17,0.57s0.08,0.36.12,0.53c0.07,0.33.13,0.62,0.17,0.85,0.09,0.47.13,0.74,0.13,0.74a0.23,0.23,0,0,1-.1.22,0.22,0.22,0,0,1-.31-0.07h0s-0.15-.23-0.39-0.64l-0.42-.73-0.25-.45-0.31-.48-0.69-1.08c-0.23-.39-0.53-0.76-0.8-1.17s-0.55-.82-0.88-1.22-0.62-.82-0.94-1.23l-1-1.17c-0.31-.4-0.66-0.75-1-1.1s-0.63-.72-0.95-1l-0.62-.6a70.44,70.44,0,0,1-5.09,5.79q-2,2-4.17,3.83c0.24,0.24.48,0.5,0.73,0.79s0.57,0.68.86,1.05,0.58,0.77.84,1.19,0.53,0.85.77,1.29,0.47,0.9.66,1.36,0.37,0.92.52,1.37,0.27,0.89.36,1.32a10.66,10.66,0,0,1,.2,1.2,7.66,7.66,0,0,1,.07,1,5.41,5.41,0,0,1,0,.79c0,0.43-.05.68-0.05,0.68a0.23,0.23,0,0,1-.43.07h0s-0.1-.23-0.25-0.61c-0.07-.19-0.17-0.42-0.29-0.68s-0.25-.55-0.4-0.86-0.32-.64-0.51-1-0.4-.69-0.61-1.05-0.46-.72-0.71-1.08-0.52-.72-0.78-1.08-0.54-.71-0.84-1-0.56-.66-0.84-1-0.55-.61-0.83-0.88l-0.77-.77-0.16-.16c-0.41.31-.81,0.62-1.23,0.91a50.33,50.33,0,0,1-8.43,4.76c0.2,0.37.38,0.77,0.58,1.2s0.35,1,.53,1.48,0.26,1.06.35,1.62a15.43,15.43,0,0,1,.15,1.68c0,0.29,0,.58,0,0.86a3.22,3.22,0,0,1,0,.4l0,0.38c0,0.27,0,.53-0.07.79s-0.08.51-.12,0.76-0.09.49-.13,0.73-0.11.47-.17,0.69c-0.12.44-.22,0.86-0.37,1.24s-0.26.72-.38,1-0.24.54-.35,0.75c-0.2.41-.32,0.64-0.32,0.64a0.23,0.23,0,0,1-.43-0.09s0-.26-0.05-0.72c0-.23,0-0.51,0-0.82s-0.05-.66-0.07-1-0.06-.77-0.09-1.2c0-.21,0-0.42-0.05-0.65s-0.06-.44-0.08-0.67-0.05-.45-0.08-0.68v0h0V221l0-.09,0-.18-0.05-.37-0.05-.37a2.61,2.61,0,0,0-.07-0.35L239,219a5.76,5.76,0,0,0-.17-0.65l-0.17-.65-0.42-1.21-0.25-.55a4.73,4.73,0,0,0-.23-0.52c-0.19-.32-0.34-0.63-0.51-0.9l-0.29-.43a51.21,51.21,0,0,1-7.6,2.05c-1.89.36-3.8,0.63-5.72,0.8l0,0.09c0.19,0.8.39,1.73,0.57,2.75,0.07,0.51.16,1,.22,1.58s0.12,1.09.13,1.65,0.05,1.11,0,1.67c0,0.28,0,.55,0,0.82v0.23l0,0.19,0,0.38-0.09.74c0,0.25-.09.5-0.14,0.74a12.48,12.48,0,0,1-.34,1.33c-0.12.4-.25,0.76-0.36,1.08s-0.26.58-.37,0.79c-0.21.44-.34,0.68-0.34,0.68a0.22,0.22,0,0,1-.22.12,0.22,0.22,0,0,1-.2-0.25v0s0-.27.11-0.73l0.14-.82c0-.32,0-0.68.09-1.07a10.18,10.18,0,0,0,0-1.24c0-.22,0-0.44,0-0.67s0-.49,0-0.74,0-.25,0-0.38V225.5h0v0h0v0c0-.25-0.05-0.5-0.08-0.75,0-.5-0.13-1-0.2-1.52s-0.18-1-.27-1.52l-0.31-1.47-0.33-1.37-0.32-1.23c0-.18-0.09-0.35-0.14-0.52-0.84,0-1.68.08-2.51,0.09h-2.67l-1.3,0-1.34,0c-1.8-.05-3.55-0.16-5.32-0.3-1.45-.12-2.89-0.27-4.33-0.45,0,0.22,0,.44,0,0.68,0,0.44-.12,1-0.19,1.46a13,13,0,0,1-.3,1.53l-0.19.77c-0.07.25-.16,0.5-0.23,0.76-0.17.5-.32,1-0.52,1.48s-0.38,1-.59,1.39l-0.62,1.26c-0.2.4-.43,0.76-0.62,1.1s-0.37.64-.55,0.91-0.32.5-.45,0.68l-0.41.58a0.23,0.23,0,0,1-.23.09,0.23,0.23,0,0,1-.17-0.27h0s0.06-.25.17-0.69c0.06-.22.13-0.48,0.22-0.78l0.27-1c0.21-.73.43-1.58,0.67-2.48,0.11-.45.22-0.92,0.33-1.39s0.2-1,.3-1.43c0-.24.11-0.48,0.14-0.72s0.07-.48.11-0.71c0.07-.47.15-0.94,0.18-1.37s0.1-.84.12-1.27,0-.63,0-0.93c-1.21-.18-2.42-0.38-3.62-0.62a71.41,71.41,0,0,1-10.77-3c0,0.13,0,.27,0,0.41s0,0.22,0,.33,0,0.25,0,.37c-0.07.5-.15,1-0.26,1.54s-0.26,1-.4,1.51l-0.55,1.45c-0.21.46-.44,0.91-0.66,1.34s-0.5.81-.73,1.19a9.15,9.15,0,0,1-.74,1,10.34,10.34,0,0,1-.67.8L182,223l-0.51.47a0.23,0.23,0,0,1-.24,0,0.22,0.22,0,0,1-.12-0.3v0s0.1-.23.28-0.62c0.09-.2.21-0.43,0.34-0.69s0.24-.58.39-0.91a10.71,10.71,0,0,0,.42-1.07c0.13-.39.3-0.78,0.42-1.2l0.38-1.29,0.31-1.35c0.08-.45.14-0.91,0.22-1.35s0.07-.86.13-1.27c0-.1,0-0.2,0-0.31s0-.22,0-0.34,0-.44,0-0.65,0-.21,0-0.31v-0.24s0-.07,0-0.1a58.89,58.89,0,0,1-6.2-3c-0.75-.4-1.47-0.85-2.2-1.28s-1.43-.89-2.12-1.37c-1.39-.92-2.71-1.93-4-3a64,64,0,0,1-6.9-6.58,119,119,0,0,1-10.36-13.64l-1.41-2.09a1.54,1.54,0,0,0-.46.1,4.35,4.35,0,0,0-1,.41c-0.19.13-.4,0.22-0.59,0.37s-0.4.3-.59,0.5a8.52,8.52,0,0,0-1.12,1.33,8.15,8.15,0,0,0-.5.81l-0.24.43-0.22.45c-0.07.15-.15,0.31-0.21,0.46l-0.19.48c-0.14.32-.24,0.65-0.35,1a16.23,16.23,0,0,0-.5,2l-0.15,1c0,0.33-.08.68-0.08,1a17.26,17.26,0,0,0,0,1.93,16.14,16.14,0,0,0,.2,1.73c0.05,0.27.1,0.52,0.14,0.77l0.16,0.69c0.1,0.43.23,0.8,0.31,1.11l0.32,1h0a0.22,0.22,0,0,1-.4.19s-0.2-.32-0.54-0.89c-0.15-.3-0.35-0.65-0.54-1.08l-0.3-.68c-0.1-.25-0.19-0.51-0.29-0.78a17.52,17.52,0,0,1-.49-1.81,15.52,15.52,0,0,1-.29-2.08c0-.4,0-0.75,0-1.14s0-.77.05-1.15a18.65,18.65,0,0,1,.37-2.33c0.09-.39.18-0.77,0.3-1.15a11.34,11.34,0,0,1,.4-1.12c0.07-.18.14-0.37,0.22-0.55l0.26-.53a11.45,11.45,0,0,1,2-2.81,10.81,10.81,0,0,1,.82-0.72,9.72,9.72,0,0,1,.87-0.58,8.13,8.13,0,0,1,1.21-.54c-1.79-2.62-3.49-5-5.19-7.06-0.86-1.05-1.72-2-2.57-2.88l-0.34-.08c-0.37-.08-0.76-0.19-1.19-0.25l-1.34-.23-1.42-.13-0.34,0h-0.39c-0.28,0-.48,0-0.72,0a11,11,0,0,0-1.42.14,8.19,8.19,0,0,0-1.32.33,5.84,5.84,0,0,0-1.15.54c-0.18.09-.34,0.22-0.5,0.32s-0.3.24-.44,0.35a8.08,8.08,0,0,0-.7.72c-0.21.22-.34,0.46-0.49,0.63l-0.38.6h0a0.22,0.22,0,0,1-.23.1,0.22,0.22,0,0,1-.17-0.27s0.06-.27.19-0.74a7.07,7.07,0,0,1,.92-1.83c0.14-.17.27-0.35,0.43-0.53s0.32-.36.52-0.52a7.62,7.62,0,0,1,1.31-.91c0.24-.14.5-0.25,0.76-0.37s0.53-.21.81-0.29a10.63,10.63,0,0,1,1.69-.37c0.28,0,.61-0.07.86-0.08l0.39,0h0.44l1.06,0q-0.9-.71-1.75-1.28a29.31,29.31,0,0,0-3.26-1.87l-1-.46a11,11,0,0,0-9,5.4c-2.94,4.58-2.55,9.37-.11,14.07,0.73,1.41,1.57,2.76,2.3,4.17a1.29,1.29,0,0,1,.07,1c-1.3,2.22-1.35,4.67-1.41,7.12a9.65,9.65,0,0,0,2.27,6.45c0.26,0.32.47,0.67,0.73,1-3,2.47-3.87,5.9-4.51,9.33a10.69,10.69,0,0,0,2.56,9.64,13.68,13.68,0,0,0-3,1.77,15,15,0,0,0-4.32,9.94,31.35,31.35,0,0,0,.84,10c-5.3,2.22-6.39,6.26-5.6,10.73C113.68,255.24,115,257.69,115.82,260.21Zm141.69-35.44a0.22,0.22,0,0,1,.22-0.22,12.64,12.64,0,0,0,1.36-.14,8.49,8.49,0,0,0,1.32-.29,9.11,9.11,0,0,0,1.27-.44l0.31-.12,0.3-.15,0.59-.3,0.3-.15,0.28-.18,0.56-.36a4.1,4.1,0,0,0,.53-0.39l0.52-.41c0.35-.27.64-0.61,1-0.9s0.59-.66.88-1,0.53-.7.79-1,0.46-.74.7-1.11,0.4-.77.61-1.16,0.34-.8.51-1.2,0.27-.82.42-1.22,0.2-.83.31-1.24,0.14-.83.22-1.25,0.07-.83.13-1.25l0.16-1.22,1.21,0,0.75,0h0.65c0.44-.06.88-0.07,1.31-0.16l0.65-.13,0.32-.06,0.32-.09a10.6,10.6,0,0,0,1.26-.41l0.62-.24c0.21-.08.4-0.2,0.6-0.29l0.61-.29,0.58-.34c0.19-.12.39-0.22,0.58-0.35l0.55-.4a10.1,10.1,0,0,0,1.07-.85,12.8,12.8,0,0,0,1-1,4.35,4.35,0,0,0,.47-0.51l0.45-.53c0.3-.36.54-0.76,0.82-1.13s0.48-.8.73-1.2,0.42-.84.61-1.28,0.36-.89.49-1.34l0.19-.68,0.1-.35c0-.12,0-0.25.07-0.37l0.14-.74c0-.12.05-0.27,0.06-0.35l0-.37a0.22,0.22,0,0,1,.19-0.19,0.23,0.23,0,0,1,.26.19l0.06,0.37c0,0.17,0,.26,0,0.4l0.05,0.75c0,0.13,0,.25,0,0.38l0,0.39,0,0.8c0,0.53-.16,1-0.24,1.56s-0.27,1-.42,1.53-0.38,1-.59,1.48-0.47,1-.75,1.41l-0.43.68a6.15,6.15,0,0,1-.46.66,13.83,13.83,0,0,1-1,1.24,12.82,12.82,0,0,1-1.16,1.14l-0.62.53c-0.21.17-.44,0.32-0.67,0.48l-0.68.47-0.72.4c-0.25.13-.48,0.27-0.73,0.38l-0.76.32a11.25,11.25,0,0,1-1.58.51l-0.4.11-0.41.07-0.83.12a4.74,4.74,0,0,1-.83.06l-0.84,0h-0.34s0,0.08,0,.12c-0.11.49-.19,1-0.32,1.48-0.11.33-.21,0.66-0.32,1l0,0.12c0.17,0.69.46,1.48,0.7,2.42,0.05,0.23.13,0.48,0.21,0.73l0.23,0.79c0.16,0.54.29,1.12,0.49,1.73,0.42,1.5.88,3.22,1.41,5.12l0.22-.05a19.11,19.11,0,0,0,2.4-.88c0.88-.38,1.82-0.83,2.75-1.31s1.84-1,2.69-1.49,1.61-1,2.25-1.44c0.31-.23.59-0.45,0.81-0.64a3.09,3.09,0,0,0,.27-0.28,0.3,0.3,0,0,1,.07-0.08A0.31,0.31,0,0,0,287,219h0a0.11,0.11,0,1,1,0,0v-0.12s0-.08,0-0.12a2,2,0,0,0,0-.22c0-.13,0-0.2,0-0.2a0.23,0.23,0,0,1,.14-0.22,0.22,0.22,0,0,1,.29.13l0.07,0.18a1.85,1.85,0,0,1,.14.64,0.6,0.6,0,0,1,0,.21,1.59,1.59,0,0,1-.1.29,4.09,4.09,0,0,1-.26.46,8.07,8.07,0,0,1-.73.92c-0.28.31-.6,0.63-0.95,1s-0.73.65-1.12,1a30.82,30.82,0,0,1-2.61,1.9,21.84,21.84,0,0,1-5.54,2.68l-0.21.05,0.46,1.54c1,3.46,2.25,7.38,3.35,11.76,0.1,0.38.18,0.76,0.28,1.14l0.56-.22c0.36-.13.71-0.3,1.1-0.45s0.76-.34,1.13-0.54,0.76-.39,1.14-0.6,0.74-.44,1.08-0.68,0.67-.49,1-0.73c0.15-.13.29-0.26,0.44-0.39a3.78,3.78,0,0,0,.42-0.39l0.38-.39,0.33-.39a8.37,8.37,0,0,0,.55-0.7l0.23-.31,0.18-.29c0.22-.36.35-0.56,0.35-0.56a0.23,0.23,0,0,1,.21-0.1,0.23,0.23,0,0,1,.21.25s0,0.24-.07.65c0,0.1,0,.22,0,0.34l-0.11.42-0.13.48c0,0.17-.12.33-0.19,0.51s-0.14.36-.23,0.55l-0.3.56a5,5,0,0,1-.35.57c-0.13.19-.26,0.39-0.41,0.58a11.08,11.08,0,0,1-1,1.1,13,13,0,0,1-1.13,1c-0.4.3-.81,0.6-1.23,0.87s-0.84.49-1.24,0.73-0.81.41-1.2,0.58-0.72.31-1,.44a80.63,80.63,0,0,1,1.53,10.46c0.07,0.65.08,1.32,0.11,2s0,1.34.07,2v1c0,0.33,0,.66,0,1v0.5l0,0.53c0,0.35,0,.7,0,1.06,0,0.15,0,.3,0,0.45l0.36,0,0.6,0,0.32,0h0.86a12,12,0,0,0,1.29-.08c0.44,0,.9-0.1,1.35-0.16s0.92-.15,1.38-0.22,0.91-.16,1.35-0.23c0.88-.15,1.72-0.29,2.45-0.39s1.34-.16,1.77-0.19l0.67,0a0.23,0.23,0,0,1,.21.13,0.22,0.22,0,0,1-.1.3l-0.61.29-0.71.31c-0.27.12-.57,0.26-0.9,0.4-0.66.28-1.44,0.63-2.29,1-0.43.17-.87,0.34-1.34,0.48s-0.93.31-1.42,0.43-1,.26-1.47.34a13.08,13.08,0,0,1-1.48.21l-0.72.05h-1.31l-0.48-.05a53,53,0,0,1-.86,5.39,44.62,44.62,0,0,1-2.77,8.47l-0.14.29c0.31,0.06.62,0.13,1,.17s0.79,0.11,1.19.15L281.3,281l0.32,0H282c0.9,0.06,1.81.12,2.67,0.21s1.66,0.2,2.35.31l0.5,0.08h0.08l0,0,0.09,0a1.81,1.81,0,0,0,.57-0.22,2.78,2.78,0,0,1,.49-0.21l0.17,0a0.23,0.23,0,0,1,.22.38l-0.12.13a2.54,2.54,0,0,0-.25.34,2.24,2.24,0,0,1-.59.64,1.77,1.77,0,0,1-.32.16l-0.19.05-0.1,0-0.05,0-0.49.11c-0.68.15-1.48,0.31-2.34,0.45s-1.79.27-2.71,0.38l-0.34,0-0.37,0c-0.23,0-.44,0-0.69,0-0.5,0-1,0-1.45,0s-0.93-.09-1.36-0.15l-0.84-.18c-0.14.25-.29,0.5-0.44,0.74-0.38.67-.84,1.3-1.27,2s-0.92,1.27-1.43,1.86-1,1.19-1.57,1.78-1.12,1.13-1.73,1.65-0.95.8-1.44,1.18l0.31,0.36c0.25,0.3.54,0.59,0.82,0.9s0.59,0.62.91,0.92,0.65,0.62,1,.93,0.68,0.6,1,.87,0.7,0.54,1,.81,0.68,0.5,1,.71,0.64,0.42.94,0.61l0.82,0.49c0.24,0.14.46,0.26,0.66,0.36l0.6,0.32a0.23,0.23,0,0,1-.11.43l-0.68,0a6.28,6.28,0,0,1-.78-0.08l-0.49-.07-0.53-.11a11.45,11.45,0,0,1-1.18-.32c-0.42-.13-0.85-0.3-1.29-0.48s-0.89-.4-1.32-0.64-0.87-.51-1.31-0.78-0.84-.58-1.23-0.89-0.76-.63-1.13-0.94-0.68-.64-1-1-0.43-.46-0.62-0.68a24.11,24.11,0,0,1-9,3.24l-0.61.09-0.62.06c-0.41,0-.81.08-1.22,0.08l-0.61,0h-0.67l-1.11,0-0.56,0-0.57-.06,0,0.07c-0.07.26-.1,0.6-0.16,0.93s-0.13.66-.16,1-0.11.72-.16,1.08-0.1.75-.15,1.12l-0.17,1.09c-0.11.71-.26,1.39-0.39,2a8,8,0,0,1-.21.79c-0.07.23-.13,0.44-0.19,0.6-0.11.33-.19,0.52-0.19,0.52a0.23,0.23,0,0,1-.15.14,0.23,0.23,0,0,1-.29-0.16h0s-0.06-.2-0.14-0.53-0.17-.81-0.3-1.38c-0.06-.29-0.11-0.59-0.17-0.92s-0.11-.68-0.17-1c-0.11-.71-0.18-1.5-0.24-2.28,0-.4,0-0.8,0-1.19a11.19,11.19,0,0,1,0-1.17c0-.38,0-0.71.11-1.08l-0.58-.13a21.82,21.82,0,0,1-8.73-4.22,30.5,30.5,0,0,1-4.21-4.1v0c-0.11.4-.23,0.82-0.36,1.24a4.55,4.55,0,0,1-.23.62l-0.26.61c-0.09.2-.17,0.41-0.27,0.6l-0.33.58a8.16,8.16,0,0,1-.69,1.08c-0.25.34-.5,0.64-0.73,0.94s-0.53.52-.76,0.75a4.57,4.57,0,0,1-.68.58l-0.56.39-0.5.32a0.23,0.23,0,0,1-.23,0,0.22,0.22,0,0,1-.08-0.31v0l0.3-.49c0.09-.16.21-0.33,0.34-0.54a6.61,6.61,0,0,0,.4-0.71c0.14-.27.3-0.54,0.45-0.84s0.27-.64.42-1a10,10,0,0,0,.39-1l0.19-.54c0.06-.18.1-0.37,0.15-0.56,0.08-.38.23-0.73,0.27-1.1s0.13-.73.2-1.08l0.11-1c0-.16,0-0.3,0-0.46s0-.33,0-0.48,0-.35,0-0.52a45.41,45.41,0,0,0-5-5.81,10.74,10.74,0,0,0-6.15-2.93c-0.28-.05-0.57,0-0.86-0.06l-0.43,0h-0.37l-0.5,0a2.82,2.82,0,0,0-.45,0l-0.73.12a11.2,11.2,0,0,0-3.07,1.14,14.64,14.64,0,0,0-4.86,4.35,21.78,21.78,0,0,0-2.86,5.71l-0.45,1.49a5.68,5.68,0,0,0-.2.75l-0.17.75c-0.1.5-.24,1-0.31,1.48s-0.14,1-.21,1.47a21,21,0,0,0-.23,2.31,4.56,4.56,0,0,0,.36.32l0.29,0.25,0.34,0.25c0.22,0.18.49,0.33,0.75,0.51s0.55,0.34.86,0.48,0.61,0.3.92,0.45,0.64,0.28,1,.4l1,0.34c0.32,0.1.63,0.2,0.93,0.28l0.85,0.25,1.29,0.35,0.5,0.14a0.22,0.22,0,0,1,.16.19,0.22,0.22,0,0,1-.2.25l-0.52.05-0.6,0c-0.23,0-.49,0-0.78,0a15.59,15.59,0,0,1-2-.12c-0.36,0-.73-0.1-1.1-0.19s-0.75-.18-1.14-0.28-0.75-.24-1.11-0.4-0.71-.32-1.05-0.49-0.59-.34-0.85-0.52c0,0.23,0,.46,0,0.69q0,1.36,0,2.63c0,0.85.07,1.63,0.09,2.41,0.06,1.54.11,3,.19,4.27s0.12,2.46.16,3.47,0,1.88,0,2.58c0,1.4,0,2.14,0,2.14a0.22,0.22,0,0,1-.44,0h0s-0.12-.73-0.34-2.11c-0.11-.69-0.24-1.53-0.38-2.53l-0.58-3.42c-0.22-1.28-.42-2.72-0.65-4.3-0.05-.39-0.11-0.79-0.17-1.2s-0.12-.83-0.14-1.25-0.07-.78-0.1-1.17h-0.55l-0.49,0c-0.16,0-.37,0-0.57,0a6.1,6.1,0,0,0-.62.06c-0.42,0-.85.1-1.26,0.14l-0.6.07-0.56.06-0.49,0-0.38,0h-0.36a0.23,0.23,0,0,1-.14,0,0.25,0.25,0,0,1-.07-0.34s0.07-.11.21-0.28a6,6,0,0,1,.63-0.69c0.14-.13.29-0.27,0.46-0.4l0.56-.4c0.19-.13.41-0.25,0.63-0.37a7,7,0,0,1,.69-0.33,5.57,5.57,0,0,1,.73-0.26,6.54,6.54,0,0,1,.75-0.2l0.75-.13,0.44,0v-0.12a0.35,0.35,0,0,1,0-.09v-0.41c0-.24,0-0.49,0-0.74a30.59,30.59,0,0,1,.08-3.06c0-.52.08-1.06,0.12-1.6s0.15-1.08.23-1.63l0.13-.83a7.38,7.38,0,0,1,.16-0.84l0.42-1.7a25.13,25.13,0,0,1,3-6.8,17.46,17.46,0,0,1,5.95-5.66c0.32-.17.62-0.37,1-0.52l1-.44a7.91,7.91,0,0,1,1.06-.37l0.54-.16a4.43,4.43,0,0,1,.56-0.15l1.22-.22a3.5,3.5,0,0,1,.53-0.06l0.49,0,0.25,0H220l0.57,0c0.38,0,.76,0,1.14.07a13.58,13.58,0,0,1,3.2.7L225,274a7.34,7.34,0,0,1,.84-0.51,7.24,7.24,0,0,1,1-.54c0.38-.16.77-0.34,1.19-0.49l1.31-.38c0.45-.1.91-0.18,1.38-0.25s0.92-.09,1.37-0.13,0.91,0,1.34,0,0.83,0,1.21.07l0.55,0.06h0.17l0.13,0,0.25,0c0.65,0.11,1.2.22,1.58,0.29l0.6,0.13a0.23,0.23,0,0,1,.17.18,0.22,0.22,0,0,1-.18.26l-0.61.09c-0.39.05-.94,0.12-1.6,0.18l-0.25,0h-0.22l-0.54.09c-0.38.05-.79,0.09-1.16,0.17s-0.79.12-1.19,0.22-0.81.17-1.21,0.29l-1.17.35-1.1.42-1,.47a3,3,0,0,0-.37.19,17.54,17.54,0,0,1,2.66,1.93,52.71,52.71,0,0,1,5.85,6.6,34.14,34.14,0,0,0,5.67,5.87,17.54,17.54,0,0,0,7.05,3.3,8.92,8.92,0,0,0,1,.19c0.33,0.05.66,0.12,1,.16l1,0.1,0.48,0,0.56,0,1.11,0h0.45l0.5,0c0.33,0,.66,0,1-0.07l0.5,0,0.3,0c0-.07,0-0.12,0-0.19,0-.27.09-0.55,0.14-0.88s0-.39,0-0.59,0-.2,0-0.31v-0.08h0v-0.14c0-.38,0-0.77,0-1.19s0-.83-0.07-1.27l-0.22-2.59c0-.42-0.06-0.83-0.08-1.23s0-.76,0-1.12a12.73,12.73,0,0,1,.09-1.69c0-.4.08-0.63,0.08-0.63a0.23,0.23,0,0,1,.44,0s0.08,0.22.2,0.6l0.22,0.69c0.09,0.26.2,0.55,0.3,0.86l0.35,1,0.39,1.15c0.13,0.4.26,0.83,0.39,1.26s0.24,0.89.35,1.34,0.18,0.93.27,1.39,0.1,0.95.14,1.4v0.22h0v0.17c0,0.1,0,.21,0,0.31v0.59c0,0.09,0,.18,0,0.27a21.21,21.21,0,0,0,4.6-2.07,21.74,21.74,0,0,0,3.23-2.38c0.51-.44,1-0.92,1.46-1.39s0.92-1,1.34-1.51,0.83-1.07,1.24-1.6,0.77-1.1,1.11-1.69a32.78,32.78,0,0,0,1.91-3.56v0h-0.37l-0.3,0-0.62,0-0.31,0-0.34,0-0.7-.09c-0.48-.06-0.92-0.17-1.38-0.28a13.85,13.85,0,0,1-1.34-.39,12,12,0,0,1-1.26-.47,11.06,11.06,0,0,1-1.14-.52,10.73,10.73,0,0,1-1-.55c-0.3-.18-0.56-0.35-0.8-0.5l-0.58-.43-0.5-.39a0.22,0.22,0,0,1,.2-0.39h0l0.59,0.19,0.66,0.23,0.86,0.25c0.31,0.1.66,0.19,1,.28s0.74,0.2,1.14.27,0.8,0.18,1.21.24,0.83,0.15,1.26.18,0.85,0.12,1.25.12l0.6,0,0.3,0h1.46l1-.06h0.06a42.26,42.26,0,0,0,1.57-5.19,50.12,50.12,0,0,0,1.13-7.75c0-.31,0-0.63.06-0.94l0-.47v-0.5c0-.33,0-0.66,0-1v-0.94c0-.1,0-0.19,0-0.29-0.35,0-.73.07-1.15,0.09s-0.92.07-1.39,0.07h-1.46c-0.51,0-1,0-1.54-.13l-0.77-.11c-0.26,0-.51-0.11-0.76-0.16a10.73,10.73,0,0,1-1.46-.43,5.72,5.72,0,0,1-.68-0.28l-0.63-.29c-0.4-.22-0.75-0.46-1.09-0.66s-0.6-.48-0.85-0.69a4.3,4.3,0,0,1-.56-0.57l-0.45-.52a0.22,0.22,0,0,1,.28-0.34l0.6,0.34,0.31,0.18a1.94,1.94,0,0,0,.36.19l0.86,0.38c0.34,0.11.69,0.25,1.07,0.36s0.78,0.22,1.21.28,0.87,0.14,1.33.17,0.91,0.06,1.38.06,0.94,0,1.4,0l0.69,0,0.7,0c0.46,0,.87-0.09,1.27-0.12l1.15-.13,0.13,0c0-.34,0-0.68,0-1a82.44,82.44,0,0,0-2-13.87q-0.26-1.12-.53-2.21a5.1,5.1,0,0,1-1,.22l-0.35,0-0.28,0-0.6,0c-0.42,0-.73.08-1.14,0.13l-1.27.18-1.32.17c-0.45,0-.89.09-1.33,0.09h-0.65l-0.63,0-0.3,0h-0.18l-0.13,0-0.51-.1a6.6,6.6,0,0,1-1-.32,4.55,4.55,0,0,1-.68-0.34c-0.35-.22-0.54-0.36-0.54-0.36a0.23,0.23,0,0,1-.09-0.2,0.22,0.22,0,0,1,.25-0.2h0l0.59,0.07c0.18,0,.41,0,0.66,0s0.52,0,.8,0l0.51-.06,0.14,0h0.09l0.25-.05,0.52-.11,0.55-.15c0.19,0,.38-0.1.57-0.16l0.59-.17,1.23-.38c0.41-.14.86-0.25,1.29-0.37,0.21-.06.47-0.11,0.69-0.16s0.47-.1.66-0.13l0.6-.09,0.3,0,0.22,0a2.6,2.6,0,0,0,.62-0.19l0.07,0c-0.61-2.34-1.24-4.55-1.8-6.62-0.49-1.75-.93-3.4-1.31-4.94-0.19-.77-0.35-1.52-0.51-2.23s-0.25-1.42-.34-2.07-0.14-1.29-.19-1.89c0-.41,0-0.78-0.06-1.15-0.21.32-.41,0.65-0.64,1s-0.58.79-.91,1.16-0.65.74-1,1.07-0.7.68-1.09,1-0.76.62-1.18,0.87l-0.62.39a5.11,5.11,0,0,1-.63.36l-0.65.33-0.32.16-0.34.13-0.68.25-0.34.12-0.35.09a9.81,9.81,0,0,1-1.41.3,9,9,0,0,1-1.43.12,13.08,13.08,0,0,1-1.42,0h0A0.22,0.22,0,0,1,257.51,224.77ZM120,258.6s0.11-.34.31-0.93a8.86,8.86,0,0,1,.48-1.06,7,7,0,0,1,.35-0.63l0.42-.68c0.34-.44.68-1,1.11-1.42a16.06,16.06,0,0,1,1.44-1.43l0.84-.67c0.29-.22.6-0.42,0.9-0.63a15.88,15.88,0,0,1,2-1.1,10.1,10.1,0,0,1,1-.47c0.35-.13.7-0.29,1.05-0.4s0.7-.24,1.06-0.33l1.05-.26a18.73,18.73,0,0,1,2-.32c0.32,0,.64-0.07,1-0.08l0.45,0H136l1,0c0-.05,0-0.11,0-0.16q-0.07-1.15-.14-2.29c-0.06-.76-0.05-1.52-0.06-2.27s0-1.52,0-2.28,0-1.45.06-2.16c0-.28,0-0.56,0-0.84l-0.23,0a4.91,4.91,0,0,1-.87-0.19l-0.47-.08a3,3,0,0,0-.56-0.08l-0.68-.05h-0.58a9.44,9.44,0,0,0-1.34.07,12,12,0,0,0-1.41.19l-0.72.13c-0.24,0-.47.12-0.71,0.17-0.47.11-.94,0.22-1.39,0.36s-0.9.24-1.3,0.39-0.82.24-1.18,0.38-0.7.24-1,.34l-0.78.28-0.69.23a0.23,0.23,0,0,1-.23-0.06,0.23,0.23,0,0,1,0-.32s0.19-.18.54-0.49a17.18,17.18,0,0,1,1.52-1.19c0.32-.24.69-0.47,1.08-0.72s0.82-.49,1.27-0.72c0.23-.12.45-0.25,0.69-0.36l0.73-.32a13.56,13.56,0,0,1,1.55-.57,12.8,12.8,0,0,1,1.62-.41,11.61,11.61,0,0,1,1.64-.21l0.4,0h0.45l0.69,0a4.48,4.48,0,0,1,.73.08l0.73,0.11a4.51,4.51,0,0,1,.64.16l0.07,0c0.19-2.32.43-4.56,0.75-6.68,0.36-2.46.78-4.78,1.19-6.92l-1-.16-2.31-.36c-0.73-.12-1.42-0.23-2.06-0.32s-1.22-.16-1.74-0.22-1-.1-1.33-0.12h-0.47a2,2,0,0,0-.35,0l-0.31,0h0a0.22,0.22,0,0,1-.13-0.42l0.28-.13a5.18,5.18,0,0,1,.91-0.25c0.39-.08.85-0.16,1.38-0.23s1.14-.12,1.8-0.18c1.31-.1,2.84-0.18,4.47-0.23l1.41,0,0.79-3.79q0.29-1.34.5-2.49c0.14-.76.25-1.46,0.37-2.06,0.08-.31.11-0.58,0.18-0.83l0-.19,0-.09h0a0.14,0.14,0,0,1,0,.05v-0.08c0-.14,0-0.27.06-0.4s0.08-.43.13-0.62a3.93,3.93,0,0,1-.19-0.69c0-.07,0-0.13,0-0.2l-0.94-.13c-0.59-.14-1.17-0.25-1.75-0.41l-0.86-.28-0.43-.14-0.42-.18-0.83-.35c-0.27-.13-0.53-0.28-0.8-0.42a13.73,13.73,0,0,1-1.53-1c-0.24-.18-0.47-0.38-0.7-0.57l-0.35-.29-0.32-.32c-0.21-.22-0.43-0.43-0.62-0.65l-0.56-.7a8.54,8.54,0,0,1-.51-0.74,6.42,6.42,0,0,1-.46-0.77c-0.13-.27-0.29-0.53-0.4-0.8l-0.33-.83a12.36,12.36,0,0,1-.46-1.72l-0.09-.44c0-.15,0-0.3-0.05-0.45s-0.08-.61-0.08-0.89,0-.55,0-0.88,0-.6.08-0.89a22.55,22.55,0,0,1,.73-3.39,16,16,0,0,1,.59-1.64,7.83,7.83,0,0,1,.39-0.79c0.07-.13.17-0.26,0.25-0.39s0.18-.22.27-0.34a0.22,0.22,0,0,1,.3,0,0.22,0.22,0,0,1,.06.31h0c-0.08.11-.17,0.23-0.24,0.34s-0.13.22-.19,0.34a8.15,8.15,0,0,0-.32.76,14.9,14.9,0,0,0-.47,1.6,21.91,21.91,0,0,0-.51,3.31c0,0.27,0,.55,0,0.81l0.06,0.83c0,0.29.08,0.53,0.12,0.8s0,0.26.07,0.39l0.1,0.39a10.91,10.91,0,0,0,.51,1.54l0.35,0.73c0.11,0.24.27,0.46,0.4,0.7a5,5,0,0,0,.45.67,6.73,6.73,0,0,0,.49.63l0.53,0.59c0.19,0.19.4,0.36,0.59,0.54l0.3,0.27,0.32,0.24c0.22,0.15.42,0.32,0.65,0.47a12.85,12.85,0,0,0,1.4.77c0.24,0.11.48,0.23,0.73,0.33l0.76,0.27L138,205l0.39,0.1,0.78,0.2c0.52,0.12,1.06.18,1.59,0.28l1.61,0.13,0.74,0.06,0.21,0.83h0a13.75,13.75,0,0,0,.43,1.46l0.12,0.36c0,0.12.11,0.23,0.16,0.35s0.2,0.48.33,0.7l0.4,0.68c0.14,0.22.31,0.43,0.46,0.65a5.82,5.82,0,0,0,.51.62c0.18,0.2.34,0.42,0.55,0.6l0.59,0.57,0.63,0.53a7.89,7.89,0,0,0,.66.5c0.23,0.16.44,0.33,0.68,0.47l0.7,0.44,0.73,0.39c0.24,0.14.5,0.24,0.75,0.36a7.48,7.48,0,0,0,.77.32,13.41,13.41,0,0,0,1.58.49l0.8,0.15,0.8,0.07a7.39,7.39,0,0,0,1.59-.17,13.76,13.76,0,0,0,1.61-.47,18.25,18.25,0,0,0,3.1-1.42,14.84,14.84,0,0,0,1.43-.93,9.27,9.27,0,0,0,1.25-1.13h0a0.22,0.22,0,0,1,.34.28,9.35,9.35,0,0,1-1.24,1.3,15.33,15.33,0,0,1-1.41,1.09c-0.49.34-1,.64-1.51,0.94a17,17,0,0,1-1.61.79,14.3,14.3,0,0,1-1.7.61,8.59,8.59,0,0,1-1.86.32l-0.94,0-0.92-.11a14.83,14.83,0,0,1-1.78-.43,8.47,8.47,0,0,1-.87-0.29c-0.28-.11-0.58-0.2-0.85-0.34l-0.83-.38-0.81-.43c-0.27-.14-0.52-0.31-0.78-0.47a8.9,8.9,0,0,1-.77-0.51c-0.25-.18-0.5-0.36-0.74-0.55l-0.71-.6c-0.24-.19-0.45-0.43-0.67-0.65s-0.35-.35-0.51-0.55c0,0.34-.09.68-0.13,1-0.12.8-.25,1.66-0.4,2.57-0.18,1.12-.38,2.33-0.58,3.6l0.58,0.14a39.71,39.71,0,0,1,5,1.62c0.77,0.3,1.5.63,2.19,0.95l1,0.48,0.91,0.49c0.58,0.32,1.1.62,1.56,0.9s0.84,0.53,1.15.76l1,0.7a0.22,0.22,0,0,1-.23.37h0l-1-.56c-0.33-.18-0.75-0.36-1.21-0.59s-1-.44-1.61-0.67l-0.94-.34-1-.32c-0.7-.21-1.44-0.42-2.22-0.6a37.56,37.56,0,0,0-4.87-.84l-0.54,0a0.12,0.12,0,0,1,0,0c-0.33,2.21-.65,4.61-0.91,7.14,0,0.33-.06.68-0.1,1h0.31l1.41,0h0.43l0.41,0,0.84,0c0.57,0,1.15.12,1.74,0.18s1.19,0.21,1.78.31,1.18,0.29,1.75.45a15.69,15.69,0,0,1,1.66.57,16.24,16.24,0,0,1,1.5.65l0.68,0.33,0.62,0.36c0.39,0.23.75,0.44,1.05,0.64l0.75,0.55,0.64,0.5a0.23,0.23,0,0,1-.22.39l-0.76-.28-0.86-.34L154,234c-0.2-.07-0.4-0.14-0.63-0.21l-0.69-.18a14.6,14.6,0,0,0-1.48-.37c-0.52-.1-1-0.24-1.6-0.31s-1.1-.2-1.66-0.24-1.11-.14-1.66-0.16-1.09-.08-1.62-0.07h-1.47l-1.41.06-0.61,0C141,234,141,235.49,140.91,237c0,0.69-.05,1.35,0,2.08s0,1.44,0,2.16c0,0.32,0,.64,0,1a7.71,7.71,0,0,1,.91-0.14h0.44l0.42,0,0.89,0,0.94,0c0.32,0,.64.09,1,0.14a17.28,17.28,0,0,1,2,.36c0.67,0.17,1.36.32,2,.54s1.33,0.46,2,.7l1.83,0.85c0.58,0.3,1.12.63,1.64,0.92a13.42,13.42,0,0,1,1.41.93c0.42,0.31.83,0.57,1.14,0.85s0.59,0.5.8,0.71c0.45,0.4.69,0.64,0.69,0.64a0.23,0.23,0,0,1,.05.26,0.22,0.22,0,0,1-.3.11l-0.85-.4-1-.48c-0.37-.18-0.79-0.34-1.24-0.55s-0.93-.42-1.47-0.61-1.08-.43-1.66-0.61l-1.8-.56-1.88-.47a8.75,8.75,0,0,0-1-.19l-0.94-.18-0.46-.09-0.47,0-0.91-.11c-0.3,0-.59-0.07-0.88-0.09l-0.84,0-0.8,0h-0.72a7.08,7.08,0,0,1-.92-0.07c0,0.3,0,.59.06,0.89,0.06,0.71.12,1.43,0.18,2.15s0.17,1.43.26,2.15c0.15,1.44.45,2.86,0.71,4.29l0.1,0.54,0.13,0.53,0.25,1.05,0.25,1.06c0.08,0.35.17,0.7,0.28,1l0,0.11,0.37-.48a11.37,11.37,0,0,1,1.25-1.27,6.44,6.44,0,0,1,.69-0.56c0.24-.17.47-0.36,0.73-0.5l0.76-.44,0.79-.36a7.34,7.34,0,0,1,.81-0.3,7,7,0,0,1,.82-0.24c0.28-.06.55-0.14,0.83-0.19l0.83-.12c0.27,0,.57,0,0.85-0.07s0.58,0,.82,0l0.77,0h0.23l0.2,0,0.4,0a6.65,6.65,0,0,1,.8.12c0.26,0.06.53,0.09,0.79,0.16l0.78,0.21c0.26,0.07.5,0.17,0.76,0.26a7,7,0,0,1,.74.29l0.72,0.32a15.47,15.47,0,0,1,2.65,1.68,0.22,0.22,0,0,1,.07.28,0.23,0.23,0,0,1-.3.09h0c-0.45-.23-0.9-0.5-1.36-0.68a14.08,14.08,0,0,0-1.39-.52c-0.23-.07-0.48-0.13-0.71-0.2a6.48,6.48,0,0,0-.72-0.16c-0.25,0-.48-0.1-0.72-0.13l-0.73-.08c-0.24,0-.49,0-0.73,0a5.56,5.56,0,0,0-.72,0h-0.69l-0.76.09a5.25,5.25,0,0,0-.7.13,6.15,6.15,0,0,0-.66.16l-0.67.2-0.64.26a4.78,4.78,0,0,0-.62.29,4.87,4.87,0,0,0-.59.33l-0.56.37-0.51.41c-0.17.14-.31,0.31-0.47,0.45a3.92,3.92,0,0,0-.43.48,8.11,8.11,0,0,0-.75,1l-0.3.56c-0.11.18-.17,0.39-0.25,0.58l-0.12.29-0.09.31c-0.05.21-.14,0.4-0.18,0.61l-0.13.63c0,0.21-.05.43-0.08,0.64a3,3,0,0,0,0,.36l0.2,0.53,0.84,1.93,0.42,1c0.13,0.32.31,0.62,0.46,0.93l0.93,1.83c0.29,0.61.66,1.18,1,1.77l1,1.72c0.7,1.11,1.43,2.17,2.11,3.22s1.48,2,2.17,2.94c0.34,0.49.73,0.92,1.08,1.37l1,1.32c0.66,0.89,1.36,1.68,2,2.46s1.23,1.55,1.82,2.22,1.13,1.33,1.63,1.93,0.94,1.18,1.39,1.68c0.87,1,1.52,1.83,2,2.39s0.67,0.88.67,0.88a0.24,0.24,0,0,1,0,.24,0.23,0.23,0,0,1-.31.1l-1-.54c-0.62-.37-1.52-0.9-2.64-1.62-0.56-.35-1.15-0.8-1.81-1.29s-1.34-1-2.08-1.62c-0.38-.28-0.73-0.61-1.1-0.94s-0.75-.68-1.13-1c-0.77-.71-1.58-1.46-2.36-2.32s-1.62-1.72-2.4-2.69-1.58-2-2.38-3.06-1.55-2.21-2.32-3.38l-1.1-1.82c-0.37-.62-0.77-1.22-1.09-1.88l-1-2c-0.17-.33-0.36-0.66-0.51-1l-0.46-1-0.72-1.62h0l-0.31,0h-0.26l-0.74,0h-0.35l-0.29,0-0.59,0c-0.4,0-.84.14-1.27,0.2s-0.85.22-1.28,0.35-0.85.29-1.25,0.48l-0.62.29-0.31.14-0.3.17a13.33,13.33,0,0,0-1.18.72,12.28,12.28,0,0,0-1.14.82l-0.56.43-0.53.47-0.53.48-0.51.51c-0.34.33-.66,0.7-1,1.06s-0.61.74-.91,1.12-0.56.79-.85,1.18-0.52.82-.79,1.23-0.47.85-.71,1.28h0a0.22,0.22,0,0,1-.4-0.18c0.17-.47.33-0.94,0.51-1.41s0.38-.93.6-1.38,0.42-.92.68-1.35,0.48-.89.76-1.32,0.54-.87.85-1.27l0.45-.63c0.15-.21.32-0.4,0.48-0.6l0.49-.6,0.53-.57a15,15,0,0,1,1.11-1.1,15.7,15.7,0,0,1,1.2-1l0.31-.25,0.33-.23,0.67-.45c0.44-.3.93-0.54,1.4-0.82s1-.46,1.5-0.68,1-.37,1.6-0.52l0.87-.2,0.44-.09c0.15,0,.25,0,0.38-0.06H140c-0.35-1-.65-2.1-1-3.16-0.12-.37-0.21-0.75-0.3-1.13l-0.27-1.14c-0.17-.76-0.39-1.51-0.5-2.28-0.19-1.13-.4-2.26-0.55-3.4h-0.12l-1.39-.08h-0.72a7.66,7.66,0,0,0-.8,0c-0.55,0-1.13.11-1.73,0.19l-0.91.17c-0.31.06-.61,0.14-0.92,0.21s-0.62.17-.93,0.26-0.62.19-.93,0.3-0.62.21-.91,0.35-0.61.23-.9,0.38l-0.86.42-0.82.46c-0.52.33-1,.64-1.48,1a15.1,15.1,0,0,0-1.26,1c-0.34.36-.72,0.67-1,1s-0.52.56-.71,0.81c-0.37.5-.6,0.77-0.6,0.77a0.22,0.22,0,0,1-.24.08A0.22,0.22,0,0,1,120,258.6Z"/><path class="cls-1" d="M313.78,360.84a11.93,11.93,0,0,0,1.07,1.45c4.86,5.61,72.32,80.27,79.95,87.9s25.65-1.41,33.14-9.45,16.48-24.93,8.85-32.56-82.28-75-87.9-79.93a10.14,10.14,0,0,0-1.89-1.34c-0.57,4.58-3.72,11.33-13.18,20.79C324.92,356.61,318.39,360,313.78,360.84Z"/><path class="cls-1" d="M333.92,298.69A139.35,139.35,0,1,0,284.15,348c1.91,1.76,7.59,5.84,17.23,2.94,5.68-1.72,12.74-5.84,21.23-14.31s12.57-15.53,14.25-21.18C339.57,306.32,335.85,300.79,333.92,298.69ZM130.38,311.17c-46.13-46.17-46.13-121.25,0-167.38A118.35,118.35,0,1,1,130.38,311.17Z"/></svg>