<?xml version="1.0" encoding="utf-8"?>
<!-- Generator: Adobe Illustrator 19.2.1, SVG Export Plug-In . SVG Version: 6.00 Build 0)  -->
<svg version="1.1" id="Layer_1" xmlns="http://www.w3.org/2000/svg" xmlns:xlink="http://www.w3.org/1999/xlink" x="0px" y="0px"
	 viewBox="0 0 557.1 557.1" style="enable-background:new 0 0 557.1 557.1;" xml:space="preserve">
<style type="text/css">
	.st0{fill:#0065BD;}
	.st1{fill:url(#SVGID_1_);}
	.st2{fill:#FFFFFF;}
	.st3{fill:#004C84;}
</style>
<circle class="st0" cx="278.6" cy="278.6" r="278.6"/>
<linearGradient id="SVGID_1_" gradientUnits="userSpaceOnUse" x1="312.1995" y1="267.1198" x2="404.165" y2="520.6731">
	<stop  offset="0" style="stop-color:#0065BD"/>
	<stop  offset="1" style="stop-color:#004C84"/>
</linearGradient>
<path class="st1" d="M171,336.3L326.5,553c88.4-15.3,162.5-72.3,201.3-149.9L400,222.7L171,336.3z"/>
<title>sono</title>
<path class="st2" d="M449.9,246.9c8.7,0.2,17.3,2.9,24.5,7.7l0,0l0.4,0.2l0,0c2,1.1,3.9,2.1,3.4,5.6l0,0l-2.5,18.8v0.1v0.2v0.1
	c-0.2,1.2-0.8,2.3-1.6,3.2l0,0c-1.2,1.3-2.9,1.9-4.6,1.7h-0.1h-0.1h-0.1c-0.9-0.2-1.8-0.4-2.8-0.5v32.8c-0.2,9.6-8.2,17.2-17.8,17
	c-9.3-0.2-16.7-7.7-17-17v-32.8c-0.9,0.2-1.9,0.3-2.8,0.5h-0.1h-0.1h-0.2c-1.7,0.2-3.5-0.4-4.6-1.7c-0.8-0.9-1.4-2-1.6-3.2v-0.1
	v-0.2v-0.2l-2.5-18.8l0,0c-0.5-3.6,1.5-4.7,3.6-5.8l0,0l0.4-0.2l0,0c9.2-5.3,18-7.7,26.5-7.6l0,0L449.9,246.9z"/>
<path class="st2" d="M419.3,235.1c8.7-5.1,18.7-7.7,28.8-7.7c9.9,0,20.3,2.5,31.1,7.6l-3.4,7.2c-9.7-4.5-18.9-6.8-27.7-6.8
	c-8.7,0-17.3,2.3-24.9,6.7L419.3,235.1L419.3,235.1L419.3,235.1z"/>
<path class="st2" d="M413.8,216.8c10.3-6,22.1-9.1,34-9.1c11.8,0,24.1,3,36.9,9l-3.4,7.2c-11.7-5.5-22.8-8.2-33.5-8.2
	c-10.6,0-21,2.8-30.1,8.1L413.8,216.8L413.8,216.8L413.8,216.8z"/>
<path class="st2" d="M451.3,332.7c-0.5,9.6,2.1,22.8,4.7,36.6s5.5,28.7,5.7,41.8c0.2,22.8-7.4,40.2-36,40.5
	c-20.2,0.2-28.8-14.6-39.5-33c-15.6-26.9-36.1-62.1-108.8-61.7v-8c77.4-0.4,99.1,37,115.8,65.7c9.4,16.1,17,29.2,32.5,29
	c22.4-0.2,28.3-14.2,28.1-32.5c-0.1-12.3-2.9-26.6-5.5-40.4c-2.8-14.3-5.4-28-4.9-38.5L451.3,332.7L451.3,332.7L451.3,332.7z"/>
<path class="st2" d="M395.7,141c3.1,0,5.6,2.5,5.6,5.6v186.3c0,3.1-2.5,5.6-5.6,5.6H275.5v36.2h48.4v8H163.1v-8h48.3v-36.2H91.3
	c-3.1,0-5.6-2.5-5.6-5.6V146.6c0-3.1,2.5-5.6,5.6-5.6H395.7z M96.9,152.2h293.3v175.1H96.9V152.2L96.9,152.2z"/>
<rect x="96.9" y="152.2" class="st3" width="293.3" height="175.1"/>
<path class="st2" d="M210.8,319.5c-2.1,0-4.3-0.3-6.4-0.8c-6.9-2-14.8-4.6-19.9-10.7c-4.8-5.7-5.9-15.1-6-21.9s2.5-13.9,7.8-21.3
	c7.6-10.6,18.2-17.9,28.5-25c2.6-1.8,5.2-3.6,7.8-5.4c6.7-4.8,12.1-9,16-15.3c2-2.9,4.7-5.2,7.9-6.7c1.4-0.8,3-1.2,4.7-1.2
	c1.8,0.1,3.5,0.4,5.2,0.9c0,0.1,0.1,0.2,0.2,0.3c0.7,0.4,1.3,0.8,1.9,1.2l0.2,0.1c0.4,0.3,0.8,0.6,1.3,1l0,0l0.4,0.4l0.1,0.1
	c0.2,0.2,0.4,0.5,0.6,0.8l0.2,0.3l0.1,0.1l0.1,0.1l0.1,0.2c0.1,0.1,0.1,0.2,0.2,0.3c0.1,0.2,0.2,0.4,0.3,0.5v0.1l0.2,0.6
	c0.5,1.2,0.7,2.5,0.8,3.9c0,0.3,0.1,0.5,0.1,0.7c0,0.5,0.1,1,0.2,1.5v0.1c0.1,0.2,0.3,0.4,0.5,0.4c0.2,0,0.4-0.1,0.5-0.3
	c0,0,0.1-0.1,0.1-0.1c0.2-0.5,0.3-1,0.5-1.5l0.1-0.3c0-0.2,0.1-0.5,0.1-0.8c0.1-0.8,0.2-1.6,0.1-2.4V219c-0.1-0.8-0.3-1.6-0.5-2.4
	l-0.1-0.1c-0.1-0.2-0.2-0.4-0.3-0.7c-0.2-0.5-0.6-1-0.9-1.5c-0.3-0.4-0.7-0.9-1.1-1.2l-0.6-0.4h-0.1l-0.5-0.3l-0.1-0.1
	c-0.8-0.4-1.6-0.7-2.5-0.8h-0.2c0.5-0.5,0.9-1,1.3-1.4c1.9-2.1,3.5-3.9,6.8-4.4c0.6-0.1,1.2-0.1,1.8-0.1c2.8,0.1,5.6,0.7,8.2,1.6
	l1.7,0.5h0.1c0.1,0,0.3-0.1,0.3-0.2c0.5-1.3,0.1-3.3-0.3-5c-0.1-0.6-0.2-1.1-0.3-1.5s-0.1-0.6-0.1-0.9c-0.3-2.2-0.6-4.5-1.9-6.4
	c-2.6-3.6-7-6.3-10.3-7.9c-2.1-1-4.3-1.8-6.6-2.4c-0.3-0.1-0.7-0.1-1.1-0.1c-1.6,0-2.7,1.1-3.6,2.4l-1.1,1.4c-2.3,3-4.7,6.1-8,7.9
	s-6.8,1.9-10.5,1.9h-1.2c-0.6,0.1-1.1,0-1.6-0.4c-0.3-0.3-0.2-1,0-2.1c0.2-0.9,0.4-1.6,1.1-1.7c0.3-0.1,0.7-0.1,1-0.1
	c0.5,0,1.1,0.1,1.6,0.1s1.2,0.1,1.7,0.1c0.3,0,0.6,0,0.9-0.1c1.7-0.2,3.3-0.8,4.8-1.7c3.1-1.9,5.2-4.9,7.2-7.8l0.4-0.6
	c0.1-0.2,0.1-0.4-0.1-0.5c0,0,0,0-0.1,0l-9.6-5c-0.1-0.1-0.2-0.1-0.4,0c-1.1,0.7-5.8,2.7-8.5,2.7c-0.5,0.1-1.1-0.1-1.5-0.4
	c-0.2-0.2-0.3-0.6-0.3-0.9c0.1-1.6,0.3-1.7,1.8-1.7h0.3c2.4,0,4.7-0.9,6.4-2.7c0.1-0.1,0.1-0.2,0.1-0.3c0-0.1,0-0.2-0.1-0.3l-8-7
	l0.9-0.7c1.1-0.9,2.3-1.8,3.5-2.6c0.1-0.1,0.2-0.1,0.4-0.1c0.8,0,1.9,1.2,2.6,1.9c0.2,0.2,0.4,0.4,0.5,0.5c1.4,1.2,2.7,2.5,4,3.7
	c1.5,1.4,3.1,3,4.7,4.3c4.1,3.4,9.7,4.1,15.1,4.8c1.4,0.2,2.8,0.3,4.1,0.6h0.1c0.1,0,0.3-0.1,0.3-0.2c1.8-4.8,3.5-8.6,7.5-11.7
	c0.5-0.4,1.1-0.8,1.6-1.2c1.4-1,2.8-2.1,4-3.3c0.2-0.2,0.4-0.2,0.6-0.2c1.2,0.2,2.3,0.6,3.3,1.2l0.6,0.3c-1.2,2.6-3.3,4.7-6,5.9
	c-2.5,1.3-4.5,3.3-5.6,5.9c-1.2,2.5-2.1,5.1,0.5,7.2c2.5,2,4.8,4.3,6.9,6.8c0.4,0.4,0.7,0.9,1.1,1.5c1.1,1.6,2.4,3.5,4.3,3.5
	c0.6,0,1.3-0.2,1.8-0.5c0.9-0.5,1.8-1.1,2.7-1.7c0.6-0.4,1.3-0.9,1.9-1.3c0.3-0.2,0.6-0.4,1-0.6c1.1-0.5,2-1.2,2.9-2.1
	c1.4-1.8,2.4-3.9,3.1-6.1c0.4-1.2,0.9-2.3,1.4-3.4c1.4-2.4,3.5-4.3,6.2-5.3l1,2.4c-4.4,2.1-6.2,6.1-7.4,10.1c-0.1,0.2,0,0.4,0.2,0.4
	c0,0,0.1,0,0.1,0h0.1l3.6-1.1c2.9-0.9,6-1.9,9-2.6c0.3-0.1,0.7-0.1,1.1-0.1c1.4-0.1,2.7,0.9,3,2.3c0.5,2.6-1.6,3.3-4.5,4l-0.8,0.2
	c-3.1,0.7-6.2,1.6-9.1,2.8l-1,0.4c-2.3,0.9-5.2,2.1-6.7,3.9c-0.1,0.1-0.1,0.3,0,0.4c3.2,3.6,8.9,5.7,12.9,6.4
	c1.4,0.3,2.9,0.4,4.4,0.4c1.2,0,2.3-0.1,3.5-0.2l0,0c0.3,0,0.5,0.3,0.6,0.5c0.3,1,0.3,2.1-0.1,3c-0.8,0.7-2.7,0.8-4,0.8
	c-0.6,0-1.1,0-1.6,0h-1.2h-1.1c-2.1,0.1-4.2-0.2-6.2-0.9c-3-1.1-5.6-3.1-8-5.1c-0.8-0.6-1.6-1.3-2.5-1.9c-0.1,0-0.1-0.1-0.2-0.1
	c-0.1,0-0.2,0-0.2,0.1c-3.4,3.3-5.1,8-4.7,12.7c0.3,3,1.1,6,2.4,8.8c0.7,1.8,1.3,3.5,1.8,5.4c1.3,5.3,1.8,10.7,1.6,16.1
	c0,0.8,0,1.8,0,2.7c0.1,3.5,0.2,7.9-1.7,10.3c-1,1.2-2.5,2-4.1,2c-1.8,0-3.4-1-4.1-2.6c-0.6-1.7-0.9-3.5-0.7-5.3c0-0.5,0-1,0-1.4
	c-0.1-2.6-0.2-5-0.4-7.3c-0.1-0.7-0.1-1.4-0.2-2.1c-0.3-4.3-0.9-8.6-2-12.8c-1.1-3.7-3.9-6.5-8.1-8.1h-0.1c-0.2,0-0.3,0.1-0.4,0.3
	c-0.2,1-0.3,2-0.5,3.1c-0.6,3.7-1.1,7.6-3.2,10.6c-2.7,4-6.5,4.6-10.9,5.2l0.1-0.1c0.3-0.3,0.5-0.5,0.7-0.8c0.1-0.1,0.2-0.3,0.4-0.5
	v-0.1c0.2-0.3,0.3-0.6,0.5-1c0.1-0.4,0.3-0.8,0.4-1.2v-0.3c0-0.2,0.1-0.4,0.1-0.6v-0.9c0-1.2-0.4-2.4-0.9-3.5l-0.1-0.2
	c-0.1-0.2-0.2-0.3-0.3-0.5c-0.4-0.6-0.9-1.2-1.4-1.8c-0.3-0.4-0.6-0.6-1-0.9c-0.7-0.6-1.4-1.1-2.2-1.5c-0.1,0-0.2-0.1-0.3-0.1
	c-0.3,0-0.6,0.3-0.6,0.6c0,0,0,0,0,0.1c0,0,0,0.1,0,0.1c0.5,1.2,1,2.3,1.6,3.4l0.6,1.1l0.3,0.6l0.1,0.3c0.2,0.5,0.4,0.9,0.5,1.4
	c0.1,0.4,0.2,0.8,0.3,1.2c0,0.2,0,0.4,0.1,0.6v0.6c0,0.4,0,0.7-0.1,1.1c0,0.2-0.1,0.4-0.1,0.6c-0.2,0.8-0.5,1.7-0.8,2.6l-0.1,0.2
	c0,0.2,0,0.3,0.1,0.5c-1.2,3.6-2.2,7.3-3,11.1l-0.2,1c-0.6,3.1-1.4,6.5-0.9,9.7c0.1,0.7,0.2,1.4,0.3,2.1c0.6,3.1,0.8,6.2,0.8,9.3
	c0,0.9-0.1,1.8-0.1,2.7c0,2.7-0.2,5.3-0.5,8c-2.2,16.7-16,28-23.9,33.2C221.8,318,216.3,319.5,210.8,319.5z"/>
</svg>
