<svg id="Layer_1" data-name="Layer 1" xmlns="http://www.w3.org/2000/svg" viewBox="0 0 557.14 557.14"><defs><style>.cls-1{fill:#0065bd;}.cls-2{fill:#004c84;}.cls-3{fill:#fff;}</style></defs><title>sono3</title><circle class="cls-1" cx="278.57" cy="278.57" r="278.57"/><path class="cls-2" d="M171,336.33L326.47,553c88.38-15.32,162.47-72.28,201.34-149.95L400,222.67Z"/><path class="cls-3" d="M449.93,246.91a46,46,0,0,1,24.53,7.72h0l0.4,0.22h0c2,1.07,3.87,2.09,3.41,5.63h0l-2.48,18.78v0.48a6.84,6.84,0,0,1-1.63,3.24h0a5.23,5.23,0,0,1-4.64,1.7h-0.36q-1.36-.28-2.82-0.54V316.9a17.38,17.38,0,0,1-34.75,0V284.1q-1.39.25-2.81,0.55h-0.39a5.23,5.23,0,0,1-4.62-1.7,6.87,6.87,0,0,1-1.65-3.2v-0.53l-2.48-18.78h0c-0.47-3.65,1.53-4.69,3.6-5.76h0l0.35-.19h0c9.17-5.26,18-7.71,26.53-7.62h0Z"/><path class="cls-3" d="M419.34,235.07a57.63,57.63,0,0,1,28.75-7.74q14.9,0,31.08,7.59l-3.37,7.22q-14.51-6.81-27.71-6.81A49.81,49.81,0,0,0,423.24,242l-3.9-6.94h0Z"/><path class="cls-3" d="M413.82,216.8a68.17,68.17,0,0,1,34-9.15q17.66,0,36.86,9l-3.37,7.22q-17.53-8.23-33.48-8.23a60.33,60.33,0,0,0-30.11,8.09l-3.9-6.94h0Z"/><path class="cls-3" d="M451.29,332.73c-0.47,9.56,2.07,22.76,4.73,36.63s5.52,28.69,5.66,41.81c0.24,22.77-7.35,40.19-36,40.49-20.21.21-28.83-14.63-39.49-33C370.56,391.79,350.1,356.6,277.37,357v-8c77.35-.4,99.12,37,115.75,65.68,9.37,16.12,17,29.16,32.52,29,22.37-.23,28.28-14.21,28.1-32.46-0.13-12.26-2.9-26.65-5.53-40.37-2.75-14.33-5.38-28-4.86-38.51l8,0.38h-0.06Z"/><path class="cls-3" d="M395.71,141a5.61,5.61,0,0,1,5.6,5.6V332.9a5.61,5.61,0,0,1-5.6,5.59H275.5v36.17h48.35v8H163.14v-8h48.34V338.49H91.26a5.61,5.61,0,0,1-5.6-5.59V146.6a5.61,5.61,0,0,1,5.6-5.6H395.71ZM96.86,152.19H390.12v175.1H96.86V152.19h0Z"/><rect class="cls-1" x="96.86" y="152.19" width="293.26" height="175.1"/><path class="cls-3" d="M210.75,319.47a23.33,23.33,0,0,1-6.36-.83c-6.95-2-14.79-4.59-19.89-10.66-4.82-5.73-5.9-15.09-6-21.92s2.49-13.94,7.8-21.3c7.6-10.55,18.23-17.89,28.52-25,2.56-1.77,5.2-3.59,7.76-5.45,6.66-4.81,12.07-9,16-15.26a19.33,19.33,0,0,1,7.9-6.73,10.06,10.06,0,0,1,4.67-1.18,21.93,21.93,0,0,1,5.19.87,0.61,0.61,0,0,0,.22.27c0.66,0.4,1.29.8,1.93,1.2l0.16,0.1c0.39,0.29.8,0.62,1.28,1h0l0.38,0.39,0.12,0.14a6.48,6.48,0,0,1,.6.77l0.2,0.28,0.07,0.13,0.07,0.12,0.13,0.21a1.69,1.69,0,0,1,.16.3l0.25,0.54v0.08l0.21,0.59A13.85,13.85,0,0,1,263,222a5.82,5.82,0,0,0,.09.73,9.91,9.91,0,0,0,.18,1.49v0.1a0.58,0.58,0,0,0,.54.42,0.72,0.72,0,0,0,.52-0.26,0.36,0.36,0,0,0,.08-0.13,13.93,13.93,0,0,0,.46-1.51l0.06-.32a5.92,5.92,0,0,1,.13-0.75,10.32,10.32,0,0,0,.1-2.42V219a14.31,14.31,0,0,0-.52-2.44l-0.06-.15c-0.09-.22-0.18-0.44-0.28-0.66a8.37,8.37,0,0,0-.91-1.52A7.6,7.6,0,0,0,262.3,213l-0.58-.45h-0.06l-0.54-.32-0.14-.08a6.25,6.25,0,0,0-2.45-.82h-0.21c0.47-.49.91-1,1.34-1.45,1.88-2.09,3.5-3.9,6.81-4.35a13.11,13.11,0,0,1,1.75-.12,28.8,28.8,0,0,1,8.22,1.65l1.7,0.51h0.1a0.36,0.36,0,0,0,.33-0.22c0.51-1.27.11-3.25-.25-5-0.11-.56-0.22-1.09-0.28-1.52s-0.08-.56-0.11-0.85c-0.28-2.22-.57-4.51-1.88-6.36-2.57-3.62-7-6.3-10.26-7.9a33.31,33.31,0,0,0-6.56-2.4,4.37,4.37,0,0,0-1.06-.14c-1.65,0-2.67,1.13-3.65,2.38l-1.07,1.38c-2.29,3-4.67,6.06-8,7.89s-6.82,1.86-10.5,1.87h-1.22a2.22,2.22,0,0,1-1.62-.37c-0.26-.31-0.19-1,0-2.09,0.17-.92.35-1.59,1.07-1.71a6.3,6.3,0,0,1,1-.08c0.54,0,1.08.05,1.65,0.1s1.16,0.11,1.74.11a7.57,7.57,0,0,0,.93-0.05,12.08,12.08,0,0,0,4.81-1.67c3.12-1.89,5.18-4.89,7.18-7.79l0.41-.6a0.35,0.35,0,0,0-.08-0.49l-0.05,0-9.65-5a0.36,0.36,0,0,0-.35,0c-1.12.7-5.77,2.71-8.46,2.71a2.07,2.07,0,0,1-1.51-.43,1.11,1.11,0,0,1-.26-0.87c0.08-1.63.28-1.73,1.77-1.73h0.28A8.66,8.66,0,0,0,239,174a0.36,0.36,0,0,0,.1-0.26,0.35,0.35,0,0,0-.12-0.25l-8-7,0.92-.71c1.14-.88,2.31-1.8,3.52-2.6a0.63,0.63,0,0,1,.35-0.1c0.8,0,1.95,1.17,2.63,1.86,0.21,0.22.4,0.4,0.53,0.52,1.36,1.19,2.7,2.48,4,3.72,1.51,1.45,3.07,3,4.69,4.33,4.07,3.45,9.68,4.13,15.11,4.79,1.42,0.17,2.77.34,4.07,0.55h0.06a0.35,0.35,0,0,0,.33-0.23c1.81-4.75,3.51-8.62,7.55-11.68,0.55-.42,1.09-0.8,1.61-1.18a27.74,27.74,0,0,0,4-3.3,0.86,0.86,0,0,1,.65-0.22,9.1,9.1,0,0,1,3.32,1.23l0.62,0.31a11.67,11.67,0,0,1-6,5.87,12.11,12.11,0,0,0-5.63,5.88c-1.16,2.5-2.08,5.12.48,7.19a49.24,49.24,0,0,1,6.91,6.75c0.35,0.43.7,0.93,1.06,1.47,1.1,1.62,2.36,3.46,4.26,3.46a3.76,3.76,0,0,0,1.81-.52c0.92-.51,1.8-1.12,2.66-1.71,0.63-.44,1.28-0.89,1.93-1.28,0.31-.19.63-0.37,1-0.56a11.1,11.1,0,0,0,2.9-2.05,19.19,19.19,0,0,0,3.12-6.06,32.87,32.87,0,0,1,1.44-3.44,11.57,11.57,0,0,1,6.17-5.25l1,2.35c-4.44,2.11-6.17,6.07-7.38,10.06a0.35,0.35,0,0,0,.22.44l0.12,0h0.1l3.61-1.12c2.94-.92,6-1.87,9-2.63a4.44,4.44,0,0,1,1.07-.14,2.88,2.88,0,0,1,3,2.33c0.5,2.59-1.56,3.27-4.52,4l-0.78.18a66.38,66.38,0,0,0-9.12,2.8l-1,.4c-2.32.91-5.22,2.05-6.66,3.9a0.35,0.35,0,0,0,0,.45c3.18,3.6,8.91,5.72,12.85,6.44a24.32,24.32,0,0,0,4.35.38,29.42,29.42,0,0,0,3.45-.21h0a0.69,0.69,0,0,1,.57.54,4,4,0,0,1-.15,3c-0.82.74-2.67,0.83-4,.83h-4a18.62,18.62,0,0,1-6.24-.89c-3-1.06-5.57-3.1-8-5.07-0.8-.65-1.63-1.31-2.47-1.94a0.35,0.35,0,0,0-.21-0.07,0.36,0.36,0,0,0-.24.09,16.11,16.11,0,0,0-4.72,12.7,30.46,30.46,0,0,0,2.38,8.84,48.78,48.78,0,0,1,1.81,5.37,59.07,59.07,0,0,1,1.62,16.11v2.74c0.09,3.5.2,7.86-1.74,10.27a5.29,5.29,0,0,1-4.07,2,4.39,4.39,0,0,1-4.07-2.62,12.53,12.53,0,0,1-.71-5.33V248.3c-0.06-2.57-.2-5-0.44-7.31-0.07-.68-0.14-1.37-0.2-2.06a69.21,69.21,0,0,0-2-12.84c-1.1-3.72-3.9-6.51-8.11-8.09h-0.13a0.36,0.36,0,0,0-.35.29c-0.19,1-.34,2-0.5,3.13-0.56,3.74-1.13,7.61-3.16,10.6-2.67,4-6.47,4.62-10.87,5.19l0.12-.13a6,6,0,0,0,.69-0.83c0.11-.15.23-0.33,0.35-0.51v-0.05a10.31,10.31,0,0,0,.49-1,12,12,0,0,0,.37-1.21v-0.26c0-.21.08-0.42,0.1-0.63V231.7a8,8,0,0,0-.93-3.51l-0.11-.22-0.27-.5a18.92,18.92,0,0,0-1.38-1.82,9.38,9.38,0,0,0-1-.92,12.5,12.5,0,0,0-2.24-1.53,0.81,0.81,0,0,0-.29-0.06,0.61,0.61,0,0,0-.59.63s0,0,0,.05a0.33,0.33,0,0,0,0,.14,29.44,29.44,0,0,0,1.63,3.4l0.55,1.12,0.28,0.58,0.13,0.31a8.78,8.78,0,0,1,.52,1.42,9.09,9.09,0,0,1,.26,1.17,1.82,1.82,0,0,0,.06.55v0.56a8.52,8.52,0,0,1-.1,1.08c0,0.18-.07.36-0.09,0.55-0.23.84-.51,1.72-0.77,2.58l-0.08.24a0.69,0.69,0,0,0,.07.5,86,86,0,0,0-3,11.07l-0.2,1c-0.63,3.07-1.35,6.55-.9,9.72,0.1,0.72.21,1.42,0.31,2.12a49,49,0,0,1,.78,9.27c0,0.9-.06,1.8-0.08,2.7a75.11,75.11,0,0,1-.48,8c-2.22,16.72-16,28-23.94,33.19A30.39,30.39,0,0,1,210.75,319.47Z"/></svg>