<svg id="Layer_1" data-name="Layer 1" xmlns="http://www.w3.org/2000/svg" viewBox="0 0 557.14 557.14"><defs><style>.cls-1{fill:#fff;}.cls-2{fill:#0065bd;}</style></defs><title>kolono-white</title><circle class="cls-1" cx="278.57" cy="278.57" r="278.57"/><path class="cls-2" d="M428.45,127.19a61.3,61.3,0,0,0-9,8.68,113.56,113.56,0,0,0-7,9.15,4.39,4.39,0,0,0-.25-0.43,8.09,8.09,0,0,0-.58-0.84c-0.22-.27-0.41-0.56-0.64-0.81a15.86,15.86,0,0,0-1.45-1.47,17.9,17.9,0,0,0-1.57-1.26,18.61,18.61,0,0,0-1.6-1,16.75,16.75,0,0,0-1.55-.85c-0.55-.27-1-0.46-1.43-0.65-0.89-.38-1.65-0.64-2.18-0.81s-0.85-.25-0.85-0.25a0.45,0.45,0,0,0-.55.32,0.44,0.44,0,0,0,.12.44h0s0.23,0.22.65,0.59l1.68,1.5c0.69,0.61,1.47,1.34,2.27,2.11,0.4,0.38.8,0.79,1.19,1.21s0.78,0.84,1.12,1.28,0.69,0.88,1,1.32a14.57,14.57,0,0,1,.79,1.31c0.1,0.22.23,0.42,0.32,0.63l0.25,0.62c0.15,0.4.24,0.8,0.34,1.12v0.24c-2.15,3.32-4.27,6.8-6.41,10.41-2.71,4.57-5.47,9.33-8.35,14.21l-0.09-.16a14.81,14.81,0,0,0-1.1-1.51,17.14,17.14,0,0,0-1.25-1.33,16.25,16.25,0,0,0-1.32-1.14,15.26,15.26,0,0,0-1.33-.92c-0.42-.28-0.86-0.5-1.25-0.71a9.49,9.49,0,0,0-1.1-.51c-0.34-.13-0.63-0.25-0.89-0.32-0.5-.15-0.79-0.21-0.79-0.21a0.46,0.46,0,0,0-.45.74h0l0.51,0.58L387,170a40.51,40.51,0,0,1,3.38,4.62c0.24,0.43.51,0.85,0.71,1.28a10.9,10.9,0,0,1,.55,1.23c0.08,0.19.15,0.39,0.22,0.58s0.1,0.37.15,0.54a1,1,0,0,1,0,.23c-2,3.23-4,6.49-6.09,9.76-3.18,4.89-6.57,9.81-10.3,14.58q-3.37,4.34-7.12,8.5c-3.75,4.16,0-.07,0-0.11-0.13-.67-0.28-1.34-0.41-2a19.8,19.8,0,0,0-.61-2,17.27,17.27,0,0,0-.8-1.84,15.19,15.19,0,0,0-1-1.62c-0.17-.25-0.31-0.5-0.48-0.71l-0.53-.62a11.25,11.25,0,0,0-.94-1l-0.82-.7c-0.46-.38-0.73-0.57-0.73-0.57a0.44,0.44,0,0,0-.62.09h0a0.44,0.44,0,0,0-.06.44v0.05s0.13,0.31.36,0.81l0.43,0.89c0.16,0.34.3,0.75,0.47,1.17a12.13,12.13,0,0,1,.49,1.38c0.13,0.5.34,1,.44,1.55s0.27,1.1.37,1.67,0.18,1.16.28,1.75,0.13,1.18.19,1.76,0.06,1.14.1,1.68,0,1.17.06,1.71v0.22c-0.44.44-.86,0.9-1.3,1.34a105,105,0,0,1-14.47,12,92.85,92.85,0,0,1-16.83,9.05,94.61,94.61,0,0,1-22.49,6.08c0.17-.51.32-1,0.49-1.59,0.24-.77.41-1.61,0.61-2.44s0.3-1.71.44-2.58a16.39,16.39,0,0,0,.16-2.68v-1.89a4.52,4.52,0,0,0-.08-0.63,16.74,16.74,0,0,0-.4-2.36,14.08,14.08,0,0,0-.61-2.06q-0.36-.95-0.69-1.68a9.24,9.24,0,0,0-.65-1.15l-0.6-1a0.44,0.44,0,0,0-.81.33s0.09,0.41.24,1.13c0.09,0.36.19,0.79,0.3,1.28s0.13,1,.21,1.59a17.18,17.18,0,0,1,.13,1.89,14,14,0,0,1,0,2.11v0.55h0v0.48a10.2,10.2,0,0,1-.14,1.21c-0.09.81-.3,1.49-0.42,2.24a21.07,21.07,0,0,1-.59,2.27c-0.21.75-.43,1.48-0.69,2.18s-0.46,1.39-.73,2l-0.48,1.27q-5.67.6-11.4,0.65h-7.62l-2.5-.09c-3.32-.1-6.7-0.31-10-0.57-5.21-.42-10.38-1-15.46-1.9v-0.07L259,241.1a20.71,20.71,0,0,0,1-2.47,13.11,13.11,0,0,0,.4-1.3c0.12-.44.24-0.88,0.33-1.32,0.21-.88.32-1.78,0.44-2.65a18.76,18.76,0,0,0,.17-2.56v-2.39a18.1,18.1,0,0,0-.18-2.1v-0.47a1.19,1.19,0,0,0-.07-0.49,4.85,4.85,0,0,1-.15-0.82c-0.1-.51-0.17-1-0.25-1.33-0.15-.74-0.25-1.16-0.25-1.16a0.46,0.46,0,0,0-.54-0.33,0.45,0.45,0,0,0-.34.36s-0.07.43-.17,1.17c-0.06.37-.1,0.82-0.16,1.34l-0.1.82a3.75,3.75,0,0,1,0,.4,1.22,1.22,0,0,1-.06.46,7.49,7.49,0,0,1-.14,1c0,0.35-.12.67-0.17,1-0.11.69-.24,1.43-0.4,2.17s-0.33,1.51-.53,2.28-0.43,1.53-.68,2.28-0.52,1.49-.83,2.19-0.64,1.36-1,2l-0.52.91-0.54.84-0.39.54A124.53,124.53,0,0,1,218,229a106.52,106.52,0,0,1-12.38-8,13.4,13.4,0,0,0,1.22-.68c0.4-.25.91-0.52,1.35-0.82a30.77,30.77,0,0,0,2.62-2,31.41,31.41,0,0,0,2.45-2.32c0.73-.86,1.48-1.7,2.12-2.61a25.52,25.52,0,0,0,1.77-2.71,29.18,29.18,0,0,0,1.33-2.7l0.51-1.29c0.15-.42.27-0.84,0.4-1.23s0.25-.77.34-1.14,0.15-.73.23-1.06a11.64,11.64,0,0,0,.28-1.7c0.1-.93.15-1.46,0.15-1.46a0.45,0.45,0,0,0-.85-0.21L219,200.44a14.63,14.63,0,0,1-.68,1.5,15.12,15.12,0,0,1-1,1.85c-0.19.33-.37,0.69-0.59,1L216,205.86a24.08,24.08,0,0,1-1.57,2.23,21.57,21.57,0,0,1-1.89,2.2c-0.69.71-1.4,1.4-2.12,2.08a18.09,18.09,0,0,1-2.29,1.84,28.24,28.24,0,0,1-2.35,1.58c-0.39.24-.79,0.44-1.18,0.66a10.38,10.38,0,0,1-1.15.58l-1.1.51c-0.27.13-.54,0.22-0.8,0.32A116.59,116.59,0,0,1,190.09,207c-7.82-8.37-14.22-17.34-20.13-25.78l-2.19-3.14c0.16-.15.32-0.29,0.48-0.46l0.59-.59a8.1,8.1,0,0,1,.69-0.57l0.74-.59a5.17,5.17,0,0,1,.78-0.6c0.56-.36,1.12-0.78,1.73-1.14l1.9-1c0.67-.26,1.34-0.56,2-0.84s1.3-.41,1.93-0.62,1.46-.28,2.14-0.43l0.26-.05h0.58l0.86-.09A12.57,12.57,0,0,1,184,171h2.44a0.46,0.46,0,0,0,.43-0.48,0.47,0.47,0,0,0-.26-0.39l-1-.46c-0.33-.15-0.74-0.31-1.2-0.49a9.1,9.1,0,0,0-1.69-.46l-1-.21-0.55-.11H180.5c-0.71,0-1.42-.12-2.21-0.13a23.76,23.76,0,0,0-2.65.23,18.85,18.85,0,0,0-2.6.59,24.26,24.26,0,0,0-2.51.92,18.5,18.5,0,0,0-2.3,1.2,17.74,17.74,0,0,0-2,1.36,12.21,12.21,0,0,0-1.59,1.32c-1.11-1.58-2.22-3.14-3.33-4.64q-3.43-4.68-6.89-8.84a11.06,11.06,0,0,1,.31-1.47,12.77,12.77,0,0,1,1.69-3.81,7.74,7.74,0,0,1,.64-0.92l0.33-.46,0.38-.43a16.46,16.46,0,0,1,1.61-1.64l0.89-.72c0.31-.21.62-0.41,0.92-0.63s0.63-.38.93-0.57a7.14,7.14,0,0,1,.94-0.48c0.31-.13.61-0.31,0.91-0.42l0.89-.34c0.57-.21,1.12-0.33,1.6-0.49l1.28-.26a8.4,8.4,0,0,1,.85-0.13h0.31a0.45,0.45,0,0,0,.38-0.51,0.46,0.46,0,0,0-.35-0.37l-0.31-.06a7.7,7.7,0,0,0-.9-0.15c-0.4,0-.88-0.08-1.43-0.11a16.15,16.15,0,0,0-1.88.09,14,14,0,0,0-2.22.41,9.22,9.22,0,0,0-1.18.36c-0.39.15-.81,0.28-1.22,0.47s-0.79.39-1.21,0.6l-1.18.73a14.86,14.86,0,0,0-2.23,1.78l-0.53.5-0.48.54a11,11,0,0,0-.9,1.12c-0.27.4-.57,0.77-0.79,1.18l-0.67,1.23c-0.19.46-.39,0.9-0.56,1.35a76.45,76.45,0,0,0-15.57-13.49,45.24,45.24,0,0,0-4.84-2.73,43.84,43.84,0,0,1,17.7-7.71c10.26-2.22,18.36,2.42,26.24,7.7A92.09,92.09,0,0,1,184,148c5.27,4.64,8.51,10.38,8.81,17.5,0.13,3,1.4,4.36,4.33,5.2,11.81,3.38,20.09,10.83,24.68,22.28a0.9,0.9,0,0,0,.08.21c0.5,1.31.64,3.12,1.59,3.78s2.72,0,4.06.2c3.92,0.71,8,1.12,11.66,2.51a47.46,47.46,0,0,1,16,9.52,40.14,40.14,0,0,1,5,6.31c0.83,1.18,1.41,1.92,2.87.84,8.3-6.17,17.89-7,27.64-5.9,3.87,0.43,7.59,2.46,11.3,4,2.49,1,4.82,2.38,7.35,3.65,13.54-14.92,29.34-24.77,50.66-22.76a32.58,32.58,0,0,1,.37-3.64c2.49-11.3,7.46-20.88,18.32-26.41,0.48-.25.71-1.48,0.64-2.21-0.69-7-1.06-13.89,2.38-20.34a21.52,21.52,0,0,1,8-8.08,8.27,8.27,0,0,0,3.27-4.13,34.92,34.92,0,0,1,7.53-12.64c3.11-3.46,7.38-5.14,11.75-6.07,6.82-1.44,13.58-.9,19.75,2.7a31.15,31.15,0,0,1,8,6.57c-0.73.19-1.44,0.46-2.18,0.72A36.92,36.92,0,0,0,428.45,127.19Z"/><path class="cls-2" d="M89.82,340.68a5.43,5.43,0,0,1,.35,3.17c-3.06,9.22-2.54,18.11,2.36,26.57a70.8,70.8,0,0,0,5.62,8.2A6,6,0,0,1,99.53,383a32.76,32.76,0,0,0,5.16,20.59c5.47,8.21,12.08,15.69,20.53,21.1a43.08,43.08,0,0,0,20.27,6.51c3.84,0.29,7.72.09,11.57,0a41,41,0,0,0,4.37-.4c7.54-.92,14.43-3.85,21.25-7,2-.93,4.26-2.78,6-2.42,2.07,0.42,3.86,2.68,5.54,4.37,4.06,4.07,8.55,7.74,10.43,13.62,1.71,5.34,3.94,10.54,6.16,15.71s4.6,6,9.8,4.48c2.09-.6,2.94-1.86,3-4.07,0.08-4.55-2.37-7.92-5-11.19a56.73,56.73,0,0,1-10.25-19.56,53,53,0,0,0-10.47-20.1,5.46,5.46,0,0,1-1.38-2.81,18.22,18.22,0,0,1,1.6-9.7,122.63,122.63,0,0,0,6.43-14.61c2.58-7.74,2.39-15.75,1.4-23.84a33.93,33.93,0,0,0-11.11-21.27,92,92,0,0,0-7.71-5.85c-0.87-.66-1.79-1.17-0.92-2.58,2.79-4.46,2.45-9.49,1.47-14.18A30.44,30.44,0,0,0,178,292.61a2.35,2.35,0,0,1-.45-2.08c1.91-5.45,2.36-10.8-.53-16.09a2.56,2.56,0,0,1-.11-2.06c1.18-2.32,2.53-4.54,3.87-6.89a1.11,1.11,0,0,1,.43.13c0.59,0.36,1.17.74,1.75,1.14a42,42,0,0,0,25.23,7.76c2.74,0,5.49-.8,8.23-1.24a3.57,3.57,0,0,1,3.58,1.43c7.55,8.54,17,12.51,28.44,11.3a5.56,5.56,0,0,1,4.68,1.6c2.75,2.31,5.55,4.92,8.8,6.19,12,4.7,24.12,4.3,36.12-.52a7.13,7.13,0,0,1,4-.23,56.41,56.41,0,0,0,19.08,1.17c5.74-.72,9.9-4.34,13.5-8.39,2.58-2.91,5-2.78,8.33-1.8,8.61,2.51,16.81,1.53,24.13-4.11l4.16-3.2a21.43,21.43,0,0,0,5.69,15.43c2.55,2.73,2.34,5,.53,7.89-3.34,5.43-3.4,11.35-1.31,17.18a72.11,72.11,0,0,0,5.08,10.9,3.94,3.94,0,0,1,0,4.55c-5.65,9.77-6.91,19.83-1.62,30.23,0.78,1.53.52,2.75-1,4A33.39,33.39,0,0,0,374,372c-1.46,1.88-2.72,3.91-4.16,6a9.68,9.68,0,0,1-1-1.12c-7.27-9.36-16.54-14.88-28.7-14.88-0.86,0-1.82-.87-2.55-1.54-2.07-1.91-3.8-4.29-6.11-5.78a52.06,52.06,0,0,0-9.22-4.3c-3-1.19-6.06-2.61-9.2-2.94a43.34,43.34,0,0,0-20,2.68,66.66,66.66,0,0,0-17.9,9.62c-4.34,3.42-9.18,6.9-11.93,11.47a69.21,69.21,0,0,0-7.87,20c-2.17,9.42-5.39,18.48-8,27.73a57.94,57.94,0,0,1-2.72,6.63c-2.24,5.24-4.13,10.52-4.6,16.33a51.45,51.45,0,0,0,1.54,18.3c3.36,12,8.59,22.5,21.79,26.39h14.84a15.5,15.5,0,0,1,1.61-.89c5.84-2.52,9.83-7,13.13-12.24a24.44,24.44,0,0,0,3.45-12.56,122.32,122.32,0,0,0-.53-15.36c-0.56-5.79-1.65-11.53-2.47-17.29-0.23-1.65.53-2.12,2.23-2.33a45.1,45.1,0,0,0,8.69-2,40.12,40.12,0,0,0,5.85-3c6.61,11,10.58,13.82,19.26,18.33,7.31,3.8,15,4.11,23,2.9a5.55,5.55,0,0,1,3.35.72c1.52,0.87,2.69,2.4,4.25,3.16,3.79,1.85,7.71,3.45,11.61,5.09,4.6,1.93,9.46,1.75,14.13.84a50,50,0,0,0,18-7.57,14.57,14.57,0,0,0,4.67-4.37c2.52-4.32,4.54-8.93,6.83-13.39a5,5,0,0,1,1.58-1.8c4.83-3.29,9.93-6.25,14.47-9.91a22.54,22.54,0,0,0,5.49-7.6,41.31,41.31,0,0,0,3.8-21.2,4.41,4.41,0,0,1,1.6-3.84,31.11,31.11,0,0,0,9.09-14c1.72-5.67,2.29-11.34.21-16.81-1.66-4.34-1.1-8.16.3-12.31,3.39-10,3.44-20.1-.87-29.84a67.76,67.76,0,0,0-10.84-16.88,3.1,3.1,0,0,1-.56-3.72,39.65,39.65,0,0,0,.79-29.34c-0.65-1.8-1.8-3.43-2.46-5.23a4.18,4.18,0,0,1,.07-2.92c3.11-6.52,4.35-13.49,5-20.58,0.54-6.28-1.37-12.23-3.12-18.17a3.41,3.41,0,0,1,.08-2.53c2.34-3.44,5.06-6.64,7.22-10.18,1.54-2.52,3.17-5.38,3.43-8.21,0.56-6.2.86-12.53-1.52-18.54a2.92,2.92,0,0,1,.65-3.3,34,34,0,0,0,4.48-6.63,34.16,34.16,0,0,0,2-7.37c1.69-8.16.61-15.47-6.31-21.15-1.85-1.51-3.89-3.31-4.74-5.42-0.33-.82-0.69-1.62-1.07-2.38a25.21,25.21,0,0,0-3.6,1.17,30.18,30.18,0,0,0-7.67,4.65,54.49,54.49,0,0,0-7.65,7.92c-4.83,6-9.42,13.66-14.26,22.17l0.43,0.16c0.36,0.16.77,0.37,1.17,0.57L415,164.8c0.23,0.12.47,0.24,0.69,0.37l0.65,0.43,1.34,0.89a24.84,24.84,0,0,1,2.7,2c0.89,0.72,1.76,1.47,2.63,2.22s1.61,1.64,2.39,2.45a26.54,26.54,0,0,1,2.14,2.51c0.65,0.86,1.32,1.62,1.84,2.46s1,1.59,1.46,2.32c0.23,0.36.43,0.7,0.63,1l0.49,1c0.31,0.61.58,1.15,0.78,1.6,0.42,0.89.64,1.41,0.64,1.41a0.45,0.45,0,0,1-.7.52h0s-0.43-.36-1.15-1c-0.37-.32-0.79-0.72-1.27-1.17L429.5,183l-0.9-.75c-0.62-.52-1.27-1.1-2-1.7s-1.47-1.18-2.24-1.8-1.55-1.27-2.41-1.86-1.68-1.21-2.51-1.83-1.76-1.1-2.6-1.65-1.73-1-2.56-1.49l-1.22-.68a10.54,10.54,0,0,0-1.17-.6l-2.12-1c-0.34-.15-0.62-0.32-1-0.45l-1-.36-0.45-.16c-4.24,7.61-8.73,15.79-13.92,24.17-2.94,4.74-6.11,9.55-9.61,14.31,0.58,0.58,1.19,1.19,1.83,1.86s1.29,1.5,2,2.3a27.13,27.13,0,0,1,2,2.55l1.86,2.75c0.55,1,1.1,1.93,1.62,2.89a27,27,0,0,1,1.39,2.88c0.41,1,.84,1.85,1.15,2.75s0.57,1.76.82,2.55c0.13,0.39.25,0.77,0.35,1.12s0.15,0.72.23,1c0.13,0.66.26,1.22,0.34,1.7,0.18,0.94.26,1.48,0.26,1.48a0.46,0.46,0,0,1-.2.44,0.45,0.45,0,0,1-.62-0.13h0s-0.29-.46-0.78-1.27c-0.24-.4-0.52-0.89-0.84-1.45l-0.51-.89c-0.2-.3-0.4-0.62-0.61-1l-1.36-2.14c-0.45-.77-1.06-1.51-1.6-2.32a29.49,29.49,0,0,0-1.75-2.42c-0.65-.79-1.24-1.63-1.87-2.44l-2-2.33a27.94,27.94,0,0,0-2-2.19c-0.68-.7-1.25-1.43-1.88-2-0.44-.41-0.84-0.8-1.23-1.19a140.08,140.08,0,0,1-10.13,11.52,106.12,106.12,0,0,1-8.29,7.62,18.33,18.33,0,0,1,1.45,1.57c0.45,0.57,1.14,1.35,1.72,2.09a25,25,0,0,1,1.67,2.37c0.52,0.85,1,1.69,1.54,2.57a21.71,21.71,0,0,1,1.3,2.71c0.36,0.93.73,1.83,1,2.72s0.53,1.78.71,2.62a21.2,21.2,0,0,1,.39,2.39,15.24,15.24,0,0,1,.14,2,10.75,10.75,0,0,1,0,1.57,6.81,6.81,0,0,1-.11,1.35,0.45,0.45,0,0,1-.86.13h0s-0.2-.45-0.5-1.22c-0.14-.38-0.33-0.84-0.57-1.36s-0.49-1.09-.79-1.71-0.64-1.27-1-2-0.8-1.38-1.22-2.1-0.91-1.44-1.41-2.15-1-1.43-1.55-2.14-1.08-1.41-1.66-2.06-1.12-1.31-1.67-1.94-1.1-1.21-1.64-1.75l-1.52-1.52-0.33-.31c-0.81.61-1.61,1.23-2.45,1.81a100.08,100.08,0,0,1-16.77,9.46c0.4,0.73.75,1.54,1.15,2.38a21.06,21.06,0,0,1,1,2.94,27.24,27.24,0,0,1,.69,3.21,30.68,30.68,0,0,1,.3,3.35v1.71a6.41,6.41,0,0,1,0,.8l0,0.72c0,0.53-.08,1-0.13,1.57s-0.17,1-.25,1.52-0.18,1-.26,1.46-0.21.93-.33,1.37c-0.24.88-.44,1.71-0.73,2.47s-0.53,1.44-.75,2-0.49,1.08-.69,1.49c-0.39.82-.64,1.28-0.64,1.28a0.46,0.46,0,0,1-.86-0.17s-0.06-.52-0.1-1.43a14.09,14.09,0,0,0-.07-1.63c-0.07-.63-0.1-1.3-0.13-2s-0.12-1.54-.18-2.38c0-.42-0.07-0.84-0.1-1.28s-0.12-.88-0.16-1.33-0.11-.89-0.15-1.36v0.08h0v-0.34l-0.06-.37-0.11-.74-0.11-.74q-0.08-.24-0.19-0.47l-0.28-1.29a11.46,11.46,0,0,0-.33-1.29L334,256.08l-0.84-2.4c-0.17-.37-0.33-0.73-0.5-1.09a9.4,9.4,0,0,0-.46-1c-0.37-.64-0.68-1.25-1-1.79l-0.57-.86A101.83,101.83,0,0,1,315.52,253c-3.76.72-7.56,1.24-11.37,1.6v0.19c0.37,1.58.79,3.44,1.13,5.47,0.15,1,.33,2.07.44,3.15s0.25,2.17.26,3.29,0.1,2.21,0,3.31a14.44,14.44,0,0,1-.06,1.62v0.83l-0.09.75c-0.06.5-.12,1-0.18,1.47s-0.18,1-.28,1.47a24.81,24.81,0,0,1-.67,2.64c-0.24.79-.51,1.51-0.73,2.14a13.42,13.42,0,0,1-.73,1.58c-0.42.87-.67,1.35-0.67,1.35a0.43,0.43,0,0,1-.44.23,0.45,0.45,0,0,1-.39-0.5h0s0.07-.54.21-1.45l0.27-1.63c0-.64.09-1.35,0.17-2.12a20.25,20.25,0,0,0,.09-2.46V274.6a10.41,10.41,0,0,0-.07-1.47V271.7h0c-0.06-.49-0.1-1-0.16-1.49-0.08-1-.25-2-0.39-3s-0.37-2-.53-3-0.42-2-.62-2.92-0.45-1.86-.66-2.73L299.38,256c-0.09-.36-0.19-0.7-0.28-1-1.66.09-3.33,0.15-5,.18h-7.88l-2.66-.09c-3.57-.1-7.06-0.32-10.58-0.59-2.88-.23-5.75-0.54-8.6-0.89a9,9,0,0,1-.07,1.35c-0.06.88-.24,1.9-0.37,2.91a25.79,25.79,0,0,1-.6,3c-0.12.51-.25,1-0.37,1.53s-0.31,1-.46,1.51c-0.34,1-.63,2-1,3a29.56,29.56,0,0,1-1.18,2.77l-1.23,2.51c-0.4.79-.85,1.51-1.22,2.18s-0.74,1.28-1.09,1.8-0.63,1-.89,1.36l-0.81,1.16a0.46,0.46,0,0,1-.46.17,0.45,0.45,0,0,1-.33-0.54h0s0.12-.5.34-1.37c0.11-.43.26-1,0.43-1.55s0.35-1.26.54-2c0.42-1.45.86-3.14,1.34-4.94,0.22-.9.43-1.83,0.66-2.77s0.4-1.9.6-2.85c0.09-.48.21-1,0.29-1.42s0.14-1,.21-1.42c0.15-.94.3-1.86,0.35-2.72s0.2-1.66.23-2.52a18.15,18.15,0,0,1,.06-1.84c-2.41-.37-4.82-0.76-7.21-1.23a142,142,0,0,1-21.42-5.89,4.46,4.46,0,0,1-.05.81,2.9,2.9,0,0,0,0,.66,5.22,5.22,0,0,1-.1.74c-0.15,1-.3,2-0.52,3.05s-0.53,2-.8,3l-1.09,2.89c-0.43.92-.88,1.81-1.32,2.67s-1,1.62-1.45,2.36a18.19,18.19,0,0,1-1.46,2,20.58,20.58,0,0,1-1.33,1.59c-0.44.44-.81,0.82-1.14,1.12l-1,.94a0.45,0.45,0,0,1-.47.07,0.44,0.44,0,0,1-.24-0.57h0s0.2-.46.56-1.23c0.17-.39.41-0.85,0.67-1.37s0.47-1.16.77-1.81a21.31,21.31,0,0,0,.84-2.13c0.25-.77.59-1.55,0.83-2.39s0.49-1.7.75-2.57l0.61-2.68c0.15-.9.27-1.81,0.43-2.69s0.14-1.71.25-2.53c0-.21.05-0.4,0.06-0.61s0-.45,0-0.67v-2.59a117.12,117.12,0,0,1-12.33-5.9c-1.49-.8-2.92-1.69-4.37-2.54s-2.84-1.76-4.21-2.72c-2.77-1.84-5.39-3.84-7.92-5.87A127.19,127.19,0,0,1,183,213.61c-8.26-9.09-14.77-18.55-20.6-27.13l-2.81-4.15a3.07,3.07,0,0,0-.91.19,8.64,8.64,0,0,0-2.09.81c-0.37.25-.79,0.43-1.18,0.74a9.64,9.64,0,0,0-1.18,1,16.93,16.93,0,0,0-2.24,2.65,16.2,16.2,0,0,0-1,1.62l-0.48.85c-0.15.3-.29,0.6-0.43,0.9s-0.29.61-.42,0.92l-0.37,1a18,18,0,0,0-.7,2,32.28,32.28,0,0,0-1,4c-0.1.68-.21,1.35-0.3,2a19.27,19.27,0,0,0-.17,2,34.32,34.32,0,0,0,0,3.84,32.09,32.09,0,0,0,.39,3.43c0.1,0.53.2,1,.28,1.52s0.22,0.94.32,1.36c0.2,0.86.45,1.59,0.61,2.22l0.64,1.91h0a0.44,0.44,0,0,1-.79.38s-0.4-.63-1.08-1.78c-0.29-.59-0.7-1.3-1.07-2.15l-0.59-1.36c-0.19-.49-0.38-1-0.57-1.55a34.83,34.83,0,0,1-1-3.61,30.85,30.85,0,0,1-.57-4.14c-0.07-.79-0.05-1.5-0.08-2.27a13.67,13.67,0,0,1,.1-2.3,37.08,37.08,0,0,1,.74-4.63c0.18-.77.35-1.54,0.6-2.29a22.54,22.54,0,0,1,.79-2.23c0.15-.36.28-0.73,0.44-1.09s0.34-.71.51-1.06a22.77,22.77,0,0,1,3.92-5.59,21.5,21.5,0,0,1,1.63-1.43,19.33,19.33,0,0,1,1.72-1.15,16.16,16.16,0,0,1,2.41-1.07c-3.57-5.2-6.94-10-10.33-14q-2.57-3.13-5.11-5.72l-0.68-.15c-0.73-.15-1.51-0.38-2.36-0.49l-2.67-.45-2.83-.26-0.69-.07h-2.22a21.77,21.77,0,0,0-2.83.28,16.28,16.28,0,0,0-2.63.66,11.61,11.61,0,0,0-2.28,1.07,10,10,0,0,0-1,.64c-0.33.21-.59,0.48-0.88,0.7a16.07,16.07,0,0,0-1.39,1.44c-0.42.45-.68,0.91-1,1.26l-0.76,1.19h0a0.44,0.44,0,0,1-.8-0.34h0s0.12-.53.38-1.47a14.06,14.06,0,0,1,1.83-3.65c0.27-.34.53-0.71,0.85-1.06a8.59,8.59,0,0,1,1-1,15.16,15.16,0,0,1,2.61-1.82c0.48-.28,1-0.5,1.51-0.74a9.92,9.92,0,0,1,1.61-.57,21.13,21.13,0,0,1,3.36-.74c0.57-.07,1.22-0.15,1.71-0.17h1.66l2.11,0.06q-1.78-1.41-3.49-2.55a58.29,58.29,0,0,0-6.47-3.71c-0.72-.34-1.39-0.63-2-0.91-7.82.4-13.75,4.32-17.87,10.74-5.85,9.11-5.08,18.63-.23,28,1.46,2.8,3.12,5.49,4.58,8.29a2.56,2.56,0,0,1,.13,2.08c-2.59,4.41-2.68,9.29-2.8,14.15A19.18,19.18,0,0,0,111,221.5c0.51,0.64.94,1.34,1.44,2.07-5.94,4.92-7.69,11.73-9,18.56-1.32,7.11.12,13.82,5.09,19.16-2.17,1.25-4.45,2-5.93,3.52A29.79,29.79,0,0,0,94,284.57c-0.31,6.66-.18,13.41,1.66,19.94C85.13,308.93,83,317,84.52,325.86,85.56,330.81,88.1,335.66,89.82,340.68ZM371.58,270.2a0.45,0.45,0,0,1,.44-0.44,25.15,25.15,0,0,0,2.7-.28,16.89,16.89,0,0,0,2.62-.57,18.12,18.12,0,0,0,2.52-.88l0.62-.24,0.59-.3,1.18-.6,0.59-.31,0.55-.36,1.11-.72a8.15,8.15,0,0,0,1.06-.78l1-.82c0.69-.54,1.28-1.21,1.92-1.8s1.17-1.3,1.76-1.94,1-1.4,1.58-2.08a19.76,19.76,0,0,0,1.39-2.2c0.47-.72.8-1.54,1.21-2.3s0.67-1.59,1-2.38,0.54-1.62.83-2.43,0.4-1.65.63-2.47,0.28-1.66.43-2.48,0.15-1.66.25-2.48l0.32-2.43,2.41-.05h2.8c0.87-.12,1.75-0.13,2.61-0.31l1.29-.26,0.64-.12,0.64-.19a21.08,21.08,0,0,0,2.51-.81l1.24-.47a13.25,13.25,0,0,0,1.2-.58l1.2-.58,1.15-.69c0.38-.23.78-0.44,1.15-0.7l1.1-.79A20.09,20.09,0,0,0,420,231.6a25.46,25.46,0,0,0,2-1.89,8.66,8.66,0,0,0,.93-1l0.9-1.05c0.59-.71,1.07-1.5,1.64-2.24a20.91,20.91,0,0,0,1.46-2.39,26.94,26.94,0,0,0,1.21-2.54,28.41,28.41,0,0,0,1-2.66l0.38-1.35,0.2-.69c0.06-.24.09-0.49,0.14-0.73l0.27-1.47c0-.23.11-0.53,0.12-0.7l0.09-.74a0.44,0.44,0,0,1,.37-0.39,0.45,0.45,0,0,1,.51.37l0.11,0.74a2.8,2.8,0,0,0,.07.79l0.1,1.49v1.53l-0.09,1.58c-0.07,1.06-.31,2.06-0.47,3.1a23.78,23.78,0,0,1-.83,3,22,22,0,0,1-1.18,2.94,25.22,25.22,0,0,1-1.5,2.8l-0.86,1.34a12.23,12.23,0,0,1-.91,1.31,27.51,27.51,0,0,1-2.07,2.46,25.49,25.49,0,0,1-2.3,2.26L420,238.53c-0.42.34-.88,0.63-1.32,0.95l-1.35.93c-0.48.27-1,.54-1.43,0.79s-1,.54-1.46.75l-1.52.64a22.37,22.37,0,0,1-3.14,1l-0.8.22-0.82.13-1.64.25a9.43,9.43,0,0,1-1.66.12h-2.33v0.23c-0.21,1-.38,2-0.63,2.94l-0.64,2,0.07,0.24c0.35,1.37.91,2.95,1.39,4.81a13.35,13.35,0,0,0,.42,1.46l0.47,1.57c0.32,1.08.59,2.23,1,3.45,0.84,3,1.75,6.41,2.8,10.19l0.45-.1a38,38,0,0,0,4.78-1.75c1.76-.76,3.62-1.65,5.46-2.61s3.65-2,5.35-3,3.21-2,4.47-2.87c0.61-.46,1.17-0.89,1.61-1.28a6.14,6.14,0,0,0,.54-0.56,0.61,0.61,0,0,1,.15-0.15,0.61,0.61,0,0,0,.13-0.28h0a0.21,0.21,0,1,1,0,.09v-0.47a3.88,3.88,0,0,0,0-.45v-0.39a0.46,0.46,0,0,1,.29-0.44,0.45,0.45,0,0,1,.58.25l0.14,0.36a3.67,3.67,0,0,1,.28,1.28,1.2,1.2,0,0,1,0,.42,3.16,3.16,0,0,1-.21.57,8.13,8.13,0,0,1-.52.92,16,16,0,0,1-1.45,1.82c-0.57.61-1.19,1.26-1.88,1.91s-1.44,1.28-2.24,1.94A61.29,61.29,0,0,1,420,270.2a43.43,43.43,0,0,1-11,5.34l-0.41.11c0.29,1,.59,2,0.91,3.06,2,6.87,4.47,14.67,6.66,23.39,0.19,0.75.37,1.51,0.55,2.27l1.12-.44c0.71-.26,1.42-0.59,2.18-0.9a24.37,24.37,0,0,0,2.26-1.07c0.75-.4,1.51-0.78,2.26-1.19a22.28,22.28,0,0,0,2.15-1.35c0.68-.48,1.33-1,2-1.46,0.31-.25.58-0.52,0.88-0.77a7.52,7.52,0,0,0,.83-0.77l0.76-.77,0.66-.77a16.64,16.64,0,0,0,1.1-1.39l0.45-.61,0.36-.58c0.43-.71.69-1.1,0.69-1.1a0.45,0.45,0,0,1,.42-0.2,0.46,0.46,0,0,1,.41.49,8.59,8.59,0,0,1-.14,1.3,1.88,1.88,0,0,1-.09.68l-0.21.83-0.26,1a8.84,8.84,0,0,1-.38,1c-0.14.35-.28,0.72-0.46,1.09l-0.59,1.12a10,10,0,0,1-.7,1.13c-0.26.38-.51,0.78-0.81,1.15a22,22,0,0,1-1.94,2.19,25.94,25.94,0,0,1-2.25,2c-0.8.6-1.61,1.2-2.44,1.72s-1.66,1-2.47,1.44-1.61.82-2.38,1.15-1.43.62-2.09,0.87a160.35,160.35,0,0,1,3,20.8c0.15,1.3.17,2.62,0.22,3.94s0.09,2.66.13,4v6c0,0.7-.06,1.4-0.09,2.1a3.82,3.82,0,0,1-.07.89l0.72,0.1,1.19,0.06h2.33a23.93,23.93,0,0,0,2.57-.17,25.2,25.2,0,0,0,2.69-.31c0.9-.1,1.83-0.3,2.74-0.43s1.81-.32,2.69-0.46c1.76-.3,3.42-0.58,4.88-0.78s2.67-.33,3.51-0.38l1.34-.08a0.46,0.46,0,0,1,.42.25,0.45,0.45,0,0,1-.2.6l-1.22.57c-0.39.19-.86,0.38-1.4,0.62s-1.13.52-1.79,0.8c-1.31.56-2.86,1.26-4.56,1.9-0.86.33-1.73,0.67-2.66,1a26.48,26.48,0,0,1-2.83.86c-1,.23-1.93.52-2.93,0.68a26,26,0,0,1-2.94.41l-1.43.1h-2.61l-1-.1a105.42,105.42,0,0,1-1.7,10.73,88.74,88.74,0,0,1-5.5,16.85l-0.28.58c0.61,0.12,1.24.26,1.93,0.33s1.56,0.22,2.37.3l1.33,0.12,0.64,0.06h0.68c1.8,0.11,3.6.24,5.3,0.42s3.31,0.39,4.68.61l1,0.17h0.38a3.6,3.6,0,0,0,1.13-.44,5.54,5.54,0,0,1,1-.42l0.33-.08a0.46,0.46,0,0,1,.44.76l-0.23.25a5,5,0,0,0-.51.68,4.44,4.44,0,0,1-1.16,1.27,3.53,3.53,0,0,1-.64.32l-0.38.11h-0.3l-1,.23c-1.36.3-2.94,0.63-4.64,0.9s-3.55.54-5.4,0.76l-0.69.07h-0.73c-0.46,0-.88.07-1.37,0.07-1,0-2,0-2.88-.07s-1.84-.19-2.7-0.3l-1.68-.35c-0.28.49-.57,1-0.87,1.48-0.76,1.33-1.66,2.59-2.52,3.88a38.88,38.88,0,0,1-2.85,3.71c-1,1.19-2,2.37-3.12,3.53a41.09,41.09,0,0,1-3.44,3.28c-0.92.81-1.88,1.59-2.86,2.35l0.62,0.71c0.5,0.59,1.07,1.17,1.64,1.79s1.17,1.24,1.82,1.84,1.29,1.22,2,1.84,1.35,1.19,2,1.74,1.39,1.08,2,1.61a21.63,21.63,0,0,0,2,1.41c0.65,0.41,1.28.84,1.88,1.2l1.63,1c0.49,0.31.92,0.52,1.31,0.72,0.76,0.39,1.19.64,1.19,0.64a0.45,0.45,0,0,1-.23.85H411a12.49,12.49,0,0,1-1.56-.15l-1-.14c-0.34-.06-0.69-0.14-1-0.22a22.77,22.77,0,0,1-2.35-.63,19.25,19.25,0,0,1-2.56-1,25.32,25.32,0,0,1-2.63-1.27c-0.87-.48-1.74-1-2.6-1.54a27.28,27.28,0,0,1-2.5-1.69c-0.78-.62-1.52-1.25-2.24-1.88s-1.35-1.28-2-1.9c-0.45-.46-0.86-0.91-1.24-1.35a47.94,47.94,0,0,1-18,6.44l-1.21.18-1.22.11c-0.81.07-1.62,0.16-2.43,0.17H364l-2.21-.08h-1.1l-1.14-.11v0.14c-0.14.52-.2,1.2-0.32,1.84s-0.26,1.32-.32,2-0.21,1.43-.31,2.15-0.2,1.49-.3,2.22-0.23,1.47-.33,2.17c-0.22,1.42-.51,2.77-0.78,3.91a15.85,15.85,0,0,1-.43,1.56c-0.14.47-.26,0.87-0.38,1.2a10.11,10.11,0,0,1-.38,1,0.46,0.46,0,0,1-.87,0h0s-0.12-.39-0.28-1.06-0.35-1.61-.59-2.74c-0.12-.57-0.23-1.18-0.34-1.83s-0.23-1.34-.33-2c-0.22-1.41-.35-3-0.47-4.54v-2.37a22.25,22.25,0,0,1,.1-2.33c0.08-.75.09-1.42,0.22-2.14-0.38-.08-0.77-0.16-1.15-0.26a43.39,43.39,0,0,1-17.37-8.4,60.65,60.65,0,0,1-8.37-8h0c-0.23.79-.46,1.63-0.71,2.46a9.06,9.06,0,0,1-.45,1.24c-0.17.4-.34,0.81-0.52,1.22s-0.35.81-.54,1.2-0.44.77-.66,1.15a16.23,16.23,0,0,1-1.36,2.14c-0.49.67-1,1.28-1.46,1.87a13.14,13.14,0,0,1-1.51,1.48A9.08,9.08,0,0,1,318,412c-0.43.31-.8,0.57-1.12,0.78-0.63.42-1,.64-1,0.64a0.45,0.45,0,0,1-.45,0,0.44,0.44,0,0,1-.18-0.59h0s0.21-.37.59-1c0.18-.31.42-0.66,0.69-1.07a13.14,13.14,0,0,0,.8-1.42c0.28-.53.59-1.08,0.89-1.68s0.54-1.28.83-1.93a19.9,19.9,0,0,0,.77-2.08l0.38-1.07c0.12-.36.19-0.74,0.29-1.1,0.16-.75.45-1.45,0.54-2.19s0.27-1.45.4-2.14,0.15-1.33.22-1.93c0-.32.08-0.59,0.1-0.91s0-.65,0-1v-1c-3.37-4.3-6.46-8.42-10-11.56a21.35,21.35,0,0,0-12.23-5.83c-0.56-.1-1.14-0.07-1.7-0.13h-2.46a5.6,5.6,0,0,0-.89.07c-0.48.1-1,.17-1.45,0.24a22.28,22.28,0,0,0-6.1,2.26,29.11,29.11,0,0,0-9.66,8.65,43.32,43.32,0,0,0-5.68,11.36q-0.46,1.5-.9,3a11.3,11.3,0,0,0-.39,1.49c-0.11.5-.22,1-0.33,1.48-0.2,1-.47,2-0.62,2.94s-0.28,2-.42,2.92a41.76,41.76,0,0,0-.46,4.6,9.06,9.06,0,0,0,.71.63l0.59,0.49,0.67,0.5c0.44,0.36,1,.65,1.49,1a16.79,16.79,0,0,0,1.71,1c0.61,0.33,1.21.59,1.83,0.89a18.15,18.15,0,0,0,1.93.79c0.66,0.23,1.3.44,1.93,0.68a18.36,18.36,0,0,0,1.85.56c0.6,0.16,1.16.35,1.69,0.49l2.56,0.7c0.64,0.17,1,.29,1,0.29a0.43,0.43,0,0,1,.31.37,0.45,0.45,0,0,1-.39.5l-1,.11a7.57,7.57,0,0,0-1.19.07,11.43,11.43,0,0,1-1.55,0,31,31,0,0,1-3.89-.24c-0.71-.09-1.46-0.2-2.2-0.37s-1.5-.36-2.26-0.55a15.06,15.06,0,0,1-2.22-.79c-0.73-.31-1.41-0.64-2.09-1s-1.16-.67-1.69-1v6.58c0,1.68.15,3.25,0.18,4.78,0.13,3.07.22,5.89,0.38,8.49s0.23,4.89.32,6.9,0.08,3.74.09,5.13V455a0.44,0.44,0,0,1-.88.07h0s-0.24-1.46-.67-4.2c-0.22-1.36-.48-3-0.75-5s-0.72-4.26-1.15-6.8-0.84-5.42-1.3-8.55c-0.11-.78-0.22-1.58-0.34-2.39s-0.23-1.66-.28-2.49-0.13-1.54-.2-2.33h-1.09l-1,.06c-0.32,0-.74.06-1.13,0.1a12.13,12.13,0,0,0-1.23.12c-0.84.06-1.68,0.21-2.51,0.28l-1.2.15c-0.39,0-.75.1-1.1,0.13l-1,.08c-0.29,0-.54.07-0.76,0.07h-0.7a0.45,0.45,0,0,1-.27-0.08,0.49,0.49,0,0,1-.15-0.68h0s0.14-.22.42-0.57a12,12,0,0,1,1.25-1.36c0.28-.26.58-0.54,0.92-0.8s0.71-.53,1.11-0.8,0.82-.49,1.25-0.74a13.88,13.88,0,0,1,1.37-.66,11.07,11.07,0,0,1,1.45-.53,13,13,0,0,1,1.49-.39l1.5-.25,0.87-.06v-0.24a0.7,0.7,0,0,1,0-.18v-2.28a60.83,60.83,0,0,1,.16-6.09c0.08-1,.16-2.11.24-3.18s0.31-2.15.45-3.25c0.09-.55.17-1.1,0.26-1.66a14.69,14.69,0,0,1,.32-1.67l0.83-3.37a50,50,0,0,1,6-13.53,34.72,34.72,0,0,1,11.83-11.26,18.15,18.15,0,0,1,1.9-1l2-.87a15.72,15.72,0,0,1,2.1-.74l1.07-.33a8.8,8.8,0,0,1,1.12-.29q1.2-.23,2.42-0.43a7,7,0,0,1,1.06-.12l1-.07h2.36a21.6,21.6,0,0,1,2.27.13,27,27,0,0,1,6.36,1.39l0.15-.11a14.59,14.59,0,0,1,1.66-1,14.4,14.4,0,0,1,2-1.08c0.75-.32,1.53-0.67,2.37-1a24.56,24.56,0,0,1,2.61-.76c0.89-.24,1.81-0.35,2.74-0.51s1.83-.18,2.73-0.25,1.8,0,2.66,0,1.65,0.08,2.4.14l1.1,0.11h0.6l0.5,0.08c1.3,0.22,2.38.43,3.14,0.58l1.19,0.26a0.46,0.46,0,0,1,.34.36,0.44,0.44,0,0,1-.34.52h0l-1.2.18c-0.77.1-1.87,0.24-3.18,0.37h-1l-1.08.17c-0.75.1-1.56,0.18-2.31,0.34s-1.56.24-2.36,0.44-1.61.34-2.4,0.57l-2.33.69c-0.74.3-1.47,0.56-2.18,0.83l-1.94.93a5.87,5.87,0,0,0-.73.38,34.89,34.89,0,0,1,5.29,3.85c4.62,4.07,8.1,8.78,11.64,13.12a67.88,67.88,0,0,0,11.27,11.67,34.87,34.87,0,0,0,14,6.57,17.74,17.74,0,0,0,2,.39c0.66,0.1,1.32.23,2,.31l1.92,0.19,1,0.09h1.11l2.21,0.07h1.88c0.66,0,1.32-.08,2-0.14l1-.09,0.6-.09a2,2,0,0,1,.1-0.38c0.07-.54.18-1.09,0.28-1.75a6,6,0,0,1,.08-1.18v-3.44c0-.83-0.06-1.65-0.14-2.52-0.15-1.76-.3-3.51-0.43-5.16-0.07-.84-0.13-1.66-0.17-2.45s-0.08-1.51-.07-2.23a25.31,25.31,0,0,1,.18-3.35c0.09-.79.16-1.25,0.16-1.25a0.46,0.46,0,0,1,.88-0.08s0.15,0.43.39,1.2l0.43,1.37c0.17,0.52.39,1.09,0.59,1.71l0.7,2,0.77,2.29c0.25,0.8.52,1.64,0.77,2.51s0.48,1.76.7,2.67,0.36,1.85.53,2.77,0.19,1.88.29,2.79v2.77a1.91,1.91,0,0,1,0,.53,42.18,42.18,0,0,0,9.15-4.12,43.24,43.24,0,0,0,6.43-4.74c1-.87,2-1.83,2.9-2.76s1.83-2,2.67-3,1.64-2.12,2.46-3.18a29.94,29.94,0,0,0,2.21-3.36,65.19,65.19,0,0,0,3.79-7.08h-1.33L403,377H402.4l-0.69-.09-1.39-.19a24.77,24.77,0,0,1-2.75-.55,27.53,27.53,0,0,1-2.67-.77,23.87,23.87,0,0,1-2.51-.94,22,22,0,0,1-2.27-1,21.33,21.33,0,0,1-2-1.28c-0.59-.35-1.12-0.69-1.59-1a14.29,14.29,0,0,1-1.15-.86l-1-.77a0.45,0.45,0,0,1,.41-0.77h0l1.17,0.37,1.32,0.45c0.5,0.17,1.1.31,1.72,0.51s1.31,0.38,2,.55,1.47,0.39,2.26.54,1.58,0.36,2.42.47,1.66,0.31,2.5.36,1.68,0.23,2.48.24l1.19,0.08h3.56c0.69,0,1.35-.08,2-0.11h0.12a84,84,0,0,0,3.11-10.33,99.67,99.67,0,0,0,2.26-15.41c0-.63.07-1.25,0.11-1.88l0.06-.93v-5.39c-0.69.07-1.44,0.14-2.28,0.18s-1.83.13-2.76,0.13h-3c-1-.09-2-0.1-3.07-0.26l-1.54-.22c-0.51-.07-1-0.22-1.52-0.33A21.35,21.35,0,0,1,396,337a11.38,11.38,0,0,1-1.35-.55l-1.26-.58c-0.79-.44-1.5-0.91-2.16-1.32s-1.2-1-1.69-1.36a8.55,8.55,0,0,1-1.11-1.13c-0.58-.64-0.89-1-0.89-1a0.45,0.45,0,0,1,.55-0.68s0.44,0.24,1.19.68l0.62,0.37a3.85,3.85,0,0,0,.72.38l1.71,0.76c0.67,0.22,1.37.49,2.13,0.71a15.88,15.88,0,0,0,2.42.55c0.86,0.11,1.72.28,2.64,0.33s1.82,0.11,2.74.13,1.87,0,2.78,0l1.37-.1,1.4-.09c0.91-.07,1.72-0.18,2.53-0.24s1.57-.18,2.29-0.26h0.26a13.27,13.27,0,0,0-.1-2,163.94,163.94,0,0,0-4-27.58q-0.52-2.23-1-4.39a10.14,10.14,0,0,1-2,.44l-0.69.07h-0.56l-1.2.08a21.29,21.29,0,0,0-2.27.25l-2.52.36c-0.86.12-1.76,0.24-2.63,0.33a23.28,23.28,0,0,1-2.65.17H392l-1.25-.09-0.6-.06h-0.61l-1-.21a13.12,13.12,0,0,1-1.91-.63,9,9,0,0,1-1.34-.67c-0.69-.44-1.07-0.71-1.07-0.71a0.46,0.46,0,0,1-.18-0.41,0.45,0.45,0,0,1,.49-0.4h0.06a6.9,6.9,0,0,1,1.17.14c0.36,0.06.82,0,1.31,0.07a11.36,11.36,0,0,0,1.6-.07l1-.12h0.46l0.51-.11,1-.21,1.09-.29q0.55-.13,1.14-0.33l1.16-.35,2.45-.76c0.82-.27,1.7-0.49,2.56-0.73,0.42-.12.93-0.21,1.38-0.31s0.94-.2,1.32-0.25l1.19-.17,0.6-.07,0.43-.07a5.17,5.17,0,0,0,1.23-.37l0.14-.08c-1.22-4.66-2.46-9-3.57-13.16-1-3.47-1.84-6.76-2.6-9.82-0.38-1.54-.7-3-1-4.43s-0.49-2.82-.67-4.13-0.28-2.58-.37-3.76c0-.81-0.09-1.55-0.12-2.29-0.42.64-.81,1.29-1.28,1.9-0.61.77-1.16,1.57-1.82,2.3s-1.28,1.47-2,2.14-1.4,1.36-2.17,2a28.25,28.25,0,0,1-2.34,1.73l-1.24.77a10.15,10.15,0,0,1-1.25.72l-1.3.65L384,269l-0.68.26-1.36.51-0.68.25-0.7.18a19.51,19.51,0,0,1-2.81.59,17.86,17.86,0,0,1-2.85.24,26,26,0,0,1-2.83-.07h0A0.45,0.45,0,1,1,371.58,270.2ZM98.15,337.48s0.21-.68.62-1.85a17.62,17.62,0,0,1,.95-2.11,13.88,13.88,0,0,1,.69-1.26q0.38-.65.83-1.35c0.68-.87,1.35-1.89,2.22-2.83a31.93,31.93,0,0,1,2.86-2.84L108,323.9c0.57-.44,1.19-0.83,1.8-1.25a31.57,31.57,0,0,1,3.9-2.19,20.09,20.09,0,0,1,2.05-.92c0.7-.27,1.39-0.57,2.09-0.79s1.4-.49,2.1-0.66l2.09-.53a37.25,37.25,0,0,1,4-.64c0.64-.08,1.28-0.15,1.9-0.17h1.93l2,0.08v-0.32q-0.14-2.29-.27-4.56c-0.12-1.52-.1-3-0.12-4.52s0-3,0-4.53,0.08-2.88.12-4.3c0-.55.05-1.12,0.09-1.68h-0.45a9.76,9.76,0,0,1-1.72-.38l-0.93-.17a5.9,5.9,0,0,0-1.11-.16l-1.36-.1H125a18.76,18.76,0,0,0-2.67.13,23.93,23.93,0,0,0-2.8.38l-1.42.25c-0.48.08-.94,0.23-1.41,0.33-0.94.22-1.87,0.44-2.76,0.72s-1.78.48-2.59,0.78-1.64.48-2.34,0.75-1.38.48-2,.67-1.12.41-1.56,0.55c-0.87.3-1.37,0.45-1.37,0.45a0.46,0.46,0,0,1-.46-0.12,0.45,0.45,0,0,1,0-.64h0l1.08-1a34.17,34.17,0,0,1,3-2.37c0.64-.48,1.38-0.93,2.15-1.44a22.43,22.43,0,0,1,2.52-1.44c0.45-.23.89-0.5,1.37-0.71l1.46-.64a27,27,0,0,1,3.07-1.14,25.45,25.45,0,0,1,3.23-.82,23.09,23.09,0,0,1,3.26-.43l0.79-.06h2.25a8.91,8.91,0,0,1,1.44.15l1.45,0.23A9,9,0,0,1,132,291h0.14c0.38-4.62.86-9.06,1.5-13.29,0.73-4.9,1.54-9.5,2.36-13.75l-2.07-.32L129.3,263c-1.45-.24-2.82-0.46-4.09-0.63l-3.46-.44c-1-.13-1.92-0.21-2.65-0.23h-0.93a3.93,3.93,0,0,0-.69,0l-0.62.1h0a0.44,0.44,0,0,1-.26-0.84l0.57-.26a10.29,10.29,0,0,1,1.82-.5c0.77-.17,1.7-0.31,2.75-0.45s2.27-.25,3.57-0.35c2.61-.21,5.65-0.36,8.89-0.45l2.8-.08,1.57-7.53q0.57-2.67,1-4.95c0.28-1.51.49-2.9,0.74-4.1,0.15-.62.23-1.14,0.36-1.66l0.08-.38,0.05-.18h0a0.27,0.27,0,0,1,0,.1V240a4.31,4.31,0,0,1,.13-0.8c0.07-.44.16-0.85,0.25-1.23a7.82,7.82,0,0,1-.38-1.36,1,1,0,0,0-.06-0.4l-1.87-.27c-1.16-.28-2.33-0.49-3.47-0.82l-1.71-.55-0.85-.28-0.83-.35-1.65-.7c-0.54-.26-1.06-0.56-1.59-0.84a27.31,27.31,0,0,1-3-1.92c-0.49-.35-0.93-0.76-1.4-1.14l-0.69-.58c-0.22-.2-0.42-0.43-0.63-0.64-0.42-.43-0.85-0.85-1.24-1.3l-1.12-1.4a17,17,0,0,1-1-1.48,12.77,12.77,0,0,1-.91-1.54c-0.26-.54-0.57-1-0.8-1.6l-0.66-1.65a24.58,24.58,0,0,1-.92-3.42l-0.18-.87a6.76,6.76,0,0,0-.11-0.89c0-.59-0.16-1.22-0.15-1.77s0-1.08,0-1.74a11.86,11.86,0,0,1,.16-1.76,44.85,44.85,0,0,1,1.44-6.74,31.72,31.72,0,0,1,1.17-3.26,15.57,15.57,0,0,1,.78-1.57c0.14-.26.33-0.52,0.49-0.77s0.36-.44.54-0.67a0.44,0.44,0,0,1,.7.53h0c-0.16.23-.35,0.46-0.48,0.68a6.26,6.26,0,0,0-.37.68,16.21,16.21,0,0,0-.64,1.5,29.63,29.63,0,0,0-.93,3.18,43.57,43.57,0,0,0-1,6.57,14.41,14.41,0,0,0,0,1.61l0.12,1.64a12.94,12.94,0,0,0,.23,1.59c0.05,0.26.08,0.52,0.14,0.78l0.21,0.78a21.7,21.7,0,0,0,1,3.05l0.69,1.45c0.23,0.48.54,0.92,0.8,1.39a10,10,0,0,0,.89,1.32,13.38,13.38,0,0,0,1,1.26l1.06,1.18c0.38,0.37.79,0.72,1.17,1.08,0.2,0.18.38,0.36,0.59,0.53l0.64,0.47c0.43,0.31.83,0.65,1.28,0.93a25.56,25.56,0,0,0,2.78,1.54l1.45,0.66,1.51,0.54,0.74,0.27,0.78,0.2,1.55,0.4c1,0.24,2.11.36,3.15,0.55l3.21,0.26,1.47,0.12,0.42,1.66h0a27.35,27.35,0,0,0,.86,2.9l0.24,0.72c0.1,0.23.21,0.46,0.32,0.7a12.93,12.93,0,0,0,.66,1.4l0.79,1.35c0.28,0.45.62,0.86,0.92,1.29a11.58,11.58,0,0,0,1,1.24c0.37,0.39.69,0.83,1.09,1.19l1.17,1.13c0.41,0.36.83,0.7,1.25,1.05a15.68,15.68,0,0,0,1.3,1c0.45,0.31.88,0.66,1.36,0.94l1.4,0.87,1.46,0.78c0.48,0.28,1,.48,1.5.71a14.88,14.88,0,0,0,1.52.63,26.67,26.67,0,0,0,3.14,1l1.6,0.31,1.6,0.15a14.7,14.7,0,0,0,3.17-.34,27.36,27.36,0,0,0,3.2-.93,36.29,36.29,0,0,0,6.16-2.82,29.52,29.52,0,0,0,2.84-1.85,18.43,18.43,0,0,0,2.49-2.25h0a0.44,0.44,0,0,1,.67.56A18.59,18.59,0,0,1,184,248.4a30.48,30.48,0,0,1-2.81,2.16c-1,.68-2,1.28-3,1.86A33.88,33.88,0,0,1,175,254a28.44,28.44,0,0,1-3.39,1.22,17.09,17.09,0,0,1-3.69.63H166l-1.83-.23a29.49,29.49,0,0,1-3.54-.85,16.84,16.84,0,0,1-1.72-.58c-0.56-.22-1.15-0.41-1.69-0.67l-1.65-.75-1.61-.86c-0.54-.27-1-0.62-1.55-0.94a17.7,17.7,0,0,1-1.52-1c-0.49-.36-1-0.71-1.47-1.09L148,247.67c-0.48-.38-0.89-0.86-1.34-1.28a9.56,9.56,0,0,1-1-1.09c-0.08.67-.17,1.36-0.26,2.07-0.24,1.59-.49,3.3-0.79,5.11l-1.16,7.16,1.15,0.28a79,79,0,0,1,9.85,3.22c1.53,0.6,3,1.25,4.35,1.89l2,1,1.8,1c1.15,0.64,2.18,1.23,3.09,1.79s1.68,1.06,2.3,1.5l1.94,1.4a0.44,0.44,0,0,1-.47.74h0l-2.06-1.11c-0.65-.35-1.48-0.72-2.41-1.16s-2-.88-3.2-1.33l-1.87-.67-2-.64c-1.39-.42-2.86-0.83-4.41-1.19a74.7,74.7,0,0,0-9.69-1.67l-1.07-.1h0c-0.66,4.4-1.29,9.17-1.81,14.21-0.07.67-.13,1.35-0.19,2h0.61l2.81-.08h1.68l1.66,0.08c1.13,0,2.29.24,3.47,0.36s2.36,0.41,3.54.62,2.35,0.58,3.49.89a31.2,31.2,0,0,1,3.29,1.13,32.3,32.3,0,0,1,3,1.29c0.47,0.21.91,0.45,1.35,0.66s0.84,0.49,1.23.71c0.78,0.46,1.5.88,2.1,1.28s1.08,0.78,1.48,1.1c0.81,0.62,1.27,1,1.27,1a0.45,0.45,0,0,1-.43.77l-1.51-.57c-0.49-.18-1.05-0.42-1.72-0.68s-1.41-.44-2.2-0.71c-0.4-.13-0.8-0.28-1.25-0.41s-0.9-.23-1.37-0.36a29,29,0,0,0-2.94-.74c-1-.19-2.07-0.49-3.18-0.61s-2.18-.4-3.3-0.47-2.21-.28-3.3-0.31-2.17-.17-3.22-0.15H144.4l-2.8.12h-1.2c-0.21,2.9-.37,5.86-0.46,8.86,0,1.37-.1,2.69-0.08,4.13s0,2.86,0,4.3a17.51,17.51,0,0,0,.07,1.91,15.32,15.32,0,0,1,1.81-.29h1.71l1.77,0.09,1.86,0.1c0.63,0.06,1.27.18,1.92,0.27a34.36,34.36,0,0,1,4,.72c1.33,0.34,2.71.63,4,1.08s2.64,0.92,3.92,1.4,2.48,1.12,3.65,1.68,2.23,1.26,3.26,1.84a26.69,26.69,0,0,1,2.81,1.85c0.84,0.61,1.64,1.14,2.26,1.68s1.16,1,1.6,1.41c0.89,0.79,1.37,1.27,1.37,1.27a0.46,0.46,0,0,1,.1.51,0.45,0.45,0,0,1-.59.22s-0.62-.28-1.68-0.8c-0.54-.26-1.16-0.59-1.9-1s-1.58-.69-2.47-1.1-1.85-.83-2.92-1.21-2.15-.85-3.31-1.22l-3.58-1.12-3.74-.94a17.38,17.38,0,0,0-1.89-.38l-1.87-.35-0.92-.18a7.34,7.34,0,0,1-.93-0.1l-1.81-.21c-0.59-.06-1.18-0.15-1.75-0.18l-1.68-.07-1.59-.06h-1.42a14.08,14.08,0,0,1-1.83-.14,15.21,15.21,0,0,0,.13,1.77l0.36,4.28c0.12,1.43.35,2.85,0.51,4.28,0.3,2.87.89,5.69,1.41,8.53l0.19,1.07,0.26,1,0.5,2.09,0.49,2.1c0.16,0.7.33,1.4,0.55,2.08l0.07,0.23,0.74-1a22.61,22.61,0,0,1,2.49-2.52,12.8,12.8,0,0,1,1.37-1.11c0.49-.33.94-0.71,1.45-1l1.51-.87c0.52-.25,1.05-0.48,1.57-0.72a14.59,14.59,0,0,1,1.6-.6,13.84,13.84,0,0,1,1.62-.48c0.55-.13,1.1-0.27,1.64-0.37l1.66-.24a15.62,15.62,0,0,1,1.69-.13,8.16,8.16,0,0,1,1.64,0l1.52,0.06h0.88l0.8,0.09a13.23,13.23,0,0,1,1.6.24c0.53,0.11,1.06.18,1.57,0.33l1.55,0.42c0.51,0.14,1,.34,1.5.51a13.86,13.86,0,0,1,1.48.58c0.48,0.22,1,.42,1.44.64a30.76,30.76,0,0,1,5.26,3.35,0.44,0.44,0,0,1,.13.56,0.45,0.45,0,0,1-.6.19h0A29.72,29.72,0,0,0,178,333.7a28,28,0,0,0-2.76-1c-0.47-.15-0.95-0.26-1.42-0.39a12.88,12.88,0,0,0-1.43-.31c-0.49-.08-1-0.2-1.44-0.25l-1.45-.16c-0.48-.06-1,0-1.44-0.07a11.06,11.06,0,0,0-1.44,0H165l-1.51.18a10.45,10.45,0,0,0-1.39.26,12.23,12.23,0,0,0-1.32.31l-1.32.4c-0.43.16-.85,0.35-1.27,0.52a9.51,9.51,0,0,0-1.22.58,9.68,9.68,0,0,0-1.16.66c-0.37.24-.74,0.48-1.1,0.73l-1,.82c-0.34.27-.63,0.61-0.94,0.89a7.8,7.8,0,0,0-.86,1,16.12,16.12,0,0,0-1.49,2.07l-0.6,1.12c-0.21.37-.33,0.78-0.51,1.16l-0.24.59-0.18.61c-0.11.41-.27,0.79-0.35,1.21l-0.26,1.25c-0.08.42-.1,0.85-0.17,1.27a6,6,0,0,0-.08.73l0.39,1.06,1.66,3.84,0.83,1.91c0.27,0.63.62,1.23,0.91,1.85l1.86,3.65a39.19,39.19,0,0,0,2,3.51l2,3.42c1.38,2.22,2.84,4.32,4.19,6.41s2.95,4,4.32,5.85c0.67,1,1.45,1.83,2.15,2.73l2.08,2.63c1.31,1.76,2.71,3.33,4,4.89s2.44,3.08,3.62,4.41,2.25,2.64,3.25,3.84,1.87,2.35,2.76,3.34c1.73,2,3,3.63,3.92,4.75a21.37,21.37,0,0,1,1.32,1.74,0.47,0.47,0,0,1,0,.48,0.46,0.46,0,0,1-.61.19s-0.68-.36-1.92-1.08-3-1.79-5.24-3.23c-1.12-.69-2.3-1.6-3.59-2.56s-2.67-2-4.13-3.21c-0.76-.57-1.46-1.22-2.19-1.88l-2.26-2.06a65.42,65.42,0,0,1-4.69-4.62c-1.54-1.72-3.22-3.42-4.78-5.36s-3.14-4-4.72-6.08-3.09-4.39-4.62-6.72l-2.2-3.61c-0.73-1.22-1.52-2.43-2.16-3.73s-1.36-2.58-2-3.89c-0.33-.66-0.71-1.3-1-2l-0.92-2c-0.48-1.07-1-2.15-1.44-3.23h-0.06l-0.63-.08h-0.52L138,353h-1.28l-1.18.07c-0.8.07-1.68,0.27-2.53,0.39a16,16,0,0,0-2.54.7,14.72,14.72,0,0,0-2.49,1l-1.23.58-0.61.29-0.59.34a26.5,26.5,0,0,0-2.36,1.43,24.42,24.42,0,0,0-2.26,1.62l-1.11.86-1.05.94c-0.35.31-.71,0.62-1.05,0.94l-1,1c-0.68.66-1.3,1.38-1.94,2.1s-1.21,1.48-1.81,2.22-1.12,1.56-1.69,2.34-1,1.63-1.56,2.45-0.94,1.69-1.42,2.55h0a0.44,0.44,0,0,1-.8-0.37c0.34-.93.66-1.87,1-2.8a27.82,27.82,0,0,1,1.19-2.75c0.44-.89.84-1.83,1.35-2.69s1-1.77,1.52-2.62,1.07-1.72,1.68-2.53l0.89-1.25c0.31-.41.64-0.8,1-1.2l1-1.19,1.06-1.14a37.05,37.05,0,0,1,4.6-4.19l0.62-.5,0.65-.45,1.32-.9c0.88-.6,1.85-1.08,2.79-1.62a31.23,31.23,0,0,1,3-1.36,17.77,17.77,0,0,1,3.17-1l1.73-.39,0.88-.18c0.29-.07.5-0.07,0.76-0.12h0.16c-0.7-2.07-1.29-4.18-1.93-6.28-0.24-.74-0.42-1.49-0.59-2.24l-0.54-2.26c-0.33-1.51-.78-3-1-4.54-0.38-2.25-.79-4.5-1.1-6.75h-0.24l-2.76-.15h-1.42a15.24,15.24,0,0,0-1.6.07,31.23,31.23,0,0,0-3.45.37l-1.81.33c-0.61.12-1.21,0.28-1.84,0.42s-1.23.33-1.85,0.51-1.24.37-1.85,0.6-1.23.42-1.81,0.69-1.22.46-1.78,0.77-1.15.55-1.71,0.84l-1.63.91c-1,.66-2.06,1.28-3,2a30,30,0,0,0-2.5,2c-0.67.72-1.43,1.32-1.93,1.94s-1,1.11-1.41,1.61c-0.74,1-1.19,1.54-1.19,1.54a0.43,0.43,0,0,1-.48.15A0.44,0.44,0,0,1,98.15,337.48Z"/></svg>