<svg id="Layer_1" data-name="Layer 1" xmlns="http://www.w3.org/2000/svg" xmlns:xlink="http://www.w3.org/1999/xlink" viewBox="0 0 557.14 557.14"><defs><style>.cls-1{fill:#0065bd;}.cls-2{fill:url(#New_Gradient_Swatch_1);}.cls-3{fill:#fff;}</style><linearGradient id="New_Gradient_Swatch_1" x1="337" y1="288.29" x2="423.49" y2="509.21" gradientUnits="userSpaceOnUse"><stop offset="0" stop-color="#0065bd"/><stop offset="1" stop-color="#004c84"/></linearGradient></defs><title>poradna4</title><circle class="cls-1" cx="278.57" cy="278.57" r="278.57"/><path class="cls-2" d="M256,454l70.47,99c88.38-15.32,162.47-72.28,201.34-149.95L441,281l-71,40L256,331V454Z"/><path class="cls-3" d="M302.18,64.11C200.51,64.11,118.09,125,118.09,200.2c0,22.86,7.64,44.4,21.11,63.31l-26.65,65.84,90.63-14.41c28.59,13.51,62.56,21.34,99,21.34,101.67,0,184.09-60.93,184.09-136.08S403.85,64.11,302.18,64.11Zm0,259.37c-33,0-65-6.88-92.56-19.91l-4.19-2L134.14,312.9l20.65-51L151,256.53C138.45,239,132.11,220,132.11,200.2c0-68,76.29-123.29,170.07-123.29s170.07,55.3,170.07,123.29S396,323.49,302.18,323.49h0Z"/><path class="cls-3" d="M240.55,169.07a50.86,50.86,0,0,1,5.56-19.83A49.16,49.16,0,0,1,258.49,134a55.2,55.2,0,0,1,18.06-9.74,72.56,72.56,0,0,1,22.74-3.4,88.35,88.35,0,0,1,22.61,2.77,59.46,59.46,0,0,1,18.31,8.07,43,43,0,0,1,13,14,37.54,37.54,0,0,1,5.12,19.49q0,11.76-5.62,20a63.73,63.73,0,0,1-13.83,14.59q-6.32,5.31-10.86,9a51.87,51.87,0,0,0-7.51,7.32,25,25,0,0,0-4.42,8,37.53,37.53,0,0,0-1.58,11H284.89a64.35,64.35,0,0,1,1.64-15.74,38.21,38.21,0,0,1,4.8-11.3,44.32,44.32,0,0,1,7.89-9.11q4.74-4.21,10.93-9.4a84.43,84.43,0,0,0,8.4-6.92,31.63,31.63,0,0,0,4.74-5.59,15.36,15.36,0,0,0,2.15-5,27.39,27.39,0,0,0,.5-5.53,22.35,22.35,0,0,0-1.89-9.28,21.12,21.12,0,0,0-5.37-7.26,23.77,23.77,0,0,0-8.4-4.67,35.17,35.17,0,0,0-11-1.61q-12.5,0-19.39,6.28t-8.9,19.2H240.55v-0.1Zm76.29,110.46H283.75V251.85h33.09v27.67h0Z"/><path class="cls-3" d="M337.69,451.53c8-10.82,12.56-23.14,12.56-36.21,0-43-49-77.84-109.53-77.84s-109.53,34.85-109.53,77.84,49,77.84,109.53,77.84c21.68,0,41.9-4.48,58.91-12.2l53.92,8.24ZM251.61,457H233.13V442.2h18.48V457Zm0-66.55-2.46,42.62H235.66l-2.53-42.62v-16.9h18.48v16.9Z"/></svg>