<svg id="Layer_1" data-name="Layer 1" xmlns="http://www.w3.org/2000/svg" xmlns:xlink="http://www.w3.org/1999/xlink" viewBox="0 0 557.14 557.14"><defs><style>.cls-1{fill:#0065bd;}.cls-2{fill:url(#New_Gradient_Swatch_1);}.cls-3{fill:#fff;}</style><linearGradient id="New_Gradient_Swatch_1" x1="277.96" y1="163.22" x2="403.57" y2="514.38" gradientUnits="userSpaceOnUse"><stop offset="0" stop-color="#0065bd"/><stop offset="1" stop-color="#004c84"/></linearGradient></defs><title>recto4</title><circle class="cls-1" cx="278.57" cy="278.57" r="278.57"/><path class="cls-2" d="M180,348L326.47,553c88.38-15.32,162.47-72.28,201.34-149.95L322,113,264,257Z"/><path class="cls-3" d="M326.12,415.38a10.68,10.68,0,0,0,1.36.87c5.86,3.15,86.07,44.19,94.88,48.15s21-9.34,24.73-18.45,5.87-26.11-3-30.07-92.74-36.65-99-39a9.08,9.08,0,0,0-2-.52c1,4,.49,10.67-4.42,21.6C334.1,408.29,329.71,413.18,326.12,415.38Z"/><path class="cls-3" d="M323.22,357a124.78,124.78,0,1,0-26,57.12c2.16,0.86,8.21,2.47,15.35-3,4.21-3.24,8.81-8.94,13.22-18.73s5.58-17,5.19-22.26C330.37,361.54,325.5,358.09,323.22,357ZM156.81,432.14a106,106,0,1,1,140.12-53.28l0,0A106.13,106.13,0,0,1,156.81,432.14Z"/><path class="cls-3" d="M317.42,213.51s21.73-21.23,2.89-42.6c0,0,11.66-20.1-1-34.54,0,0,13.84-21.81-1.64-40.63,0,0,8.09-20.32-2.77-35.79S284.16,43.66,271.35,50c0,0-37.88-17.56-58.91,18.94,0,0-3.19,48.19,13.52,49,0,0,15.72,1.38,23.91-8,0,0-.7,7.61,8.19,12.93,0,0-4.73,10.51,2.66,25.28,0,0-9,21.83,3.35,32.91,0,0-13.17,14.21-3.46,31.87,0,0-12.94,9.92-9.25,26.2a27.22,27.22,0,0,0-14.31,27,16.11,16.11,0,0,0-16.75,5.1s-9.95-7.41-21.7,1c0,0-33.15-12.09-45.48,17-12.76,30.17,5.24,49.61,8,68.52,3.22,22.18-.46,35.87,9.84,44.36,4.82,3.92,18.79,6,21.1-16.94,1.14-11.37-.21-26.63,6.76-35,5.39-6.46,8.49-14.09,10.63-21.08,0,0,24.79,11,43.39-5.72,0,0,33.76,1.25,42.08-31.37,0,0,25.23-9.53,19.33-39.78C314.29,252.32,332.54,233.28,317.42,213.51Z"/></svg>